<?xml version="1.0" encoding="us-ascii" standalone="no"?><svg xmlns="http://www.w3.org/2000/svg" xmlns:xlink="http://www.w3.org/1999/xlink" contentStyleType="text/css" height="602px" preserveAspectRatio="none" style="width:2020px;height:602px;background:#FFFFFF;" version="1.1" viewBox="0 0 2020 602" width="2020px" zoomAndPan="magnify"><defs/><g><rect fill="#FFFFFF" height="333.4609" style="stroke:#181818;stroke-width:1.0;" width="10" x="581.5" y="141.5625"/><rect fill="#FFFFFF" height="233.0625" style="stroke:#181818;stroke-width:1.0;" width="10" x="943.5" y="212.8281"/><rect fill="#FFFFFF" height="174.7969" style="stroke:#181818;stroke-width:1.0;" width="10" x="1221.5" y="241.9609"/><rect fill="#FFFFFF" height="87.3984" style="stroke:#181818;stroke-width:1.0;" width="10" x="1558.5" y="271.0938"/><rect fill="#FFFFFF" height="29.1328" style="stroke:#181818;stroke-width:1.0;" width="10" x="1864.5" y="300.2266"/><line style="stroke:#181818;stroke-width:0.5;stroke-dasharray:5.0,5.0;" x1="58" x2="58" y1="81.2969" y2="522.1563"/><line style="stroke:#181818;stroke-width:0.5;stroke-dasharray:5.0,5.0;" x1="259" x2="259" y1="81.2969" y2="522.1563"/><line style="stroke:#181818;stroke-width:0.5;stroke-dasharray:5.0,5.0;" x1="586.5" x2="586.5" y1="81.2969" y2="522.1563"/><line style="stroke:#181818;stroke-width:0.5;stroke-dasharray:5.0,5.0;" x1="948" x2="948" y1="81.2969" y2="522.1563"/><line style="stroke:#181818;stroke-width:0.5;stroke-dasharray:5.0,5.0;" x1="1226" x2="1226" y1="81.2969" y2="522.1563"/><line style="stroke:#181818;stroke-width:0.5;stroke-dasharray:5.0,5.0;" x1="1563" x2="1563" y1="81.2969" y2="522.1563"/><line style="stroke:#181818;stroke-width:0.5;stroke-dasharray:5.0,5.0;" x1="1869.5" x2="1869.5" y1="81.2969" y2="522.1563"/><line style="stroke:#181818;stroke-width:0.5;stroke-dasharray:5.0,5.0;" x1="1981.5" x2="1981.5" y1="81.2969" y2="522.1563"/><text fill="#000000" font-family="sans-serif" font-size="14" lengthAdjust="spacing" textLength="101" x="5" y="77.9951">Domain Expert</text><ellipse cx="58.5" cy="13.5" fill="#E2E2F0" rx="8" ry="8" style="stroke:#181818;stroke-width:0.5;"/><path d="M58.5,21.5 L58.5,48.5 M45.5,29.5 L71.5,29.5 M58.5,48.5 L45.5,63.5 M58.5,48.5 L71.5,63.5 " fill="none" style="stroke:#181818;stroke-width:0.5;"/><text fill="#000000" font-family="sans-serif" font-size="14" lengthAdjust="spacing" textLength="101" x="5" y="534.1514">Domain Expert</text><ellipse cx="58.5" cy="545.9531" fill="#E2E2F0" rx="8" ry="8" style="stroke:#181818;stroke-width:0.5;"/><path d="M58.5,553.9531 L58.5,580.9531 M45.5,561.9531 L71.5,561.9531 M58.5,580.9531 L45.5,595.9531 M58.5,580.9531 L71.5,595.9531 " fill="none" style="stroke:#181818;stroke-width:0.5;"/><rect fill="#E2E2F0" height="46.5938" rx="2.5" ry="2.5" style="stroke:#181818;stroke-width:0.5;" width="169" x="175" y="33.7031"/><text fill="#000000" font-family="sans-serif" font-size="14" lengthAdjust="spacing" textLength="86" x="216.5" y="53.6982">KB Frontend</text><text fill="#000000" font-family="sans-serif" font-size="14" lengthAdjust="spacing" textLength="155" x="182" y="69.9951">(DataProcessing View)</text><rect fill="#E2E2F0" height="46.5938" rx="2.5" ry="2.5" style="stroke:#181818;stroke-width:0.5;" width="169" x="175" y="521.1563"/><text fill="#000000" font-family="sans-serif" font-size="14" lengthAdjust="spacing" textLength="86" x="216.5" y="541.1514">KB Frontend</text><text fill="#000000" font-family="sans-serif" font-size="14" lengthAdjust="spacing" textLength="155" x="182" y="557.4482">(DataProcessing View)</text><rect fill="#E2E2F0" height="46.5938" rx="2.5" ry="2.5" style="stroke:#181818;stroke-width:0.5;" width="128" x="522.5" y="33.7031"/><text fill="#000000" font-family="sans-serif" font-size="14" lengthAdjust="spacing" textLength="84" x="544.5" y="53.6982">KB Backend</text><text fill="#000000" font-family="sans-serif" font-size="14" lengthAdjust="spacing" textLength="114" x="529.5" y="69.9951">/data/upload-pdf</text><rect fill="#E2E2F0" height="46.5938" rx="2.5" ry="2.5" style="stroke:#181818;stroke-width:0.5;" width="128" x="522.5" y="521.1563"/><text fill="#000000" font-family="sans-serif" font-size="14" lengthAdjust="spacing" textLength="84" x="544.5" y="541.1514">KB Backend</text><text fill="#000000" font-family="sans-serif" font-size="14" lengthAdjust="spacing" textLength="114" x="529.5" y="557.4482">/data/upload-pdf</text><rect fill="#E2E2F0" height="30.2969" rx="2.5" ry="2.5" style="stroke:#181818;stroke-width:0.5;" width="173" x="862" y="50"/><text fill="#000000" font-family="sans-serif" font-size="14" lengthAdjust="spacing" textLength="159" x="869" y="69.9951">DataProcessingService</text><rect fill="#E2E2F0" height="30.2969" rx="2.5" ry="2.5" style="stroke:#181818;stroke-width:0.5;" width="173" x="862" y="521.1563"/><text fill="#000000" font-family="sans-serif" font-size="14" lengthAdjust="spacing" textLength="159" x="869" y="541.1514">DataProcessingService</text><rect fill="#E2E2F0" height="30.2969" rx="2.5" ry="2.5" style="stroke:#181818;stroke-width:0.5;" width="105" x="1174" y="50"/><text fill="#000000" font-family="sans-serif" font-size="14" lengthAdjust="spacing" textLength="91" x="1181" y="69.9951">AgentService</text><rect fill="#E2E2F0" height="30.2969" rx="2.5" ry="2.5" style="stroke:#181818;stroke-width:0.5;" width="105" x="1174" y="521.1563"/><text fill="#000000" font-family="sans-serif" font-size="14" lengthAdjust="spacing" textLength="91" x="1181" y="541.1514">AgentService</text><rect fill="#E2E2F0" height="30.2969" rx="2.5" ry="2.5" style="stroke:#181818;stroke-width:0.5;" width="131" x="1498" y="50"/><text fill="#000000" font-family="sans-serif" font-size="14" lengthAdjust="spacing" textLength="117" x="1505" y="69.9951">AgentFramework</text><rect fill="#E2E2F0" height="30.2969" rx="2.5" ry="2.5" style="stroke:#181818;stroke-width:0.5;" width="131" x="1498" y="521.1563"/><text fill="#000000" font-family="sans-serif" font-size="14" lengthAdjust="spacing" textLength="117" x="1505" y="541.1514">AgentFramework</text><rect fill="#E2E2F0" height="46.5938" rx="2.5" ry="2.5" style="stroke:#181818;stroke-width:0.5;" width="130" x="1804.5" y="33.7031"/><text fill="#000000" font-family="sans-serif" font-size="14" lengthAdjust="spacing" textLength="116" x="1811.5" y="53.6982">LocalModelClient</text><text fill="#000000" font-family="sans-serif" font-size="14" lengthAdjust="spacing" textLength="56" x="1841.5" y="69.9951">(Ollama)</text><rect fill="#E2E2F0" height="46.5938" rx="2.5" ry="2.5" style="stroke:#181818;stroke-width:0.5;" width="130" x="1804.5" y="521.1563"/><text fill="#000000" font-family="sans-serif" font-size="14" lengthAdjust="spacing" textLength="116" x="1811.5" y="541.1514">LocalModelClient</text><text fill="#000000" font-family="sans-serif" font-size="14" lengthAdjust="spacing" textLength="56" x="1841.5" y="557.4482">(Ollama)</text><text fill="#000000" font-family="sans-serif" font-size="14" lengthAdjust="spacing" textLength="69" x="1944.5" y="77.9951">MongoDB</text><path d="M1964,29 C1964,19 1982,19 1982,19 C1982,19 2000,19 2000,29 L2000,55 C2000,65 1982,65 1982,65 C1982,65 1964,65 1964,55 L1964,29 " fill="#E2E2F0" style="stroke:#181818;stroke-width:1.5;"/><path d="M1964,29 C1964,39 1982,39 1982,39 C1982,39 2000,39 2000,29 " fill="none" style="stroke:#181818;stroke-width:1.5;"/><text fill="#000000" font-family="sans-serif" font-size="14" lengthAdjust="spacing" textLength="69" x="1944.5" y="534.1514">MongoDB</text><path d="M1964,547.4531 C1964,537.4531 1982,537.4531 1982,537.4531 C1982,537.4531 2000,537.4531 2000,547.4531 L2000,573.4531 C2000,583.4531 1982,583.4531 1982,583.4531 C1982,583.4531 1964,583.4531 1964,573.4531 L1964,547.4531 " fill="#E2E2F0" style="stroke:#181818;stroke-width:1.5;"/><path d="M1964,547.4531 C1964,557.4531 1982,557.4531 1982,557.4531 C1982,557.4531 2000,557.4531 2000,547.4531 " fill="none" style="stroke:#181818;stroke-width:1.5;"/><rect fill="#FFFFFF" height="333.4609" style="stroke:#181818;stroke-width:1.0;" width="10" x="581.5" y="141.5625"/><rect fill="#FFFFFF" height="233.0625" style="stroke:#181818;stroke-width:1.0;" width="10" x="943.5" y="212.8281"/><rect fill="#FFFFFF" height="174.7969" style="stroke:#181818;stroke-width:1.0;" width="10" x="1221.5" y="241.9609"/><rect fill="#FFFFFF" height="87.3984" style="stroke:#181818;stroke-width:1.0;" width="10" x="1558.5" y="271.0938"/><rect fill="#FFFFFF" height="29.1328" style="stroke:#181818;stroke-width:1.0;" width="10" x="1864.5" y="300.2266"/><polygon fill="#181818" points="247.5,108.4297,257.5,112.4297,247.5,116.4297,251.5,112.4297" style="stroke:#181818;stroke-width:1.0;"/><line style="stroke:#181818;stroke-width:1.0;" x1="58.5" x2="253.5" y1="112.4297" y2="112.4297"/><text fill="#000000" font-family="sans-serif" font-size="13" lengthAdjust="spacing" textLength="177" x="65.5" y="107.3638">Select PDF and click Upload</text><polygon fill="#181818" points="569.5,137.5625,579.5,141.5625,569.5,145.5625,573.5,141.5625" style="stroke:#181818;stroke-width:1.0;"/><line style="stroke:#181818;stroke-width:1.0;" x1="259.5" x2="575.5" y1="141.5625" y2="141.5625"/><text fill="#000000" font-family="sans-serif" font-size="13" lengthAdjust="spacing" textLength="202" x="266.5" y="136.4966">HTTP POST /api/data/upload-pdf</text><line style="stroke:#181818;stroke-width:1.0;" x1="591.5" x2="633.5" y1="170.6953" y2="170.6953"/><line style="stroke:#181818;stroke-width:1.0;" x1="633.5" x2="633.5" y1="170.6953" y2="183.6953"/><line style="stroke:#181818;stroke-width:1.0;" x1="592.5" x2="633.5" y1="183.6953" y2="183.6953"/><polygon fill="#181818" points="602.5,179.6953,592.5,183.6953,602.5,187.6953,598.5,183.6953" style="stroke:#181818;stroke-width:1.0;"/><text fill="#000000" font-family="sans-serif" font-size="13" lengthAdjust="spacing" textLength="129" x="598.5" y="165.6294">Save file to uploads/</text><polygon fill="#181818" points="931.5,208.8281,941.5,212.8281,931.5,216.8281,935.5,212.8281" style="stroke:#181818;stroke-width:1.0;"/><line style="stroke:#181818;stroke-width:1.0;" x1="591.5" x2="937.5" y1="212.8281" y2="212.8281"/><text fill="#000000" font-family="sans-serif" font-size="13" lengthAdjust="spacing" textLength="204" x="598.5" y="207.7622">process_pdf(file_path, filename)</text><polygon fill="#181818" points="1209.5,237.9609,1219.5,241.9609,1209.5,245.9609,1213.5,241.9609" style="stroke:#181818;stroke-width:1.0;"/><line style="stroke:#181818;stroke-width:1.0;" x1="953.5" x2="1215.5" y1="241.9609" y2="241.9609"/><text fill="#000000" font-family="sans-serif" font-size="13" lengthAdjust="spacing" textLength="249" x="960.5" y="236.895">extract_facts_from_pdf(text/metadata)</text><polygon fill="#181818" points="1546.5,267.0938,1556.5,271.0938,1546.5,275.0938,1550.5,271.0938" style="stroke:#181818;stroke-width:1.0;"/><line style="stroke:#181818;stroke-width:1.0;" x1="1231.5" x2="1552.5" y1="271.0938" y2="271.0938"/><text fill="#000000" font-family="sans-serif" font-size="13" lengthAdjust="spacing" textLength="286" x="1238.5" y="266.0278">run_agent(KNOWLEDGE_BUILDER, message)</text><polygon fill="#181818" points="1852.5,296.2266,1862.5,300.2266,1852.5,304.2266,1856.5,300.2266" style="stroke:#181818;stroke-width:1.0;"/><line style="stroke:#181818;stroke-width:1.0;" x1="1568.5" x2="1858.5" y1="300.2266" y2="300.2266"/><text fill="#000000" font-family="sans-serif" font-size="13" lengthAdjust="spacing" textLength="277" x="1575.5" y="295.1606">chat.create(model="llama2", messages,...)</text><polygon fill="#181818" points="1579.5,325.3594,1569.5,329.3594,1579.5,333.3594,1575.5,329.3594" style="stroke:#181818;stroke-width:1.0;"/><line style="stroke:#181818;stroke-width:1.0;stroke-dasharray:2.0,2.0;" x1="1573.5" x2="1868.5" y1="329.3594" y2="329.3594"/><text fill="#000000" font-family="sans-serif" font-size="13" lengthAdjust="spacing" textLength="201" x="1585.5" y="324.2935">LLM response (facts / tool calls)</text><polygon fill="#181818" points="1242.5,354.4922,1232.5,358.4922,1242.5,362.4922,1238.5,358.4922" style="stroke:#181818;stroke-width:1.0;"/><line style="stroke:#181818;stroke-width:1.0;" x1="1236.5" x2="1562.5" y1="358.4922" y2="358.4922"/><text fill="#000000" font-family="sans-serif" font-size="13" lengthAdjust="spacing" textLength="303" x="1248.5" y="353.4263">AgentRunResponse (facts, stylized facts, steps)</text><polygon fill="#181818" points="1970,383.625,1980,387.625,1970,391.625,1974,387.625" style="stroke:#181818;stroke-width:1.0;"/><line style="stroke:#181818;stroke-width:1.0;" x1="1231.5" x2="1976" y1="387.625" y2="387.625"/><text fill="#000000" font-family="sans-serif" font-size="13" lengthAdjust="spacing" textLength="267" x="1238.5" y="382.5591">Store extracted facts and/or stylized facts</text><polygon fill="#181818" points="964.5,412.7578,954.5,416.7578,964.5,420.7578,960.5,416.7578" style="stroke:#181818;stroke-width:1.0;"/><line style="stroke:#181818;stroke-width:1.0;stroke-dasharray:2.0,2.0;" x1="958.5" x2="1225.5" y1="416.7578" y2="416.7578"/><text fill="#000000" font-family="sans-serif" font-size="13" lengthAdjust="spacing" textLength="104" x="970.5" y="411.6919">Extraction result</text><polygon fill="#181818" points="602.5,441.8906,592.5,445.8906,602.5,449.8906,598.5,445.8906" style="stroke:#181818;stroke-width:1.0;"/><line style="stroke:#181818;stroke-width:1.0;stroke-dasharray:2.0,2.0;" x1="596.5" x2="947.5" y1="445.8906" y2="445.8906"/><text fill="#000000" font-family="sans-serif" font-size="13" lengthAdjust="spacing" textLength="328" x="608.5" y="440.8247">Processed document summary and extracted facts</text><polygon fill="#181818" points="270.5,471.0234,260.5,475.0234,270.5,479.0234,266.5,475.0234" style="stroke:#181818;stroke-width:1.0;"/><line style="stroke:#181818;stroke-width:1.0;stroke-dasharray:2.0,2.0;" x1="264.5" x2="585.5" y1="475.0234" y2="475.0234"/><text fill="#000000" font-family="sans-serif" font-size="13" lengthAdjust="spacing" textLength="298" x="276.5" y="469.9575">HTTP 200 JSON (facts, document id, summary)</text><polygon fill="#181818" points="69.5,500.1563,59.5,504.1563,69.5,508.1563,65.5,504.1563" style="stroke:#181818;stroke-width:1.0;"/><line style="stroke:#181818;stroke-width:1.0;stroke-dasharray:2.0,2.0;" x1="63.5" x2="258.5" y1="504.1563" y2="504.1563"/><text fill="#000000" font-family="sans-serif" font-size="13" lengthAdjust="spacing" textLength="149" x="75.5" y="499.0903">Show extraction results</text><!--SRC=[RLHDZzem5BpdLpnnAIi1MUrnfLQ2JT8FO45yj9TAaPiymCAnKzk1tVxwFZiacsnx8iGpOx-PSJx05dzNA3DyX4XbLO7I0fT7D9Oh2KpcS62P1NoncdxTkmjdC9VgAZ0_8imgBdBKGK2hIiCWKWNZ4kAN4hKT03EmDxHSCcrvnaj6yeFv31Ajf4MP_vJ3Y5csrYf3OsXZ-CxnUkU9IVmFRSQoisU5ER72gXIAvUCoFtZ2B4wTM9_Lbz-Yll0CFJnQR_lGwP6cxoAc_mCacXLuLVfSGv8-PA4o9fOgH_4aEA5fm9KGh63rJ8lbK-2E_eiPXC5IoQEAPdx5FmU1Sml6dsXuUAHi19BvwoZnIMI2PsVO-w430X3iDZ9Xl-nsQrYljZi8MSdV- -FYuHTciJKfQAWzbIsx81ouGB0AQhe9kr0oZM1bRMXAoaE7JajcJoDFbEJEtTjspkJ0aOWxTTHRar9NAvCUj2gyYgNtOO6MkODt-1H1CAtP2R5r9LFcKXZEdrS_5d7qEKvd-w-BADwCeA0ZqMANdH0xSMmodkZPYTb9ff7MXeKBwUF0X_CmQDbcD9bCEX8kCKSUDqTOB9QWqPHAKeH3FmQ4P9SIGD4BSnVas6FVJk2dzmtQL7BJ5nY1iQ-2_y7wkld_MFQb_2pU2LyL5nRTE6mCRQYkAI7TnBvWJMtpYz-kCurI2TlRg4cirupR7IB1lFbEcAeec7xrtNntYgwUhq1ReQRRlgyFz_VmRRjwRcrejNa-QlHxBhJrTVqdBNzVo8gJkdO_KlLK9lWB]--></g></svg>