<?xml version="1.0" encoding="us-ascii" standalone="no"?><svg xmlns="http://www.w3.org/2000/svg" xmlns:xlink="http://www.w3.org/1999/xlink" contentStyleType="text/css" height="670.0982px" preserveAspectRatio="none" style="width:1920px;height:670px;background:#FFFFFF;" version="1.1" viewBox="0 0 1920 670" width="1920.3307px" zoomAndPan="magnify"><defs/><g><!--cluster KB_PKG--><g id="cluster_KB_PKG"><path d="M202.7494,168.0207 L356.2171,168.0207 A2.4806,2.4806 0 0 1 357.8708,169.6744 L362.5013,193.5504 L1228.0724,193.5504 A1.6537,1.6537 0 0 1 1229.7261,195.2041 L1229.7261,663.814 A1.6537,1.6537 0 0 1 1228.0724,665.4677 L202.7494,665.4677 A1.6537,1.6537 0 0 1 201.0956,663.814 L201.0956,169.6744 A1.6537,1.6537 0 0 1 202.7494,168.0207 " fill="none" style="stroke:#000000;stroke-width:0.9922480620155039;"/><line style="stroke:#000000;stroke-width:0.9922480620155039;" x1="201.0956" x2="362.5013" y1="193.5504" y2="193.5504"/><text fill="#000000" font-family="sans-serif" font-size="9.261" font-weight="bold" lengthAdjust="spacing" textLength="152.8062" x="203.7416" y="177.9399">advandeb-knowledge-builder</text><text fill="#000000" font-family="sans-serif" font-size="9.261" font-weight="bold" lengthAdjust="spacing" textLength="136.2687" x="212.0103" y="188.7203">(Python Package / Toolkit)</text></g><!--cluster ingestion--><g id="cluster_ingestion"><path d="M966.7804,224.5788 L1015.7313,224.5788 A2.4806,2.4806 0 0 1 1017.385,226.2326 L1022.0155,239.3282 L1222.7804,239.3282 A1.6537,1.6537 0 0 1 1224.4341,240.9819 L1224.4341,401.199 A1.6537,1.6537 0 0 1 1222.7804,402.8527 L966.7804,402.8527 A1.6537,1.6537 0 0 1 965.1266,401.199 L965.1266,226.2326 A1.6537,1.6537 0 0 1 966.7804,224.5788 " fill="none" style="stroke:#000000;stroke-width:0.9922480620155039;"/><line style="stroke:#000000;stroke-width:0.9922480620155039;" x1="965.1266" x2="1022.0155" y1="239.3282" y2="239.3282"/><text fill="#000000" font-family="sans-serif" font-size="9.261" font-weight="bold" lengthAdjust="spacing" textLength="48.2894" x="967.7726" y="234.4981">ingestion</text></g><!--cluster extraction--><g id="cluster_extraction"><path d="M717.3953,224.5788 L770.9767,224.5788 A2.4806,2.4806 0 0 1 772.6305,226.2326 L777.261,239.3282 L958.1809,239.3282 A1.6537,1.6537 0 0 1 959.8346,240.9819 L959.8346,401.199 A1.6537,1.6537 0 0 1 958.1809,402.8527 L717.3953,402.8527 A1.6537,1.6537 0 0 1 715.7416,401.199 L715.7416,226.2326 A1.6537,1.6537 0 0 1 717.3953,224.5788 " fill="none" style="stroke:#000000;stroke-width:0.9922480620155039;"/><line style="stroke:#000000;stroke-width:0.9922480620155039;" x1="715.7416" x2="777.261" y1="239.3282" y2="239.3282"/><text fill="#000000" font-family="sans-serif" font-size="9.261" font-weight="bold" lengthAdjust="spacing" textLength="52.9199" x="718.3876" y="234.4981">extraction</text></g><!--cluster stylization--><g id="cluster_stylization"><path d="M432.9509,224.5788 L486.5323,224.5788 A2.4806,2.4806 0 0 1 488.186,226.2326 L492.8165,239.3282 L708.7959,239.3282 A1.6537,1.6537 0 0 1 710.4496,240.9819 L710.4496,401.199 A1.6537,1.6537 0 0 1 708.7959,402.8527 L432.9509,402.8527 A1.6537,1.6537 0 0 1 431.2972,401.199 L431.2972,226.2326 A1.6537,1.6537 0 0 1 432.9509,224.5788 " fill="none" style="stroke:#000000;stroke-width:0.9922480620155039;"/><line style="stroke:#000000;stroke-width:0.9922480620155039;" x1="431.2972" x2="492.8165" y1="239.3282" y2="239.3282"/><text fill="#000000" font-family="sans-serif" font-size="9.261" font-weight="bold" lengthAdjust="spacing" textLength="52.9199" x="433.9432" y="234.4981">stylization</text></g><!--cluster graph--><g id="cluster_graph"><path d="M872.8475,417.4057 L903.938,417.4057 A2.4806,2.4806 0 0 1 905.5917,419.0594 L910.2222,432.155 L1222.7804,432.155 A1.6537,1.6537 0 0 1 1224.4341,433.8088 L1224.4341,537.4677 A1.6537,1.6537 0 0 1 1222.7804,539.1214 L872.8475,539.1214 A1.6537,1.6537 0 0 1 871.1938,537.4677 L871.1938,419.0594 A1.6537,1.6537 0 0 1 872.8475,417.4057 " fill="none" style="stroke:#000000;stroke-width:0.9922480620155039;"/><line style="stroke:#000000;stroke-width:0.9922480620155039;" x1="871.1938" x2="910.2222" y1="432.155" y2="432.155"/><text fill="#000000" font-family="sans-serif" font-size="9.261" font-weight="bold" lengthAdjust="spacing" textLength="30.4289" x="873.8398" y="427.3249">graph</text></g><!--cluster agents--><g id="cluster_agents"><path d="M620.155,417.4057 L656.5375,417.4057 A2.4806,2.4806 0 0 1 658.1912,419.0594 L662.8217,432.155 L864.2481,432.155 A1.6537,1.6537 0 0 1 865.9018,433.8088 L865.9018,537.4677 A1.6537,1.6537 0 0 1 864.2481,539.1214 L620.155,539.1214 A1.6537,1.6537 0 0 1 618.5013,537.4677 L618.5013,419.0594 A1.6537,1.6537 0 0 1 620.155,417.4057 " fill="none" style="stroke:#000000;stroke-width:0.9922480620155039;"/><line style="stroke:#000000;stroke-width:0.9922480620155039;" x1="618.5013" x2="662.8217" y1="432.155" y2="432.155"/><text fill="#000000" font-family="sans-serif" font-size="9.261" font-weight="bold" lengthAdjust="spacing" textLength="35.7209" x="621.1473" y="427.3249">agents</text></g><!--cluster review--><g id="cluster_review"><path d="M384.6615,417.4057 L421.0439,417.4057 A2.4806,2.4806 0 0 1 422.6977,419.0594 L427.3282,432.155 L611.5556,432.155 A1.6537,1.6537 0 0 1 613.2093,433.8088 L613.2093,537.4677 A1.6537,1.6537 0 0 1 611.5556,539.1214 L384.6615,539.1214 A1.6537,1.6537 0 0 1 383.0078,537.4677 L383.0078,419.0594 A1.6537,1.6537 0 0 1 384.6615,417.4057 " fill="none" style="stroke:#000000;stroke-width:0.9922480620155039;"/><line style="stroke:#000000;stroke-width:0.9922480620155039;" x1="383.0078" x2="427.3282" y1="432.155" y2="432.155"/><text fill="#000000" font-family="sans-serif" font-size="9.261" font-weight="bold" lengthAdjust="spacing" textLength="35.7209" x="385.6537" y="427.3249">review</text></g><!--cluster database--><g id="cluster_database"><path d="M876.155,551.6899 L924.4444,551.6899 A2.4806,2.4806 0 0 1 926.0982,553.3437 L930.7287,566.4393 L1085.8501,566.4393 A1.6537,1.6537 0 0 1 1087.5039,568.093 L1087.5039,658.522 A1.6537,1.6537 0 0 1 1085.8501,660.1757 L876.155,660.1757 A1.6537,1.6537 0 0 1 874.5013,658.522 L874.5013,553.3437 A1.6537,1.6537 0 0 1 876.155,551.6899 " fill="none" style="stroke:#000000;stroke-width:0.9922480620155039;"/><line style="stroke:#000000;stroke-width:0.9922480620155039;" x1="874.5013" x2="930.7287" y1="566.4393" y2="566.4393"/><text fill="#000000" font-family="sans-serif" font-size="9.261" font-weight="bold" lengthAdjust="spacing" textLength="47.6279" x="877.1473" y="561.6092">database</text></g><!--cluster Public API--><g id="cluster_Public API"><path d="M225.2403,196.4651 L276.8372,196.4651 A2.4806,2.4806 0 0 1 278.491,198.1189 L283.1214,211.2145 L424.3514,211.2145 A1.6537,1.6537 0 0 1 426.0052,212.8682 L426.0052,304.6202 A1.6537,1.6537 0 0 1 424.3514,306.2739 L225.2403,306.2739 A1.6537,1.6537 0 0 1 223.5866,304.6202 L223.5866,198.1189 A1.6537,1.6537 0 0 1 225.2403,196.4651 " fill="none" style="stroke:#000000;stroke-width:0.9922480620155039;"/><line style="stroke:#000000;stroke-width:0.9922480620155039;" x1="223.5866" x2="283.1214" y1="211.2145" y2="211.2145"/><text fill="#000000" font-family="sans-serif" font-size="9.261" font-weight="bold" lengthAdjust="spacing" textLength="50.9354" x="226.2326" y="206.3844">Public API</text></g><!--cluster Mongo--><g id="cluster_Mongo"><path d="M1342.1809,345.9638 C1342.1809,339.3488 1547.907,339.3488 1547.907,339.3488 C1547.907,339.3488 1753.6331,339.3488 1753.6331,345.9638 L1753.6331,464.3721 C1753.6331,470.9871 1547.907,470.9871 1547.907,470.9871 C1547.907,470.9871 1342.1809,470.9871 1342.1809,464.3721 L1342.1809,345.9638 " fill="none" style="stroke:#181818;stroke-width:0.661498708010336;"/><path d="M1342.1809,345.9638 C1342.1809,352.5788 1547.907,352.5788 1547.907,352.5788 C1547.907,352.5788 1753.6331,352.5788 1753.6331,345.9638 " fill="none" style="stroke:#181818;stroke-width:0.661498708010336;"/><text fill="#000000" font-family="sans-serif" font-size="9.261" font-weight="bold" lengthAdjust="spacing" textLength="48.9509" x="1523.4315" y="362.4981">MongoDB</text></g><!--entity Ollama--><g id="elem_Ollama"><polygon fill="#F1F1F1" points="1235.0181,373.7468,1241.6331,367.1318,1335.5659,367.1318,1335.5659,391.1421,1328.9509,397.7571,1235.0181,397.7571,1235.0181,373.7468" style="stroke:#181818;stroke-width:0.330749354005168;"/><line style="stroke:#181818;stroke-width:0.330749354005168;" x1="1328.9509" x2="1335.5659" y1="373.7468" y2="367.1318"/><line style="stroke:#181818;stroke-width:0.330749354005168;" x1="1235.0181" x2="1328.9509" y1="373.7468" y2="373.7468"/><line style="stroke:#181818;stroke-width:0.330749354005168;" x1="1328.9509" x2="1328.9509" y1="373.7468" y2="397.7571"/><text fill="#000000" font-family="sans-serif" font-size="9.261" lengthAdjust="spacing" textLength="74.0879" x="1244.9406" y="388.958">Ollama LLM Host</text></g><!--entity MA--><g id="elem_MA"><ellipse cx="46.9664" cy="41.0129" fill="#F1F1F1" rx="5.292" ry="5.292" style="stroke:#181818;stroke-width:0.330749354005168;"/><path d="M46.9664,46.3049 L46.9664,64.1654 M38.3669,51.5969 L55.5659,51.5969 M46.9664,64.1654 L38.3669,74.0879 M46.9664,64.1654 L55.5659,74.0879 " fill="none" style="stroke:#181818;stroke-width:0.330749354005168;"/><text fill="#000000" font-family="sans-serif" font-size="9.261" lengthAdjust="spacing" textLength="85.9948" x="3.969" y="83.6764">Modeling Assistant</text><text fill="#000000" font-family="sans-serif" font-size="9.261" lengthAdjust="spacing" textLength="56.2274" x="3.969" y="94.4567">(imports KB)</text></g><!--entity BatchScript--><g id="elem_BatchScript"><ellipse cx="158.7597" cy="41.0129" fill="#F1F1F1" rx="5.292" ry="5.292" style="stroke:#181818;stroke-width:0.330749354005168;"/><path d="M158.7597,46.3049 L158.7597,64.1654 M150.1602,51.5969 L167.3592,51.5969 M158.7597,64.1654 L150.1602,74.0879 M158.7597,64.1654 L167.3592,74.0879 " fill="none" style="stroke:#181818;stroke-width:0.330749354005168;"/><text fill="#000000" font-family="sans-serif" font-size="9.261" lengthAdjust="spacing" textLength="113.7778" x="101.8708" y="83.6764">Batch Processing Scripts</text><text fill="#000000" font-family="sans-serif" font-size="9.261" lengthAdjust="spacing" textLength="79.3798" x="101.8708" y="94.4567">(can also use KB)</text></g><!--entity MCP--><g id="elem_MCP"><ellipse cx="264.5995" cy="41.0129" fill="#F1F1F1" rx="5.292" ry="5.292" style="stroke:#181818;stroke-width:0.330749354005168;"/><path d="M264.5995,46.3049 L264.5995,64.1654 M256,51.5969 L273.199,51.5969 M264.5995,64.1654 L256,74.0879 M264.5995,64.1654 L273.199,74.0879 " fill="none" style="stroke:#181818;stroke-width:0.330749354005168;"/><text fill="#000000" font-family="sans-serif" font-size="9.261" lengthAdjust="spacing" textLength="52.2584" x="227.5556" y="83.6764">MCP Server</text><text fill="#000000" font-family="sans-serif" font-size="9.261" lengthAdjust="spacing" textLength="74.0879" x="227.5556" y="94.4567">(wraps KB tools)</text></g><g id="elem_GMN56"><path d="M313.5504,2.646 L313.5504,129.385 L469.6641,129.385 L469.6641,9.261 L463.0491,2.646 L313.5504,2.646 " fill="#FEFFDD" style="stroke:#181818;stroke-width:0.330749354005168;"/><path d="M463.0491,2.646 L463.0491,9.261 L469.6641,9.261 L463.0491,2.646 " fill="#FEFFDD" style="stroke:#181818;stroke-width:0.661498708010336;"/><text fill="#000000" font-family="sans-serif" font-size="8.5995" font-weight="bold" lengthAdjust="spacing" textLength="142.2222" x="317.5194" y="13.9357">Knowledge Builder as Toolkit</text><text fill="#000000" font-family="sans-serif" font-size="8.5995" lengthAdjust="spacing" textLength="2.646" x="317.5194" y="23.9461">&#160;</text><text fill="#000000" font-family="sans-serif" font-size="8.5995" lengthAdjust="spacing" textLength="121.0543" x="317.5194" y="33.9564">No UI - pure Python package</text><text fill="#000000" font-family="sans-serif" font-size="8.5995" lengthAdjust="spacing" textLength="122.3773" x="317.5194" y="43.9667">Provides reusable operations</text><text fill="#000000" font-family="sans-serif" font-size="8.5995" lengthAdjust="spacing" textLength="127.6693" x="317.5194" y="53.9771">Can be imported and used by:</text><text fill="#000000" font-family="sans-serif" font-size="8.5995" lengthAdjust="spacing" textLength="135.6072" x="317.5194" y="63.9874">&#8226; Modeling Assistant (main use)</text><text fill="#000000" font-family="sans-serif" font-size="8.5995" lengthAdjust="spacing" textLength="111.1318" x="317.5194" y="73.9977">&#8226; Batch processing scripts</text><text fill="#000000" font-family="sans-serif" font-size="8.5995" lengthAdjust="spacing" textLength="125.0233" x="317.5194" y="84.0081">&#8226; MCP server (wraps as tools)</text><text fill="#000000" font-family="sans-serif" font-size="8.5995" lengthAdjust="spacing" textLength="103.8553" x="317.5194" y="94.0184">&#8226; Any Python application</text><text fill="#000000" font-family="sans-serif" font-size="8.5995" lengthAdjust="spacing" textLength="2.646" x="317.5194" y="104.0287">&#160;</text><text fill="#000000" font-family="sans-serif" font-size="8.5995" lengthAdjust="spacing" textLength="138.9147" x="317.5194" y="114.0391">Separate repo due to complexity</text><text fill="#000000" font-family="sans-serif" font-size="8.5995" lengthAdjust="spacing" textLength="98.5633" x="317.5194" y="124.0494">Independent versioning</text></g><g id="elem_GMN59"><path d="M1759.2558,422.0362 L1759.2558,478.7028 L1916.031,478.7028 L1916.031,428.6512 L1909.416,422.0362 L1759.2558,422.0362 " fill="#FEFFDD" style="stroke:#181818;stroke-width:0.330749354005168;"/><path d="M1909.416,422.0362 L1909.416,428.6512 L1916.031,428.6512 L1909.416,422.0362 " fill="#FEFFDD" style="stroke:#181818;stroke-width:0.661498708010336;"/><text fill="#000000" font-family="sans-serif" font-size="8.5995" lengthAdjust="spacing" textLength="97.2403" x="1763.2248" y="433.3259">KB package handles all</text><text fill="#000000" font-family="sans-serif" font-size="8.5995" lengthAdjust="spacing" textLength="124.3618" x="1763.2248" y="443.3362">knowledge-related collections</text><text fill="#000000" font-family="sans-serif" font-size="8.5995" lengthAdjust="spacing" textLength="2.646" x="1763.2248" y="453.3466">&#160;</text><text fill="#000000" font-family="sans-serif" font-size="8.5995" lengthAdjust="spacing" textLength="127.6693" x="1763.2248" y="463.3569">MA backend calls KB functions</text><text fill="#000000" font-family="sans-serif" font-size="8.5995" lengthAdjust="spacing" textLength="142.8837" x="1763.2248" y="473.3672">which then interact with MongoDB</text></g><!--entity document_processor.py--><g id="elem_document_processor.py"><rect fill="#F1F1F1" height="30.6253" rx="1.6537" ry="1.6537" style="stroke:#181818;stroke-width:0.330749354005168;" width="137.5917" x="970.4186" y="242.4393"/><rect fill="#F1F1F1" height="6.615" style="stroke:#181818;stroke-width:0.330749354005168;" width="9.9225" x="1094.7804" y="245.7468"/><rect fill="#F1F1F1" height="1.323" style="stroke:#181818;stroke-width:0.330749354005168;" width="2.646" x="1093.4574" y="247.0698"/><rect fill="#F1F1F1" height="1.323" style="stroke:#181818;stroke-width:0.330749354005168;" width="2.646" x="1093.4574" y="249.7158"/><text fill="#000000" font-family="sans-serif" font-size="9.261" lengthAdjust="spacing" textLength="111.1318" x="980.3411" y="264.2655">document_processor.py</text></g><!--entity pdf_extractor.py--><g id="elem_pdf_extractor.py"><rect fill="#F1F1F1" height="30.6253" rx="1.6537" ry="1.6537" style="stroke:#181818;stroke-width:0.330749354005168;" width="99.2248" x="1119.9173" y="242.4393"/><rect fill="#F1F1F1" height="6.615" style="stroke:#181818;stroke-width:0.330749354005168;" width="9.9225" x="1205.9121" y="245.7468"/><rect fill="#F1F1F1" height="1.323" style="stroke:#181818;stroke-width:0.330749354005168;" width="2.646" x="1204.5891" y="247.0698"/><rect fill="#F1F1F1" height="1.323" style="stroke:#181818;stroke-width:0.330749354005168;" width="2.646" x="1204.5891" y="249.7158"/><text fill="#000000" font-family="sans-serif" font-size="9.261" lengthAdjust="spacing" textLength="72.7649" x="1129.8398" y="264.2655">pdf_extractor.py</text></g><!--entity metadata_handler.py--><g id="elem_metadata_handler.py"><rect fill="#F1F1F1" height="30.6253" rx="1.6537" ry="1.6537" style="stroke:#181818;stroke-width:0.330749354005168;" width="121.7158" x="971.7416" y="367.1318"/><rect fill="#F1F1F1" height="6.615" style="stroke:#181818;stroke-width:0.330749354005168;" width="9.9225" x="1080.2274" y="370.4393"/><rect fill="#F1F1F1" height="1.323" style="stroke:#181818;stroke-width:0.330749354005168;" width="2.646" x="1078.9044" y="371.7623"/><rect fill="#F1F1F1" height="1.323" style="stroke:#181818;stroke-width:0.330749354005168;" width="2.646" x="1078.9044" y="374.4083"/><text fill="#000000" font-family="sans-serif" font-size="9.261" lengthAdjust="spacing" textLength="95.2558" x="981.6641" y="388.958">metadata_handler.py</text></g><!--entity batch_ingestion.py--><g id="elem_batch_ingestion.py"><rect fill="#F1F1F1" height="30.6253" rx="1.6537" ry="1.6537" style="stroke:#181818;stroke-width:0.330749354005168;" width="112.4548" x="1105.3643" y="367.1318"/><rect fill="#F1F1F1" height="6.615" style="stroke:#181818;stroke-width:0.330749354005168;" width="9.9225" x="1204.5891" y="370.4393"/><rect fill="#F1F1F1" height="1.323" style="stroke:#181818;stroke-width:0.330749354005168;" width="2.646" x="1203.2661" y="371.7623"/><rect fill="#F1F1F1" height="1.323" style="stroke:#181818;stroke-width:0.330749354005168;" width="2.646" x="1203.2661" y="374.4083"/><text fill="#000000" font-family="sans-serif" font-size="9.261" lengthAdjust="spacing" textLength="85.9948" x="1115.2868" y="388.958">batch_ingestion.py</text></g><!--entity fact_extractor.py--><g id="elem_fact_extractor.py"><rect fill="#F1F1F1" height="30.6253" rx="1.6537" ry="1.6537" style="stroke:#181818;stroke-width:0.330749354005168;" width="101.2093" x="721.3643" y="242.4393"/><rect fill="#F1F1F1" height="6.615" style="stroke:#181818;stroke-width:0.330749354005168;" width="9.9225" x="809.3437" y="245.7468"/><rect fill="#F1F1F1" height="1.323" style="stroke:#181818;stroke-width:0.330749354005168;" width="2.646" x="808.0207" y="247.0698"/><rect fill="#F1F1F1" height="1.323" style="stroke:#181818;stroke-width:0.330749354005168;" width="2.646" x="808.0207" y="249.7158"/><text fill="#000000" font-family="sans-serif" font-size="9.261" lengthAdjust="spacing" textLength="74.7494" x="731.2868" y="264.2655">fact_extractor.py</text></g><!--entity entity_recognizer.py--><g id="elem_entity_recognizer.py"><rect fill="#F1F1F1" height="30.6253" rx="1.6537" ry="1.6537" style="stroke:#181818;stroke-width:0.330749354005168;" width="118.4083" x="834.4806" y="242.4393"/><rect fill="#F1F1F1" height="6.615" style="stroke:#181818;stroke-width:0.330749354005168;" width="9.9225" x="939.6589" y="245.7468"/><rect fill="#F1F1F1" height="1.323" style="stroke:#181818;stroke-width:0.330749354005168;" width="2.646" x="938.3359" y="247.0698"/><rect fill="#F1F1F1" height="1.323" style="stroke:#181818;stroke-width:0.330749354005168;" width="2.646" x="938.3359" y="249.7158"/><text fill="#000000" font-family="sans-serif" font-size="9.261" lengthAdjust="spacing" textLength="91.9483" x="844.4031" y="264.2655">entity_recognizer.py</text></g><!--entity fact_validator.py--><g id="elem_fact_validator.py"><rect fill="#F1F1F1" height="30.6253" rx="1.6537" ry="1.6537" style="stroke:#181818;stroke-width:0.330749354005168;" width="98.5633" x="721.3643" y="367.1318"/><rect fill="#F1F1F1" height="6.615" style="stroke:#181818;stroke-width:0.330749354005168;" width="9.9225" x="806.6977" y="370.4393"/><rect fill="#F1F1F1" height="1.323" style="stroke:#181818;stroke-width:0.330749354005168;" width="2.646" x="805.3747" y="371.7623"/><rect fill="#F1F1F1" height="1.323" style="stroke:#181818;stroke-width:0.330749354005168;" width="2.646" x="805.3747" y="374.4083"/><text fill="#000000" font-family="sans-serif" font-size="9.261" lengthAdjust="spacing" textLength="72.1034" x="731.2868" y="388.958">fact_validator.py</text></g><!--entity source_attribution.py--><g id="elem_source_attribution.py"><rect fill="#F1F1F1" height="30.6253" rx="1.6537" ry="1.6537" style="stroke:#181818;stroke-width:0.330749354005168;" width="122.3773" x="831.8346" y="367.1318"/><rect fill="#F1F1F1" height="6.615" style="stroke:#181818;stroke-width:0.330749354005168;" width="9.9225" x="940.9819" y="370.4393"/><rect fill="#F1F1F1" height="1.323" style="stroke:#181818;stroke-width:0.330749354005168;" width="2.646" x="939.6589" y="371.7623"/><rect fill="#F1F1F1" height="1.323" style="stroke:#181818;stroke-width:0.330749354005168;" width="2.646" x="939.6589" y="374.4083"/><text fill="#000000" font-family="sans-serif" font-size="9.261" lengthAdjust="spacing" textLength="95.9173" x="841.7571" y="388.958">source_attribution.py</text></g><!--entity fact_aggregator.py--><g id="elem_fact_aggregator.py"><rect fill="#F1F1F1" height="30.6253" rx="1.6537" ry="1.6537" style="stroke:#181818;stroke-width:0.330749354005168;" width="111.1318" x="436.5891" y="242.4393"/><rect fill="#F1F1F1" height="6.615" style="stroke:#181818;stroke-width:0.330749354005168;" width="9.9225" x="534.491" y="245.7468"/><rect fill="#F1F1F1" height="1.323" style="stroke:#181818;stroke-width:0.330749354005168;" width="2.646" x="533.168" y="247.0698"/><rect fill="#F1F1F1" height="1.323" style="stroke:#181818;stroke-width:0.330749354005168;" width="2.646" x="533.168" y="249.7158"/><text fill="#000000" font-family="sans-serif" font-size="9.261" lengthAdjust="spacing" textLength="84.6718" x="446.5116" y="264.2655">fact_aggregator.py</text></g><!--entity stylized_fact_generator.py--><g id="elem_stylized_fact_generator.py"><rect fill="#F1F1F1" height="30.6253" rx="1.6537" ry="1.6537" style="stroke:#181818;stroke-width:0.330749354005168;" width="144.8682" x="559.9587" y="242.4393"/><rect fill="#F1F1F1" height="6.615" style="stroke:#181818;stroke-width:0.330749354005168;" width="9.9225" x="691.5969" y="245.7468"/><rect fill="#F1F1F1" height="1.323" style="stroke:#181818;stroke-width:0.330749354005168;" width="2.646" x="690.2739" y="247.0698"/><rect fill="#F1F1F1" height="1.323" style="stroke:#181818;stroke-width:0.330749354005168;" width="2.646" x="690.2739" y="249.7158"/><text fill="#000000" font-family="sans-serif" font-size="9.261" lengthAdjust="spacing" textLength="118.4083" x="569.8811" y="264.2655">stylized_fact_generator.py</text></g><!--entity evidence_linker.py--><g id="elem_evidence_linker.py"><rect fill="#F1F1F1" height="30.6253" rx="1.6537" ry="1.6537" style="stroke:#181818;stroke-width:0.330749354005168;" width="110.4703" x="436.9199" y="367.1318"/><rect fill="#F1F1F1" height="6.615" style="stroke:#181818;stroke-width:0.330749354005168;" width="9.9225" x="534.1602" y="370.4393"/><rect fill="#F1F1F1" height="1.323" style="stroke:#181818;stroke-width:0.330749354005168;" width="2.646" x="532.8372" y="371.7623"/><rect fill="#F1F1F1" height="1.323" style="stroke:#181818;stroke-width:0.330749354005168;" width="2.646" x="532.8372" y="374.4083"/><text fill="#000000" font-family="sans-serif" font-size="9.261" lengthAdjust="spacing" textLength="84.0103" x="446.8424" y="388.958">evidence_linker.py</text></g><!--entity node_manager.py--><g id="elem_node_manager.py"><rect fill="#F1F1F1" height="30.6253" rx="1.6537" ry="1.6537" style="stroke:#181818;stroke-width:0.330749354005168;" width="108.4858" x="876.4858" y="435.2661"/><rect fill="#F1F1F1" height="6.615" style="stroke:#181818;stroke-width:0.330749354005168;" width="9.9225" x="971.7416" y="438.5736"/><rect fill="#F1F1F1" height="1.323" style="stroke:#181818;stroke-width:0.330749354005168;" width="2.646" x="970.4186" y="439.8966"/><rect fill="#F1F1F1" height="1.323" style="stroke:#181818;stroke-width:0.330749354005168;" width="2.646" x="970.4186" y="442.5426"/><text fill="#000000" font-family="sans-serif" font-size="9.261" lengthAdjust="spacing" textLength="82.0258" x="886.4083" y="457.0924">node_manager.py</text></g><!--entity edge_manager.py--><g id="elem_edge_manager.py"><rect fill="#F1F1F1" height="30.6253" rx="1.6537" ry="1.6537" style="stroke:#181818;stroke-width:0.330749354005168;" width="108.4858" x="996.8786" y="435.2661"/><rect fill="#F1F1F1" height="6.615" style="stroke:#181818;stroke-width:0.330749354005168;" width="9.9225" x="1092.1344" y="438.5736"/><rect fill="#F1F1F1" height="1.323" style="stroke:#181818;stroke-width:0.330749354005168;" width="2.646" x="1090.8114" y="439.8966"/><rect fill="#F1F1F1" height="1.323" style="stroke:#181818;stroke-width:0.330749354005168;" width="2.646" x="1090.8114" y="442.5426"/><text fill="#000000" font-family="sans-serif" font-size="9.261" lengthAdjust="spacing" textLength="82.0258" x="1006.801" y="457.0924">edge_manager.py</text></g><!--entity graph_builder.py--><g id="elem_graph_builder.py"><rect fill="#F1F1F1" height="30.6253" rx="1.6537" ry="1.6537" style="stroke:#181818;stroke-width:0.330749354005168;" width="101.8708" x="1117.2713" y="435.2661"/><rect fill="#F1F1F1" height="6.615" style="stroke:#181818;stroke-width:0.330749354005168;" width="9.9225" x="1205.9121" y="438.5736"/><rect fill="#F1F1F1" height="1.323" style="stroke:#181818;stroke-width:0.330749354005168;" width="2.646" x="1204.5891" y="439.8966"/><rect fill="#F1F1F1" height="1.323" style="stroke:#181818;stroke-width:0.330749354005168;" width="2.646" x="1204.5891" y="442.5426"/><text fill="#000000" font-family="sans-serif" font-size="9.261" lengthAdjust="spacing" textLength="75.4109" x="1127.1938" y="457.0924">graph_builder.py</text></g><!--entity graph_query.py--><g id="elem_graph_query.py"><rect fill="#F1F1F1" height="30.6253" rx="1.6537" ry="1.6537" style="stroke:#181818;stroke-width:0.330749354005168;" width="96.5788" x="882.4393" y="503.4005"/><rect fill="#F1F1F1" height="6.615" style="stroke:#181818;stroke-width:0.330749354005168;" width="9.9225" x="965.7881" y="506.708"/><rect fill="#F1F1F1" height="1.323" style="stroke:#181818;stroke-width:0.330749354005168;" width="2.646" x="964.4651" y="508.031"/><rect fill="#F1F1F1" height="1.323" style="stroke:#181818;stroke-width:0.330749354005168;" width="2.646" x="964.4651" y="510.677"/><text fill="#000000" font-family="sans-serif" font-size="9.261" lengthAdjust="spacing" textLength="70.1189" x="892.3618" y="525.2267">graph_query.py</text></g><!--entity traversal.py--><g id="elem_traversal.py"><rect fill="#F1F1F1" height="30.6253" rx="1.6537" ry="1.6537" style="stroke:#181818;stroke-width:0.330749354005168;" width="78.0568" x="990.9251" y="503.4005"/><rect fill="#F1F1F1" height="6.615" style="stroke:#181818;stroke-width:0.330749354005168;" width="9.9225" x="1055.7519" y="506.708"/><rect fill="#F1F1F1" height="1.323" style="stroke:#181818;stroke-width:0.330749354005168;" width="2.646" x="1054.4289" y="508.031"/><rect fill="#F1F1F1" height="1.323" style="stroke:#181818;stroke-width:0.330749354005168;" width="2.646" x="1054.4289" y="510.677"/><text fill="#000000" font-family="sans-serif" font-size="9.261" lengthAdjust="spacing" textLength="51.5969" x="1000.8475" y="525.2267">traversal.py</text></g><!--entity agent_framework.py--><g id="elem_agent_framework.py"><rect fill="#F1F1F1" height="30.6253" rx="1.6537" ry="1.6537" style="stroke:#181818;stroke-width:0.330749354005168;" width="118.4083" x="624.124" y="435.2661"/><rect fill="#F1F1F1" height="6.615" style="stroke:#181818;stroke-width:0.330749354005168;" width="9.9225" x="729.3023" y="438.5736"/><rect fill="#F1F1F1" height="1.323" style="stroke:#181818;stroke-width:0.330749354005168;" width="2.646" x="727.9793" y="439.8966"/><rect fill="#F1F1F1" height="1.323" style="stroke:#181818;stroke-width:0.330749354005168;" width="2.646" x="727.9793" y="442.5426"/><text fill="#000000" font-family="sans-serif" font-size="9.261" lengthAdjust="spacing" textLength="91.9483" x="634.0465" y="457.0924">agent_framework.py</text></g><!--entity ollama_client.py--><g id="elem_ollama_client.py"><rect fill="#F1F1F1" height="30.6253" rx="1.6537" ry="1.6537" style="stroke:#181818;stroke-width:0.330749354005168;" width="97.9018" x="754.77" y="435.2661"/><rect fill="#F1F1F1" height="6.615" style="stroke:#181818;stroke-width:0.330749354005168;" width="9.9225" x="839.4419" y="438.5736"/><rect fill="#F1F1F1" height="1.323" style="stroke:#181818;stroke-width:0.330749354005168;" width="2.646" x="838.1189" y="439.8966"/><rect fill="#F1F1F1" height="1.323" style="stroke:#181818;stroke-width:0.330749354005168;" width="2.646" x="838.1189" y="442.5426"/><text fill="#000000" font-family="sans-serif" font-size="9.261" lengthAdjust="spacing" textLength="71.4419" x="764.6925" y="457.0924">ollama_client.py</text></g><!--entity tool_registry.py--><g id="elem_tool_registry.py"><rect fill="#F1F1F1" height="30.6253" rx="1.6537" ry="1.6537" style="stroke:#181818;stroke-width:0.330749354005168;" width="95.2558" x="623.7933" y="503.4005"/><rect fill="#F1F1F1" height="6.615" style="stroke:#181818;stroke-width:0.330749354005168;" width="9.9225" x="705.8191" y="506.708"/><rect fill="#F1F1F1" height="1.323" style="stroke:#181818;stroke-width:0.330749354005168;" width="2.646" x="704.4961" y="508.031"/><rect fill="#F1F1F1" height="1.323" style="stroke:#181818;stroke-width:0.330749354005168;" width="2.646" x="704.4961" y="510.677"/><text fill="#000000" font-family="sans-serif" font-size="9.261" lengthAdjust="spacing" textLength="68.7959" x="633.7158" y="525.2267">tool_registry.py</text></g><!--entity rag_implementation.py--><g id="elem_rag_implementation.py"><rect fill="#F1F1F1" height="30.6253" rx="1.6537" ry="1.6537" style="stroke:#181818;stroke-width:0.330749354005168;" width="129.6537" x="730.9561" y="503.4005"/><rect fill="#F1F1F1" height="6.615" style="stroke:#181818;stroke-width:0.330749354005168;" width="9.9225" x="847.3798" y="506.708"/><rect fill="#F1F1F1" height="1.323" style="stroke:#181818;stroke-width:0.330749354005168;" width="2.646" x="846.0568" y="508.031"/><rect fill="#F1F1F1" height="1.323" style="stroke:#181818;stroke-width:0.330749354005168;" width="2.646" x="846.0568" y="510.677"/><text fill="#000000" font-family="sans-serif" font-size="9.261" lengthAdjust="spacing" textLength="103.1938" x="740.8786" y="525.2267">rag_implementation.py</text></g><!--entity review_queue.py--><g id="elem_review_queue.py"><rect fill="#F1F1F1" height="30.6253" rx="1.6537" ry="1.6537" style="stroke:#181818;stroke-width:0.330749354005168;" width="103.1938" x="388.2997" y="435.2661"/><rect fill="#F1F1F1" height="6.615" style="stroke:#181818;stroke-width:0.330749354005168;" width="9.9225" x="478.2636" y="438.5736"/><rect fill="#F1F1F1" height="1.323" style="stroke:#181818;stroke-width:0.330749354005168;" width="2.646" x="476.9406" y="439.8966"/><rect fill="#F1F1F1" height="1.323" style="stroke:#181818;stroke-width:0.330749354005168;" width="2.646" x="476.9406" y="442.5426"/><text fill="#000000" font-family="sans-serif" font-size="9.261" lengthAdjust="spacing" textLength="76.7339" x="398.2222" y="457.0924">review_queue.py</text></g><!--entity approval_logic.py--><g id="elem_approval_logic.py"><rect fill="#F1F1F1" height="30.6253" rx="1.6537" ry="1.6537" style="stroke:#181818;stroke-width:0.330749354005168;" width="103.8553" x="503.7313" y="435.2661"/><rect fill="#F1F1F1" height="6.615" style="stroke:#181818;stroke-width:0.330749354005168;" width="9.9225" x="594.3566" y="438.5736"/><rect fill="#F1F1F1" height="1.323" style="stroke:#181818;stroke-width:0.330749354005168;" width="2.646" x="593.0336" y="439.8966"/><rect fill="#F1F1F1" height="1.323" style="stroke:#181818;stroke-width:0.330749354005168;" width="2.646" x="593.0336" y="442.5426"/><text fill="#000000" font-family="sans-serif" font-size="9.261" lengthAdjust="spacing" textLength="77.3953" x="513.6537" y="457.0924">approval_logic.py</text></g><!--entity status_tracker.py--><g id="elem_status_tracker.py"><rect fill="#F1F1F1" height="30.6253" rx="1.6537" ry="1.6537" style="stroke:#181818;stroke-width:0.330749354005168;" width="104.5168" x="388.2997" y="503.4005"/><rect fill="#F1F1F1" height="6.615" style="stroke:#181818;stroke-width:0.330749354005168;" width="9.9225" x="479.5866" y="506.708"/><rect fill="#F1F1F1" height="1.323" style="stroke:#181818;stroke-width:0.330749354005168;" width="2.646" x="478.2636" y="508.031"/><rect fill="#F1F1F1" height="1.323" style="stroke:#181818;stroke-width:0.330749354005168;" width="2.646" x="478.2636" y="510.677"/><text fill="#000000" font-family="sans-serif" font-size="9.261" lengthAdjust="spacing" textLength="78.0568" x="398.2222" y="525.2267">status_tracker.py</text></g><!--entity mongo_client.py--><g id="elem_mongo_client.py"><rect fill="#F1F1F1" height="30.6253" rx="1.6537" ry="1.6537" style="stroke:#181818;stroke-width:0.330749354005168;" width="101.2093" x="880.124" y="569.5504"/><rect fill="#F1F1F1" height="6.615" style="stroke:#181818;stroke-width:0.330749354005168;" width="9.9225" x="968.1034" y="572.8579"/><rect fill="#F1F1F1" height="1.323" style="stroke:#181818;stroke-width:0.330749354005168;" width="2.646" x="966.7804" y="574.1809"/><rect fill="#F1F1F1" height="1.323" style="stroke:#181818;stroke-width:0.330749354005168;" width="2.646" x="966.7804" y="576.8269"/><text fill="#000000" font-family="sans-serif" font-size="9.261" lengthAdjust="spacing" textLength="74.7494" x="890.0465" y="591.3766">mongo_client.py</text></g><!--entity collections.py--><g id="elem_collections.py"><rect fill="#F1F1F1" height="30.6253" rx="1.6537" ry="1.6537" style="stroke:#181818;stroke-width:0.330749354005168;" width="88.6408" x="993.5711" y="569.5504"/><rect fill="#F1F1F1" height="6.615" style="stroke:#181818;stroke-width:0.330749354005168;" width="9.9225" x="1068.9819" y="572.8579"/><rect fill="#F1F1F1" height="1.323" style="stroke:#181818;stroke-width:0.330749354005168;" width="2.646" x="1067.6589" y="574.1809"/><rect fill="#F1F1F1" height="1.323" style="stroke:#181818;stroke-width:0.330749354005168;" width="2.646" x="1067.6589" y="576.8269"/><text fill="#000000" font-family="sans-serif" font-size="9.261" lengthAdjust="spacing" textLength="62.1809" x="1003.4935" y="591.3766">collections.py</text></g><!--entity queries.py--><g id="elem_queries.py"><rect fill="#F1F1F1" height="30.6253" rx="1.6537" ry="1.6537" style="stroke:#181818;stroke-width:0.330749354005168;" width="74.0879" x="893.6848" y="624.4548"/><rect fill="#F1F1F1" height="6.615" style="stroke:#181818;stroke-width:0.330749354005168;" width="9.9225" x="954.5426" y="627.7623"/><rect fill="#F1F1F1" height="1.323" style="stroke:#181818;stroke-width:0.330749354005168;" width="2.646" x="953.2196" y="629.0853"/><rect fill="#F1F1F1" height="1.323" style="stroke:#181818;stroke-width:0.330749354005168;" width="2.646" x="953.2196" y="631.7313"/><text fill="#000000" font-family="sans-serif" font-size="9.261" lengthAdjust="spacing" textLength="47.6279" x="903.6072" y="646.281">queries.py</text></g><!--entity __init__.py--><g id="elem___init__.py"><rect fill="#F1F1F1" height="30.6253" rx="1.6537" ry="1.6537" style="stroke:#181818;stroke-width:0.330749354005168;" width="52.9199" x="228.8786" y="242.4393"/><rect fill="#F1F1F1" height="6.615" style="stroke:#181818;stroke-width:0.330749354005168;" width="9.9225" x="268.5685" y="245.7468"/><rect fill="#F1F1F1" height="1.323" style="stroke:#181818;stroke-width:0.330749354005168;" width="2.646" x="267.2455" y="247.0698"/><rect fill="#F1F1F1" height="1.323" style="stroke:#181818;stroke-width:0.330749354005168;" width="2.646" x="267.2455" y="249.7158"/><text fill="#000000" font-family="sans-serif" font-size="9.261" lengthAdjust="spacing" text-decoration="underline" textLength="13.23" x="238.801" y="264.2655">init</text><text fill="#000000" font-family="sans-serif" font-size="9.261" lengthAdjust="spacing" textLength="13.23" x="252.031" y="264.2655">.py</text></g><g id="elem_GMN38"><path d="M294.0362,214.3256 L294.0362,255.0078 L281.801,257.6537 L294.0362,260.2997 L294.0362,301.0233 A0,0 0 0 0 294.0362,301.0233 L420.3824,301.0233 A0,0 0 0 0 420.3824,301.0233 L420.3824,220.9406 L413.7674,214.3256 L294.0362,214.3256 A0,0 0 0 0 294.0362,214.3256 " fill="#FEFFDD" style="stroke:#181818;stroke-width:0.330749354005168;"/><path d="M413.7674,214.3256 L413.7674,220.9406 L420.3824,220.9406 L413.7674,214.3256 " fill="#FEFFDD" style="stroke:#181818;stroke-width:0.330749354005168;"/><text fill="#000000" font-family="sans-serif" font-size="8.5995" lengthAdjust="spacing" textLength="108.4858" x="298.0052" y="225.6153">Public functions exported:</text><text fill="#000000" font-family="sans-serif" font-size="8.5995" lengthAdjust="spacing" textLength="85.9948" x="298.0052" y="235.6256">- ingest_document()</text><text fill="#000000" font-family="sans-serif" font-size="8.5995" lengthAdjust="spacing" textLength="67.4729" x="298.0052" y="245.636">- extract_facts()</text><text fill="#000000" font-family="sans-serif" font-size="8.5995" lengthAdjust="spacing" textLength="112.4548" x="298.0052" y="255.6463">- generate_stylized_facts()</text><text fill="#000000" font-family="sans-serif" font-size="8.5995" lengthAdjust="spacing" textLength="110.4703" x="298.0052" y="265.6567">- build_knowledge_graph()</text><text fill="#000000" font-family="sans-serif" font-size="8.5995" lengthAdjust="spacing" textLength="65.4884" x="298.0052" y="275.667">- query_graph()</text><text fill="#000000" font-family="sans-serif" font-size="8.5995" lengthAdjust="spacing" textLength="95.2558" x="298.0052" y="285.6773">- run_agent_workflow()</text><text fill="#000000" font-family="sans-serif" font-size="8.5995" lengthAdjust="spacing" textLength="88.6408" x="298.0052" y="295.6877">- submit_for_review()</text></g><!--entity facts collection--><g id="elem_facts collection"><rect fill="#F1F1F1" height="30.6253" rx="1.6537" ry="1.6537" style="stroke:#181818;stroke-width:0.330749354005168;" width="94.5943" x="1347.8036" y="367.1318"/><rect fill="#F1F1F1" height="6.615" style="stroke:#181818;stroke-width:0.330749354005168;" width="9.9225" x="1429.168" y="370.4393"/><rect fill="#F1F1F1" height="1.323" style="stroke:#181818;stroke-width:0.330749354005168;" width="2.646" x="1427.845" y="371.7623"/><rect fill="#F1F1F1" height="1.323" style="stroke:#181818;stroke-width:0.330749354005168;" width="2.646" x="1427.845" y="374.4083"/><text fill="#000000" font-family="sans-serif" font-size="9.261" lengthAdjust="spacing" textLength="68.1344" x="1357.7261" y="388.958">facts collection</text></g><!--entity stylized_facts collection--><g id="elem_stylized_facts collection"><rect fill="#F1F1F1" height="30.6253" rx="1.6537" ry="1.6537" style="stroke:#181818;stroke-width:0.330749354005168;" width="133.6227" x="1454.6357" y="367.1318"/><rect fill="#F1F1F1" height="6.615" style="stroke:#181818;stroke-width:0.330749354005168;" width="9.9225" x="1575.0284" y="370.4393"/><rect fill="#F1F1F1" height="1.323" style="stroke:#181818;stroke-width:0.330749354005168;" width="2.646" x="1573.7054" y="371.7623"/><rect fill="#F1F1F1" height="1.323" style="stroke:#181818;stroke-width:0.330749354005168;" width="2.646" x="1573.7054" y="374.4083"/><text fill="#000000" font-family="sans-serif" font-size="9.261" lengthAdjust="spacing" textLength="107.1628" x="1464.5581" y="388.958">stylized_facts collection</text></g><!--entity documents collection--><g id="elem_documents collection"><rect fill="#F1F1F1" height="30.6253" rx="1.6537" ry="1.6537" style="stroke:#181818;stroke-width:0.330749354005168;" width="125.0233" x="1600.4961" y="367.1318"/><rect fill="#F1F1F1" height="6.615" style="stroke:#181818;stroke-width:0.330749354005168;" width="9.9225" x="1712.2894" y="370.4393"/><rect fill="#F1F1F1" height="1.323" style="stroke:#181818;stroke-width:0.330749354005168;" width="2.646" x="1710.9664" y="371.7623"/><rect fill="#F1F1F1" height="1.323" style="stroke:#181818;stroke-width:0.330749354005168;" width="2.646" x="1710.9664" y="374.4083"/><text fill="#000000" font-family="sans-serif" font-size="9.261" lengthAdjust="spacing" textLength="98.5633" x="1610.4186" y="388.958">documents collection</text></g><!--entity knowledge_graphs collection--><g id="elem_knowledge_graphs collection"><rect fill="#F1F1F1" height="30.6253" rx="1.6537" ry="1.6537" style="stroke:#181818;stroke-width:0.330749354005168;" width="159.4212" x="1347.8036" y="435.2661"/><rect fill="#F1F1F1" height="6.615" style="stroke:#181818;stroke-width:0.330749354005168;" width="9.9225" x="1493.9948" y="438.5736"/><rect fill="#F1F1F1" height="1.323" style="stroke:#181818;stroke-width:0.330749354005168;" width="2.646" x="1492.6718" y="439.8966"/><rect fill="#F1F1F1" height="1.323" style="stroke:#181818;stroke-width:0.330749354005168;" width="2.646" x="1492.6718" y="442.5426"/><text fill="#000000" font-family="sans-serif" font-size="9.261" lengthAdjust="spacing" textLength="132.9612" x="1357.7261" y="457.0924">knowledge_graphs collection</text></g><!--entity reviews collection--><g id="elem_reviews collection"><rect fill="#F1F1F1" height="30.6253" rx="1.6537" ry="1.6537" style="stroke:#181818;stroke-width:0.330749354005168;" width="107.1628" x="1519.4625" y="435.2661"/><rect fill="#F1F1F1" height="6.615" style="stroke:#181818;stroke-width:0.330749354005168;" width="9.9225" x="1613.3953" y="438.5736"/><rect fill="#F1F1F1" height="1.323" style="stroke:#181818;stroke-width:0.330749354005168;" width="2.646" x="1612.0724" y="439.8966"/><rect fill="#F1F1F1" height="1.323" style="stroke:#181818;stroke-width:0.330749354005168;" width="2.646" x="1612.0724" y="442.5426"/><text fill="#000000" font-family="sans-serif" font-size="9.261" lengthAdjust="spacing" textLength="80.7028" x="1529.385" y="457.0924">reviews collection</text></g><polygon fill="#181818" points="200.8718,253.1532,196.2343,248.5772,197.7769,251.9865,194.3676,253.5291,200.8718,253.1532" style="stroke:#181818;stroke-width:0.661498708010336;"/><path d="M48.0744,97.0313 C50.1213,117.1856 55.4265,143.4236 68.7959,162.7287 C87.4074,189.6033 116.4054,210.7865 143.4278,226.2075 C156.939,233.9181 169.9563,240.188 180.9344,245.0085 C186.4235,247.4188 191.4027,249.4667 195.679,251.1511 C196.7481,251.5722 197.7732,251.9706 198.7514,252.3463 C199.2405,252.5341 199.7178,252.7163 200.1831,252.8927 C200.4157,252.981 196.9314,251.6678 197.1579,251.7532 " fill="none" style="stroke:#181818;stroke-width:0.661498708010336;"/><text fill="#000000" font-family="sans-serif" font-size="8.5995" lengthAdjust="spacing" textLength="86.6563" x="69.4574" y="150.2045">import advandeb_kb</text><text fill="#000000" font-family="sans-serif" font-size="8.5995" lengthAdjust="spacing" textLength="56.2274" x="84.6718" y="160.2148">Call functions</text><polygon fill="#181818" points="201.08,241.4619,200.0695,235.0258,199.2842,238.6844,195.6255,237.8991,201.08,241.4619" style="stroke:#181818;stroke-width:0.661498708010336;"/><path d="M156.9792,97.1246 C156.6456,116.2529 157.672,141.3053 163.3902,162.7287 C168.0372,180.139 176.2029,198.0335 184.5124,213.49 C188.6671,221.2182 192.8577,228.337 196.6624,234.481 C197.6136,236.017 198.5407,237.4921 199.437,238.9005 C199.8852,239.6048 200.3256,240.2923 200.7576,240.9625 C200.8656,241.1301 198.8181,237.9636 198.925,238.1289 " fill="none" style="stroke:#181818;stroke-width:0.661498708010336;"/><text fill="#000000" font-family="sans-serif" font-size="8.5995" lengthAdjust="spacing" textLength="76.7339" x="168.3514" y="150.2045">Standalone usage</text><text fill="#000000" font-family="sans-serif" font-size="8.5995" lengthAdjust="spacing" textLength="85.3333" x="164.0517" y="160.2148">for batch operations</text><polygon fill="#181818" points="221.0454,167.9087,227.0592,165.4028,223.3186,165.5062,223.2152,161.7656,221.0454,167.9087" style="stroke:#181818;stroke-width:0.661498708010336;"/><path d="M268.4345,96.9503 C269.3453,118.1306 266.6503,145.6315 250.0465,162.7287 C245.4665,167.4448 240.4242,166.3567 235.4097,165.2952 C232.9025,164.7644 230.4023,164.2403 227.9703,164.4516 C226.7544,164.5572 225.5554,164.8467 224.3813,165.4112 C223.7942,165.6935 223.2133,166.0444 222.6395,166.4756 C222.3526,166.6911 222.0675,166.9267 221.7843,167.1837 C221.6427,167.3123 221.5016,167.4462 221.361,167.5856 C221.2907,167.6553 221.2205,167.7264 221.1504,167.7989 C221.1154,167.8352 223.8082,164.9888 223.7732,165.0257 " fill="none" style="stroke:#181818;stroke-width:0.661498708010336;"/><text fill="#000000" font-family="sans-serif" font-size="8.5995" lengthAdjust="spacing" textLength="38.3669" x="264.9302" y="150.2045">Wraps as</text><text fill="#000000" font-family="sans-serif" font-size="8.5995" lengthAdjust="spacing" textLength="41.6744" x="263.2765" y="160.2148">MCP tools</text><polygon fill="#181818" points="1731.3493,338.9903,1728.216,333.2782,1728.718,336.9864,1725.0098,337.4884,1731.3493,338.9903" style="stroke:#181818;stroke-width:0.661498708010336;"/><path d="M1229.767,312.6829 C1231.9072,312.6883 1234.0022,312.6936 1236.051,312.6988 C1240.1486,312.7091 1244.0612,312.7191 1247.7808,312.7287 C1277.5378,312.8055 1294.9434,312.8577 1295.876,312.8889 C1320.1252,313.6988 1419.7192,312.6302 1517.9449,315.2009 C1567.0577,316.4863 1615.8284,318.6814 1654.6679,322.4762 C1674.0877,324.3736 1691.0246,326.6708 1704.2801,329.4542 C1710.9079,330.8459 1716.6153,332.3591 1721.2525,334.0046 C1723.571,334.8274 1725.6221,335.6832 1727.3869,336.5734 C1728.2693,337.0186 1729.0801,337.4723 1729.817,337.9348 C1730.1854,338.1661 1730.5354,338.3995 1730.8666,338.6352 C1731.0322,338.753 1728.0355,336.4667 1728.1917,336.5856 " fill="none" style="stroke:#181818;stroke-width:0.661498708010336;"/><text fill="#000000" font-family="sans-serif" font-size="8.5995" lengthAdjust="spacing" textLength="112.4548" x="1717.2506" y="326.4939">Read/write knowledge data</text><polygon fill="#181818" points="1270.459,366.9852,1267.7882,361.0428,1267.9947,364.7791,1264.2584,364.9856,1270.459,366.9852" style="stroke:#181818;stroke-width:0.661498708010336;"/><path d="M1229.7879,340.3376 C1229.9164,340.3873 1230.045,340.4373 1230.1734,340.4878 C1231.2012,340.8912 1232.2252,341.3176 1233.2445,341.765 C1235.2831,342.6596 1237.3027,343.638 1239.2952,344.6828 C1243.2802,346.7726 1247.1566,349.1284 1250.859,351.6138 C1258.2636,356.5844 1262.0147,359.4254 1267.5019,364.3379 " fill="none" style="stroke:#181818;stroke-width:0.661498708010336;"/><text fill="#000000" font-family="sans-serif" font-size="8.5995" lengthAdjust="spacing" textLength="70.1189" x="1212.1964" y="321.5326">Agent workflows,</text><text fill="#000000" font-family="sans-serif" font-size="8.5995" lengthAdjust="spacing" textLength="90.6253" x="1201.9432" y="331.543">LLM-based extraction</text><path d="M349.8137,129.6656 C337.9884,142.7862 323.9897,154.9745 308.2584,162.7287 C303.8993,164.8773 283.8248,164.5196 263.9625,164.4651 C254.0314,164.4378 244.1534,164.4863 236.3194,164.9619 C232.4024,165.1996 228.9964,165.5442 226.3503,166.0393 C225.0273,166.2869 223.8942,166.5722 222.9822,166.9005 C222.5262,167.0647 222.1255,167.2397 221.7839,167.4262 C221.6131,167.5194 221.4571,167.6155 221.3164,167.7146 C221.2461,167.7641 221.1795,167.8144 221.1169,167.8654 C221.0855,167.8909 221.0552,167.9166 221.0258,167.9425 " fill="none" style="stroke:#181818;stroke-width:0.661498708010336;stroke-dasharray:7.0,7.0;"/><path d="M1753.6948,390.5267 C1754.0962,390.8102 1754.5066,391.1001 1754.9258,391.3962 C1755.7641,391.9883 1756.6372,392.605 1757.5419,393.2439 C1761.1604,395.7997 1765.2838,398.712 1769.7068,401.8359 C1778.5526,408.0837 1788.5967,415.1778 1798.1969,421.9583 " fill="none" style="stroke:#181818;stroke-width:0.661498708010336;stroke-dasharray:7.0,7.0;"/><!--SRC=[VLRRRkCs47tNLqpziabGDstVceS2JWgqGJQjiTb57vg2eCInH9WYLPAouoqMwBVqq_PBEhpeOhjP830YpktCp9aXty2QLrjU8mZ9QyjRs1WBNEou5bWkjzhi5OeQbsKlbK0B5- -DKLlfhxFTPL5yrLbUjnmKFvZUWslHSyqBLt65qF8N-Ew7xx-5lHI-AOekXrky7kDPNwmFlZ5wn7ODEUhb0hY3XrksVlWP_Yu0w6_qA7MDpakZ5r44y8SmLT-YzgopfaBdZFscE_oPP9tOC7pnbbT-VXp02-uvQmYTmfcavBvgs1Wa2pwTWCWkvoWszFr_eGYOz0TciJArbX_diQB9ZYj9KEOcplIsGiQzjxBilm33-OEI7_av3bxN5kiJhr4P1OiQDMgqnmguam8r1LPIRqUSfp69FbqpHjD686k92FKyiT3dyzDeoNBxJu__wj4UfaCgumwju-eL5FIZlHjXn4-s8MRZtjZjvCSenLlEAYL9OUQUY4OjgQNpywZ4S2RRJc6W4_z2uItL2lTZ-FGPSkXnyiOx8YIrbobJoshU2Evxnm9JNYzpO6V97OunMgDhSvP8HGbY9AAR3aCj9RfNFA_xKiaALklxqJSZmalFsEX26uzWPTtu-0cGZJQzJi40NpfZFOgRhB24D3DicCQBor6Ifo8IpytECmUH7L5phX79miRTmI9NPlB8chDJsskM6178i55cFnEwlcmfLrg0BBKjor2Bc7QisAUY61e0YyTG-PzkurAA_yUonK5pC3KWLEvuoCwaGstE12SPdiaJqkDZmXYc3nQ_HOx3sxUFy8jnFk9CPqKHbr58GI1DTGqhvuZpN7jQlyHqQc5Oj6dXFgu6zTkm166TrcamUwgixBmZeufhuCePwAaqWsNKJpfZnBirFA7TnKM_fwH270XpvtAqktLHl84FBf2oers7LhlYSGNBvO_3xh-1X76ygjYsVDPtNAc9YSKi-B7j4-Kfk38Q2In5UTRXreiB7amNc1Vj0z8ZkzyZMaxP1b64790I_66617P45zgLD6L5jWik4Zjku1roSRstaePex2m4GisLSzjkO1Me2WDLtTVFcbgv3DmJC5qqeTlapviEp2Q39MfSNJsC4MxpxKtLpJVfrLKQ_byDVBWdydUzHSZNRaw6fDJeiFeTMAH2bNIVpye3S4SjBp6tWZ1HLKFt1PI7CFsV__aNpla55osNEkXTPfr4gcuYbKka6bnGhLqa36I-K1g9BrbZfGy3Tbgjj8uYmfJW4tOyh19AeJCW-b0ecfQmor_e-YMDUprqpKEuMiYKG1JZsAVobiPxquOAnrwItQpjwR50m9GYmVIYiQXuACni6ITKnEOoB7cAGSya5KTW8Yx0lf5K4j-Wfkr90q2TfXUKRo2ld0dTVm00]--></g></svg>