<?xml version="1.0" encoding="us-ascii" standalone="no"?><svg xmlns="http://www.w3.org/2000/svg" xmlns:xlink="http://www.w3.org/1999/xlink" contentStyleType="text/css" height="543.8238px" preserveAspectRatio="none" style="width:1920px;height:543px;background:#FFFFFF;" version="1.1" viewBox="0 0 1920 543" width="1920.3021px" zoomAndPan="magnify"><defs/><g><!--cluster PlatformAuth--><g id="cluster_PlatformAuth"><polygon fill="none" points="1609.7183,327.5028,1615.7608,321.4603,1812.1416,321.4603,1812.1416,463.1566,1806.0991,469.1991,1609.7183,469.1991,1609.7183,327.5028" style="stroke:#181818;stroke-width:0.6042486231313926;"/><line style="stroke:#181818;stroke-width:0.6042486231313926;" x1="1806.0991" x2="1812.1416" y1="327.5028" y2="321.4603"/><line style="stroke:#181818;stroke-width:0.6042486231313926;" x1="1609.7183" x2="1806.0991" y1="327.5028" y2="327.5028"/><line style="stroke:#181818;stroke-width:0.6042486231313926;" x1="1806.0991" x2="1806.0991" y1="327.5028" y2="469.1991"/><text fill="#000000" font-family="sans-serif" font-size="8.4595" font-weight="bold" lengthAdjust="spacing" textLength="112.3902" x="1652.3179" y="337.1678">Platform Authentication</text></g><!--cluster MA--><g id="cluster_MA"><polygon fill="none" points="8.4595,90.6373,14.502,84.5948,1271.3391,84.5948,1271.3391,527.8112,1265.2966,533.8537,8.4595,533.8537,8.4595,90.6373" style="stroke:#181818;stroke-width:0.6042486231313926;"/><line style="stroke:#181818;stroke-width:0.6042486231313926;" x1="1265.2966" x2="1271.3391" y1="90.6373" y2="84.5948"/><line style="stroke:#181818;stroke-width:0.6042486231313926;" x1="8.4595" x2="1265.2966" y1="90.6373" y2="90.6373"/><line style="stroke:#181818;stroke-width:0.6042486231313926;" x1="1265.2966" x2="1265.2966" y1="90.6373" y2="533.8537"/><text fill="#000000" font-family="sans-serif" font-size="8.4595" font-weight="bold" lengthAdjust="spacing" textLength="140.7899" x="567.0873" y="100.3023">AdvanDEB Modeling Assistant</text></g><!--cluster MA_FE--><g id="cluster_MA_FE"><polygon fill="none" points="13.2935,109.9732,19.336,103.9308,581.2872,103.9308,581.2872,274.631,575.2447,280.6735,13.2935,280.6735,13.2935,109.9732" style="stroke:#181818;stroke-width:0.6042486231313926;"/><line style="stroke:#181818;stroke-width:0.6042486231313926;" x1="575.2447" x2="581.2872" y1="109.9732" y2="103.9308"/><line style="stroke:#181818;stroke-width:0.6042486231313926;" x1="13.2935" x2="575.2447" y1="109.9732" y2="109.9732"/><line style="stroke:#181818;stroke-width:0.6042486231313926;" x1="575.2447" x2="575.2447" y1="109.9732" y2="280.6735"/><text fill="#000000" font-family="sans-serif" font-size="8.4595" font-weight="bold" lengthAdjust="spacing" textLength="81.5736" x="254.0865" y="119.6383">Frontend (Vue 3)</text></g><!--cluster Views--><g id="cluster_Views"><path d="M275.8395,123.2667 L305.4477,123.2667 A2.2659,2.2659 0 0 1 306.9583,124.7773 L311.188,136.7396 L574.9426,136.7396 A1.5106,1.5106 0 0 1 576.4532,138.2502 L576.4532,274.3289 A1.5106,1.5106 0 0 1 574.9426,275.8395 L275.8395,275.8395 A1.5106,1.5106 0 0 1 274.3289,274.3289 L274.3289,124.7773 A1.5106,1.5106 0 0 1 275.8395,123.2667 " fill="none" style="stroke:#000000;stroke-width:0.9063729346970889;"/><line style="stroke:#000000;stroke-width:0.9063729346970889;" x1="274.3289" x2="311.188" y1="136.7396" y2="136.7396"/><text fill="#000000" font-family="sans-serif" font-size="8.4595" font-weight="bold" lengthAdjust="spacing" textLength="29.0039" x="276.7459" y="132.3275">Views</text></g><!--cluster Shared Auth--><g id="cluster_Shared Auth"><path d="M35.3485,123.2667 L95.1692,123.2667 A2.2659,2.2659 0 0 1 96.6798,124.7773 L100.9095,136.7396 L267.9843,136.7396 A1.5106,1.5106 0 0 1 269.4949,138.2502 L269.4949,170.7002 A1.5106,1.5106 0 0 1 267.9843,172.2109 L35.3485,172.2109 A1.5106,1.5106 0 0 1 33.8379,170.7002 L33.8379,124.7773 A1.5106,1.5106 0 0 1 35.3485,123.2667 " fill="none" style="stroke:#000000;stroke-width:0.9063729346970889;"/><line style="stroke:#000000;stroke-width:0.9063729346970889;" x1="33.8379" x2="100.9095" y1="136.7396" y2="136.7396"/><text fill="#000000" font-family="sans-serif" font-size="8.4595" font-weight="bold" lengthAdjust="spacing" textLength="59.2164" x="36.2549" y="132.3275">Shared Auth</text></g><!--cluster MA_BE--><g id="cluster_MA_BE"><polygon fill="none" points="586.1212,208.4658,592.1637,202.4233,1266.5051,202.4233,1266.5051,522.9772,1260.4626,529.0197,586.1212,529.0197,586.1212,208.4658" style="stroke:#181818;stroke-width:0.6042486231313926;"/><line style="stroke:#181818;stroke-width:0.6042486231313926;" x1="1260.4626" x2="1266.5051" y1="208.4658" y2="202.4233"/><line style="stroke:#181818;stroke-width:0.6042486231313926;" x1="586.1212" x2="1260.4626" y1="208.4658" y2="208.4658"/><line style="stroke:#181818;stroke-width:0.6042486231313926;" x1="1260.4626" x2="1260.4626" y1="208.4658" y2="529.0197"/><text fill="#000000" font-family="sans-serif" font-size="8.4595" font-weight="bold" lengthAdjust="spacing" textLength="85.8033" x="880.9945" y="218.1308">Backend (FastAPI)</text></g><!--cluster Auth Integration--><g id="cluster_Auth Integration"><path d="M1042.0268,226.8954 L1119.9748,226.8954 A2.2659,2.2659 0 0 1 1121.4854,228.406 L1125.7152,240.3682 L1260.1605,240.3682 A1.5106,1.5106 0 0 1 1261.6711,241.8788 L1261.6711,371.915 A1.5106,1.5106 0 0 1 1260.1605,373.4256 L1042.0268,373.4256 A1.5106,1.5106 0 0 1 1040.5161,371.915 L1040.5161,228.406 A1.5106,1.5106 0 0 1 1042.0268,226.8954 " fill="none" style="stroke:#000000;stroke-width:0.9063729346970889;"/><line style="stroke:#000000;stroke-width:0.9063729346970889;" x1="1040.5161" x2="1125.7152" y1="240.3682" y2="240.3682"/><text fill="#000000" font-family="sans-serif" font-size="8.4595" font-weight="bold" lengthAdjust="spacing" textLength="77.3438" x="1042.9331" y="235.9561">Auth Integration</text></g><!--cluster Routers--><g id="cluster_Routers"><path d="M864.3777,226.8954 L902.4453,226.8954 A2.2659,2.2659 0 0 1 903.9559,228.406 L908.1857,240.3682 L1034.1715,240.3682 A1.5106,1.5106 0 0 1 1035.6821,241.8788 L1035.6821,371.915 A1.5106,1.5106 0 0 1 1034.1715,373.4256 L864.3777,373.4256 A1.5106,1.5106 0 0 1 862.867,371.915 L862.867,228.406 A1.5106,1.5106 0 0 1 864.3777,226.8954 " fill="none" style="stroke:#000000;stroke-width:0.9063729346970889;"/><line style="stroke:#000000;stroke-width:0.9063729346970889;" x1="862.867" x2="908.1857" y1="240.3682" y2="240.3682"/><text fill="#000000" font-family="sans-serif" font-size="8.4595" font-weight="bold" lengthAdjust="spacing" textLength="37.4634" x="865.284" y="235.9561">Routers</text></g><!--cluster Services--><g id="cluster_Services"><path d="M918.76,420.2549 L960.4532,420.2549 A2.2659,2.2659 0 0 1 961.9638,421.7655 L966.1935,433.7278 L1260.1605,433.7278 A1.5106,1.5106 0 0 1 1261.6711,435.2384 L1261.6711,522.6751 A1.5106,1.5106 0 0 1 1260.1605,524.1857 L918.76,524.1857 A1.5106,1.5106 0 0 1 917.2494,522.6751 L917.2494,421.7655 A1.5106,1.5106 0 0 1 918.76,420.2549 " fill="none" style="stroke:#000000;stroke-width:0.9063729346970889;"/><line style="stroke:#000000;stroke-width:0.9063729346970889;" x1="917.2494" x2="966.1935" y1="433.7278" y2="433.7278"/><text fill="#000000" font-family="sans-serif" font-size="8.4595" font-weight="bold" lengthAdjust="spacing" textLength="41.0889" x="919.6664" y="429.3157">Services</text></g><!--cluster Models--><g id="cluster_Models"><path d="M721.775,420.2549 L756.2172,420.2549 A2.2659,2.2659 0 0 1 757.7278,421.7655 L761.9575,433.7278 L910.9048,433.7278 A1.5106,1.5106 0 0 1 912.4154,435.2384 L912.4154,522.6751 A1.5106,1.5106 0 0 1 910.9048,524.1857 L721.775,524.1857 A1.5106,1.5106 0 0 1 720.2644,522.6751 L720.2644,421.7655 A1.5106,1.5106 0 0 1 721.775,420.2549 " fill="none" style="stroke:#000000;stroke-width:0.9063729346970889;"/><line style="stroke:#000000;stroke-width:0.9063729346970889;" x1="720.2644" x2="761.9575" y1="433.7278" y2="433.7278"/><text fill="#000000" font-family="sans-serif" font-size="8.4595" font-weight="bold" lengthAdjust="spacing" textLength="33.8379" x="722.6814" y="429.3157">Models</text></g><!--cluster Database--><g id="cluster_Database"><path d="M608.1762,221.7592 L652.8906,221.7592 A2.2659,2.2659 0 0 1 654.4013,223.2699 L658.631,235.2321 L856.5224,235.2321 A1.5106,1.5106 0 0 1 858.033,236.7427 L858.033,279.465 A1.5106,1.5106 0 0 1 856.5224,280.9756 L608.1762,280.9756 A1.5106,1.5106 0 0 1 606.6656,279.465 L606.6656,223.2699 A1.5106,1.5106 0 0 1 608.1762,221.7592 " fill="none" style="stroke:#000000;stroke-width:0.9063729346970889;"/><line style="stroke:#000000;stroke-width:0.9063729346970889;" x1="606.6656" x2="658.631" y1="235.2321" y2="235.2321"/><text fill="#000000" font-family="sans-serif" font-size="8.4595" font-weight="bold" lengthAdjust="spacing" textLength="44.1101" x="609.0826" y="230.82">Database</text></g><!--entity Users--><g id="elem_Users"><ellipse cx="1221.1865" cy="7.5531" fill="#F1F1F1" rx="4.834" ry="4.834" style="stroke:#181818;stroke-width:0.3021243115656963;"/><path d="M1221.1865,12.3871 L1221.1865,28.7018 M1213.3312,17.2211 L1229.0417,17.2211 M1221.1865,28.7018 L1213.3312,37.7655 M1221.1865,28.7018 L1229.0417,37.7655 " fill="none" style="stroke:#181818;stroke-width:0.3021243115656963;"/><text fill="#000000" font-family="sans-serif" font-size="8.4595" lengthAdjust="spacing" textLength="24.1699" x="1200.642" y="46.5242">Users</text><text fill="#000000" font-family="sans-serif" font-size="8.4595" lengthAdjust="spacing" textLength="41.0889" x="1200.642" y="56.3716">(All Roles)</text></g><!--entity Mongo--><g id="elem_Mongo"><path d="M1353.819,437.7781 C1353.819,431.7356 1387.3548,431.7356 1387.3548,431.7356 C1387.3548,431.7356 1420.8906,431.7356 1420.8906,437.7781 L1420.8906,462.9111 C1420.8906,468.9536 1387.3548,468.9536 1387.3548,468.9536 C1387.3548,468.9536 1353.819,468.9536 1353.819,462.9111 L1353.819,437.7781 " fill="#F1F1F1" style="stroke:#181818;stroke-width:0.3021243115656963;"/><path d="M1353.819,437.7781 C1353.819,443.8206 1387.3548,443.8206 1387.3548,443.8206 C1387.3548,443.8206 1420.8906,443.8206 1420.8906,437.7781 " fill="none" style="stroke:#181818;stroke-width:0.3021243115656963;"/><text fill="#000000" font-family="sans-serif" font-size="8.4595" lengthAdjust="spacing" textLength="41.6932" x="1359.8615" y="454.0899">MongoDB</text><text fill="#000000" font-family="sans-serif" font-size="8.4595" lengthAdjust="spacing" textLength="54.9866" x="1359.8615" y="463.9373">(Platform DB)</text></g><!--entity Ollama--><g id="elem_Ollama"><polygon fill="#F1F1F1" points="1352.3084,346.8387,1358.3509,340.7962,1444.1542,340.7962,1444.1542,362.7286,1438.1117,368.771,1352.3084,368.771,1352.3084,346.8387" style="stroke:#181818;stroke-width:0.3021243115656963;"/><line style="stroke:#181818;stroke-width:0.3021243115656963;" x1="1438.1117" x2="1444.1542" y1="346.8387" y2="340.7962"/><line style="stroke:#181818;stroke-width:0.3021243115656963;" x1="1352.3084" x2="1438.1117" y1="346.8387" y2="346.8387"/><line style="stroke:#181818;stroke-width:0.3021243115656963;" x1="1438.1117" x2="1438.1117" y1="346.8387" y2="368.771"/><text fill="#000000" font-family="sans-serif" font-size="8.4595" lengthAdjust="spacing" textLength="67.6758" x="1361.3721" y="360.7335">Ollama LLM Host</text></g><!--entity KB--><g id="elem_KB"><polygon fill="#F1F1F1" points="1455.3328,346.8387,1461.3753,340.7962,1603.3737,340.7962,1603.3737,362.7286,1597.3312,368.771,1455.3328,368.771,1455.3328,346.8387" style="stroke:#181818;stroke-width:0.3021243115656963;"/><line style="stroke:#181818;stroke-width:0.3021243115656963;" x1="1597.3312" x2="1603.3737" y1="346.8387" y2="340.7962"/><line style="stroke:#181818;stroke-width:0.3021243115656963;" x1="1455.3328" x2="1597.3312" y1="346.8387" y2="346.8387"/><line style="stroke:#181818;stroke-width:0.3021243115656963;" x1="1597.3312" x2="1597.3312" y1="346.8387" y2="368.771"/><text fill="#000000" font-family="sans-serif" font-size="8.4595" lengthAdjust="spacing" textLength="123.871" x="1464.3965" y="360.7335">AdvanDEB Knowledge Builder</text></g><g id="elem_GMN52"><path d="M1817.882,324.1794 L1817.882,385.0858 L1916.3745,385.0858 L1916.3745,330.2219 L1910.332,324.1794 L1817.882,324.1794 " fill="#FEFFDD" style="stroke:#181818;stroke-width:0.3021243115656963;"/><path d="M1910.332,324.1794 L1910.332,330.2219 L1916.3745,330.2219 L1910.332,324.1794 " fill="#FEFFDD" style="stroke:#181818;stroke-width:0.6042486231313926;"/><text fill="#000000" font-family="sans-serif" font-size="7.8552" lengthAdjust="spacing" textLength="85.8033" x="1821.5075" y="334.492">Shared authentication</text><text fill="#000000" font-family="sans-serif" font-size="7.8552" lengthAdjust="spacing" textLength="69.4886" x="1821.5075" y="343.636">across KB and MA</text><text fill="#000000" font-family="sans-serif" font-size="7.8552" lengthAdjust="spacing" textLength="2.417" x="1821.5075" y="352.78">&#160;</text><text fill="#000000" font-family="sans-serif" font-size="7.8552" lengthAdjust="spacing" textLength="66.4673" x="1821.5075" y="361.924">Same JWT tokens</text><text fill="#000000" font-family="sans-serif" font-size="7.8552" lengthAdjust="spacing" textLength="80.9693" x="1821.5075" y="371.068">Same user database</text><text fill="#000000" font-family="sans-serif" font-size="7.8552" lengthAdjust="spacing" textLength="70.6971" x="1821.5075" y="380.2119">Same role system</text></g><g id="elem_GMN55"><path d="M1276.4752,231.1251 L1276.4752,282.8875 L1410.0142,282.8875 L1410.0142,237.1676 L1403.9717,231.1251 L1276.4752,231.1251 " fill="#FEFFDD" style="stroke:#181818;stroke-width:0.3021243115656963;"/><path d="M1403.9717,231.1251 L1403.9717,237.1676 L1410.0142,237.1676 L1403.9717,231.1251 " fill="#FEFFDD" style="stroke:#181818;stroke-width:0.6042486231313926;"/><text fill="#000000" font-family="sans-serif" font-size="7.8552" lengthAdjust="spacing" textLength="119.6412" x="1280.1007" y="241.4377">MA validates user permissions:</text><text fill="#000000" font-family="sans-serif" font-size="7.8552" lengthAdjust="spacing" textLength="120.8497" x="1280.1007" y="250.5817">- Curator: Can create scenarios</text><text fill="#000000" font-family="sans-serif" font-size="7.8552" lengthAdjust="spacing" textLength="111.1817" x="1280.1007" y="259.7257">- Analyst: Advanced features</text><text fill="#000000" font-family="sans-serif" font-size="7.8552" lengthAdjust="spacing" textLength="85.1991" x="1280.1007" y="268.8697">- Explorator: View only</text><text fill="#000000" font-family="sans-serif" font-size="7.8552" lengthAdjust="spacing" textLength="76.7396" x="1280.1007" y="278.0137">- Admin: Full access</text></g><!--entity Google OAuth--><g id="elem_Google OAuth"><rect fill="#F1F1F1" height="27.9748" rx="1.5106" ry="1.5106" style="stroke:#181818;stroke-width:0.3021243115656963;" width="82.7821" x="1635.3989" y="340.7962"/><rect fill="#F1F1F1" height="6.0425" style="stroke:#181818;stroke-width:0.3021243115656963;" width="9.0637" x="1706.096" y="343.8175"/><rect fill="#F1F1F1" height="1.2085" style="stroke:#181818;stroke-width:0.3021243115656963;" width="2.417" x="1704.8875" y="345.026"/><rect fill="#F1F1F1" height="1.2085" style="stroke:#181818;stroke-width:0.3021243115656963;" width="2.417" x="1704.8875" y="347.443"/><text fill="#000000" font-family="sans-serif" font-size="8.4595" lengthAdjust="spacing" textLength="58.6121" x="1644.4626" y="360.7335">Google OAuth</text></g><!--entity JWT Manager--><g id="elem_JWT Manager"><rect fill="#F1F1F1" height="27.9748" rx="1.5106" ry="1.5106" style="stroke:#181818;stroke-width:0.3021243115656963;" width="77.9481" x="1729.0574" y="340.7962"/><rect fill="#F1F1F1" height="6.0425" style="stroke:#181818;stroke-width:0.3021243115656963;" width="9.0637" x="1794.9205" y="343.8175"/><rect fill="#F1F1F1" height="1.2085" style="stroke:#181818;stroke-width:0.3021243115656963;" width="2.417" x="1793.712" y="345.026"/><rect fill="#F1F1F1" height="1.2085" style="stroke:#181818;stroke-width:0.3021243115656963;" width="2.417" x="1793.712" y="347.443"/><text fill="#000000" font-family="sans-serif" font-size="8.4595" lengthAdjust="spacing" textLength="53.7781" x="1738.1212" y="360.7335">JWT Manager</text></g><!--entity API Key Validator--><g id="elem_API Key Validator"><rect fill="#F1F1F1" height="27.9748" rx="1.5106" ry="1.5106" style="stroke:#181818;stroke-width:0.3021243115656963;" width="92.45" x="1630.5649" y="436.5696"/><rect fill="#F1F1F1" height="6.0425" style="stroke:#181818;stroke-width:0.3021243115656963;" width="9.0637" x="1710.93" y="439.5909"/><rect fill="#F1F1F1" height="1.2085" style="stroke:#181818;stroke-width:0.3021243115656963;" width="2.417" x="1709.7215" y="440.7994"/><rect fill="#F1F1F1" height="1.2085" style="stroke:#181818;stroke-width:0.3021243115656963;" width="2.417" x="1709.7215" y="443.2164"/><text fill="#000000" font-family="sans-serif" font-size="8.4595" lengthAdjust="spacing" textLength="68.2801" x="1639.6286" y="456.5069">API Key Validator</text></g><!--entity Home View--><g id="elem_Home View"><rect fill="#F1F1F1" height="27.9748" rx="1.5106" ry="1.5106" style="stroke:#181818;stroke-width:0.3021243115656963;" width="70.6971" x="279.465" y="139.5814"/><rect fill="#F1F1F1" height="6.0425" style="stroke:#181818;stroke-width:0.3021243115656963;" width="9.0637" x="338.0771" y="142.6027"/><rect fill="#F1F1F1" height="1.2085" style="stroke:#181818;stroke-width:0.3021243115656963;" width="2.417" x="336.8686" y="143.8112"/><rect fill="#F1F1F1" height="1.2085" style="stroke:#181818;stroke-width:0.3021243115656963;" width="2.417" x="336.8686" y="146.2282"/><text fill="#000000" font-family="sans-serif" font-size="8.4595" lengthAdjust="spacing" textLength="46.5271" x="288.5287" y="159.5187">Home View</text></g><!--entity Scenario Builder--><g id="elem_Scenario Builder"><rect fill="#F1F1F1" height="27.9748" rx="1.5106" ry="1.5106" style="stroke:#181818;stroke-width:0.3021243115656963;" width="91.8458" x="361.3407" y="139.5814"/><rect fill="#F1F1F1" height="6.0425" style="stroke:#181818;stroke-width:0.3021243115656963;" width="9.0637" x="441.1015" y="142.6027"/><rect fill="#F1F1F1" height="1.2085" style="stroke:#181818;stroke-width:0.3021243115656963;" width="2.417" x="439.893" y="143.8112"/><rect fill="#F1F1F1" height="1.2085" style="stroke:#181818;stroke-width:0.3021243115656963;" width="2.417" x="439.893" y="146.2282"/><text fill="#000000" font-family="sans-serif" font-size="8.4595" lengthAdjust="spacing" textLength="67.6758" x="370.4044" y="159.5187">Scenario Builder</text></g><!--entity Knowledge Explorer--><g id="elem_Knowledge Explorer"><rect fill="#F1F1F1" height="27.9748" rx="1.5106" ry="1.5106" style="stroke:#181818;stroke-width:0.3021243115656963;" width="106.952" x="464.3651" y="139.5814"/><rect fill="#F1F1F1" height="6.0425" style="stroke:#181818;stroke-width:0.3021243115656963;" width="9.0637" x="559.2321" y="142.6027"/><rect fill="#F1F1F1" height="1.2085" style="stroke:#181818;stroke-width:0.3021243115656963;" width="2.417" x="558.0236" y="143.8112"/><rect fill="#F1F1F1" height="1.2085" style="stroke:#181818;stroke-width:0.3021243115656963;" width="2.417" x="558.0236" y="146.2282"/><text fill="#000000" font-family="sans-serif" font-size="8.4595" lengthAdjust="spacing" textLength="82.7821" x="473.4288" y="159.5187">Knowledge Explorer</text></g><!--entity Model View--><g id="elem_Model View"><rect fill="#F1F1F1" height="27.9748" rx="1.5106" ry="1.5106" style="stroke:#181818;stroke-width:0.3021243115656963;" width="71.3013" x="279.1629" y="243.2101"/><rect fill="#F1F1F1" height="6.0425" style="stroke:#181818;stroke-width:0.3021243115656963;" width="9.0637" x="338.3792" y="246.2313"/><rect fill="#F1F1F1" height="1.2085" style="stroke:#181818;stroke-width:0.3021243115656963;" width="2.417" x="337.1707" y="247.4398"/><rect fill="#F1F1F1" height="1.2085" style="stroke:#181818;stroke-width:0.3021243115656963;" width="2.417" x="337.1707" y="249.8568"/><text fill="#000000" font-family="sans-serif" font-size="8.4595" lengthAdjust="spacing" textLength="47.1314" x="288.2266" y="263.1473">Model View</text></g><!--entity Results Dashboard--><g id="elem_Results Dashboard"><rect fill="#F1F1F1" height="27.9748" rx="1.5106" ry="1.5106" style="stroke:#181818;stroke-width:0.3021243115656963;" width="103.9308" x="361.3407" y="243.2101"/><rect fill="#F1F1F1" height="6.0425" style="stroke:#181818;stroke-width:0.3021243115656963;" width="9.0637" x="453.1865" y="246.2313"/><rect fill="#F1F1F1" height="1.2085" style="stroke:#181818;stroke-width:0.3021243115656963;" width="2.417" x="451.978" y="247.4398"/><rect fill="#F1F1F1" height="1.2085" style="stroke:#181818;stroke-width:0.3021243115656963;" width="2.417" x="451.978" y="249.8568"/><text fill="#000000" font-family="sans-serif" font-size="8.4595" lengthAdjust="spacing" textLength="79.7608" x="370.4044" y="263.1473">Results Dashboard</text></g><!--entity Auth Store (Shared)--><g id="elem_Auth Store (Shared)"><rect fill="#F1F1F1" height="27.9748" rx="1.5106" ry="1.5106" style="stroke:#181818;stroke-width:0.3021243115656963;" width="106.3478" x="158.3131" y="139.5814"/><rect fill="#F1F1F1" height="6.0425" style="stroke:#181818;stroke-width:0.3021243115656963;" width="9.0637" x="252.5759" y="142.6027"/><rect fill="#F1F1F1" height="1.2085" style="stroke:#181818;stroke-width:0.3021243115656963;" width="2.417" x="251.3674" y="143.8112"/><rect fill="#F1F1F1" height="1.2085" style="stroke:#181818;stroke-width:0.3021243115656963;" width="2.417" x="251.3674" y="146.2282"/><text fill="#000000" font-family="sans-serif" font-size="8.4595" lengthAdjust="spacing" textLength="82.1778" x="167.3769" y="159.5187">Auth Store (Shared)</text></g><!--entity api.js + interceptors--><g id="elem_api.js + interceptors"><rect fill="#F1F1F1" height="27.9748" rx="1.5106" ry="1.5106" style="stroke:#181818;stroke-width:0.3021243115656963;" width="108.1605" x="38.974" y="139.5814"/><rect fill="#F1F1F1" height="6.0425" style="stroke:#181818;stroke-width:0.3021243115656963;" width="9.0637" x="135.0496" y="142.6027"/><rect fill="#F1F1F1" height="1.2085" style="stroke:#181818;stroke-width:0.3021243115656963;" width="2.417" x="133.8411" y="143.8112"/><rect fill="#F1F1F1" height="1.2085" style="stroke:#181818;stroke-width:0.3021243115656963;" width="2.417" x="133.8411" y="146.2282"/><text fill="#000000" font-family="sans-serif" font-size="8.4595" lengthAdjust="spacing" textLength="83.9906" x="48.0378" y="159.5187">api.js + interceptors</text></g><!--entity Auth Middleware--><g id="elem_Auth Middleware"><rect fill="#F1F1F1" height="27.9748" rx="1.5106" ry="1.5106" style="stroke:#181818;stroke-width:0.3021243115656963;" width="93.0543" x="1045.3501" y="243.2101"/><rect fill="#F1F1F1" height="6.0425" style="stroke:#181818;stroke-width:0.3021243115656963;" width="9.0637" x="1126.3194" y="246.2313"/><rect fill="#F1F1F1" height="1.2085" style="stroke:#181818;stroke-width:0.3021243115656963;" width="2.417" x="1125.1109" y="247.4398"/><rect fill="#F1F1F1" height="1.2085" style="stroke:#181818;stroke-width:0.3021243115656963;" width="2.417" x="1125.1109" y="249.8568"/><text fill="#000000" font-family="sans-serif" font-size="8.4595" lengthAdjust="spacing" textLength="68.8843" x="1054.4138" y="263.1473">Auth Middleware</text></g><!--entity Permission Checker--><g id="elem_Permission Checker"><rect fill="#F1F1F1" height="27.9748" rx="1.5106" ry="1.5106" style="stroke:#181818;stroke-width:0.3021243115656963;" width="107.5563" x="1149.2809" y="243.2101"/><rect fill="#F1F1F1" height="6.0425" style="stroke:#181818;stroke-width:0.3021243115656963;" width="9.0637" x="1244.7522" y="246.2313"/><rect fill="#F1F1F1" height="1.2085" style="stroke:#181818;stroke-width:0.3021243115656963;" width="2.417" x="1243.5437" y="247.4398"/><rect fill="#F1F1F1" height="1.2085" style="stroke:#181818;stroke-width:0.3021243115656963;" width="2.417" x="1243.5437" y="249.8568"/><text fill="#000000" font-family="sans-serif" font-size="8.4595" lengthAdjust="spacing" textLength="83.3863" x="1158.3446" y="263.1473">Permission Checker</text></g><!--entity Audit Logger--><g id="elem_Audit Logger"><rect fill="#F1F1F1" height="27.9748" rx="1.5106" ry="1.5106" style="stroke:#181818;stroke-width:0.3021243115656963;" width="76.7396" x="1047.465" y="340.7962"/><rect fill="#F1F1F1" height="6.0425" style="stroke:#181818;stroke-width:0.3021243115656963;" width="9.0637" x="1112.1196" y="343.8175"/><rect fill="#F1F1F1" height="1.2085" style="stroke:#181818;stroke-width:0.3021243115656963;" width="2.417" x="1110.9111" y="345.026"/><rect fill="#F1F1F1" height="1.2085" style="stroke:#181818;stroke-width:0.3021243115656963;" width="2.417" x="1110.9111" y="347.443"/><text fill="#000000" font-family="sans-serif" font-size="8.4595" lengthAdjust="spacing" textLength="52.5696" x="1056.5287" y="360.7335">Audit Logger</text></g><!--entity scenarios.py--><g id="elem_scenarios.py"><rect fill="#F1F1F1" height="27.9748" rx="1.5106" ry="1.5106" style="stroke:#181818;stroke-width:0.3021243115656963;" width="76.7396" x="868.0031" y="243.2101"/><rect fill="#F1F1F1" height="6.0425" style="stroke:#181818;stroke-width:0.3021243115656963;" width="9.0637" x="932.6577" y="246.2313"/><rect fill="#F1F1F1" height="1.2085" style="stroke:#181818;stroke-width:0.3021243115656963;" width="2.417" x="931.4493" y="247.4398"/><rect fill="#F1F1F1" height="1.2085" style="stroke:#181818;stroke-width:0.3021243115656963;" width="2.417" x="931.4493" y="249.8568"/><text fill="#000000" font-family="sans-serif" font-size="8.4595" lengthAdjust="spacing" textLength="52.5696" x="877.0669" y="263.1473">scenarios.py</text></g><!--entity modeling.py--><g id="elem_modeling.py"><rect fill="#F1F1F1" height="27.9748" rx="1.5106" ry="1.5106" style="stroke:#181818;stroke-width:0.3021243115656963;" width="74.9268" x="955.9213" y="243.2101"/><rect fill="#F1F1F1" height="6.0425" style="stroke:#181818;stroke-width:0.3021243115656963;" width="9.0637" x="1018.7632" y="246.2313"/><rect fill="#F1F1F1" height="1.2085" style="stroke:#181818;stroke-width:0.3021243115656963;" width="2.417" x="1017.5547" y="247.4398"/><rect fill="#F1F1F1" height="1.2085" style="stroke:#181818;stroke-width:0.3021243115656963;" width="2.417" x="1017.5547" y="249.8568"/><text fill="#000000" font-family="sans-serif" font-size="8.4595" lengthAdjust="spacing" textLength="50.7569" x="964.9851" y="263.1473">modeling.py</text></g><!--entity explanation.py--><g id="elem_explanation.py"><rect fill="#F1F1F1" height="27.9748" rx="1.5106" ry="1.5106" style="stroke:#181818;stroke-width:0.3021243115656963;" width="83.9906" x="868.0031" y="340.7962"/><rect fill="#F1F1F1" height="6.0425" style="stroke:#181818;stroke-width:0.3021243115656963;" width="9.0637" x="939.9087" y="343.8175"/><rect fill="#F1F1F1" height="1.2085" style="stroke:#181818;stroke-width:0.3021243115656963;" width="2.417" x="938.7002" y="345.026"/><rect fill="#F1F1F1" height="1.2085" style="stroke:#181818;stroke-width:0.3021243115656963;" width="2.417" x="938.7002" y="347.443"/><text fill="#000000" font-family="sans-serif" font-size="8.4595" lengthAdjust="spacing" textLength="59.8206" x="877.0669" y="360.7335">explanation.py</text></g><!--entity results.py--><g id="elem_results.py"><rect fill="#F1F1F1" height="27.9748" rx="1.5106" ry="1.5106" style="stroke:#181818;stroke-width:0.3021243115656963;" width="64.6546" x="962.8702" y="340.7962"/><rect fill="#F1F1F1" height="6.0425" style="stroke:#181818;stroke-width:0.3021243115656963;" width="9.0637" x="1015.4398" y="343.8175"/><rect fill="#F1F1F1" height="1.2085" style="stroke:#181818;stroke-width:0.3021243115656963;" width="2.417" x="1014.2313" y="345.026"/><rect fill="#F1F1F1" height="1.2085" style="stroke:#181818;stroke-width:0.3021243115656963;" width="2.417" x="1014.2313" y="347.443"/><text fill="#000000" font-family="sans-serif" font-size="8.4595" lengthAdjust="spacing" textLength="40.4847" x="971.9339" y="360.7335">results.py</text></g><!--entity ScenarioService--><g id="elem_ScenarioService"><rect fill="#F1F1F1" height="27.9748" rx="1.5106" ry="1.5106" style="stroke:#181818;stroke-width:0.3021243115656963;" width="90.6373" x="922.0834" y="436.5696"/><rect fill="#F1F1F1" height="6.0425" style="stroke:#181818;stroke-width:0.3021243115656963;" width="9.0637" x="1000.6357" y="439.5909"/><rect fill="#F1F1F1" height="1.2085" style="stroke:#181818;stroke-width:0.3021243115656963;" width="2.417" x="999.4272" y="440.7994"/><rect fill="#F1F1F1" height="1.2085" style="stroke:#181818;stroke-width:0.3021243115656963;" width="2.417" x="999.4272" y="443.2164"/><text fill="#000000" font-family="sans-serif" font-size="8.4595" lengthAdjust="spacing" textLength="66.4673" x="931.1471" y="456.5069">ScenarioService</text></g><!--entity ModelAssemblyService--><g id="elem_ModelAssemblyService"><rect fill="#F1F1F1" height="27.9748" rx="1.5106" ry="1.5106" style="stroke:#181818;stroke-width:0.3021243115656963;" width="119.6412" x="1023.5972" y="436.5696"/><rect fill="#F1F1F1" height="6.0425" style="stroke:#181818;stroke-width:0.3021243115656963;" width="9.0637" x="1131.1534" y="439.5909"/><rect fill="#F1F1F1" height="1.2085" style="stroke:#181818;stroke-width:0.3021243115656963;" width="2.417" x="1129.9449" y="440.7994"/><rect fill="#F1F1F1" height="1.2085" style="stroke:#181818;stroke-width:0.3021243115656963;" width="2.417" x="1129.9449" y="443.2164"/><text fill="#000000" font-family="sans-serif" font-size="8.4595" lengthAdjust="spacing" textLength="95.4713" x="1032.6609" y="456.5069">ModelAssemblyService</text></g><!--entity ExplanationService--><g id="elem_ExplanationService"><rect fill="#F1F1F1" height="27.9748" rx="1.5106" ry="1.5106" style="stroke:#181818;stroke-width:0.3021243115656963;" width="102.118" x="1154.417" y="436.5696"/><rect fill="#F1F1F1" height="6.0425" style="stroke:#181818;stroke-width:0.3021243115656963;" width="9.0637" x="1244.45" y="439.5909"/><rect fill="#F1F1F1" height="1.2085" style="stroke:#181818;stroke-width:0.3021243115656963;" width="2.417" x="1243.2415" y="440.7994"/><rect fill="#F1F1F1" height="1.2085" style="stroke:#181818;stroke-width:0.3021243115656963;" width="2.417" x="1243.2415" y="443.2164"/><text fill="#000000" font-family="sans-serif" font-size="8.4595" lengthAdjust="spacing" textLength="77.9481" x="1163.4807" y="456.5069">ExplanationService</text></g><!--entity KnowledgeBuilderClient--><g id="elem_KnowledgeBuilderClient"><rect fill="#F1F1F1" height="27.9748" rx="1.5106" ry="1.5106" style="stroke:#181818;stroke-width:0.3021243115656963;" width="123.2667" x="922.0834" y="491.5563"/><rect fill="#F1F1F1" height="6.0425" style="stroke:#181818;stroke-width:0.3021243115656963;" width="9.0637" x="1033.2651" y="494.5775"/><rect fill="#F1F1F1" height="1.2085" style="stroke:#181818;stroke-width:0.3021243115656963;" width="2.417" x="1032.0566" y="495.786"/><rect fill="#F1F1F1" height="1.2085" style="stroke:#181818;stroke-width:0.3021243115656963;" width="2.417" x="1032.0566" y="498.203"/><text fill="#000000" font-family="sans-serif" font-size="8.4595" lengthAdjust="spacing" textLength="99.0968" x="931.1471" y="511.4935">KnowledgeBuilderClient</text></g><!--entity AuditService--><g id="elem_AuditService"><rect fill="#F1F1F1" height="27.9748" rx="1.5106" ry="1.5106" style="stroke:#181818;stroke-width:0.3021243115656963;" width="75.5311" x="1056.5287" y="491.5563"/><rect fill="#F1F1F1" height="6.0425" style="stroke:#181818;stroke-width:0.3021243115656963;" width="9.0637" x="1119.9748" y="494.5775"/><rect fill="#F1F1F1" height="1.2085" style="stroke:#181818;stroke-width:0.3021243115656963;" width="2.417" x="1118.7663" y="495.786"/><rect fill="#F1F1F1" height="1.2085" style="stroke:#181818;stroke-width:0.3021243115656963;" width="2.417" x="1118.7663" y="498.203"/><text fill="#000000" font-family="sans-serif" font-size="8.4595" lengthAdjust="spacing" textLength="51.3611" x="1065.5924" y="511.4935">AuditService</text></g><!--entity Scenario Models--><g id="elem_Scenario Models"><rect fill="#F1F1F1" height="27.9748" rx="1.5106" ry="1.5106" style="stroke:#181818;stroke-width:0.3021243115656963;" width="93.0543" x="725.0983" y="436.5696"/><rect fill="#F1F1F1" height="6.0425" style="stroke:#181818;stroke-width:0.3021243115656963;" width="9.0637" x="806.0677" y="439.5909"/><rect fill="#F1F1F1" height="1.2085" style="stroke:#181818;stroke-width:0.3021243115656963;" width="2.417" x="804.8592" y="440.7994"/><rect fill="#F1F1F1" height="1.2085" style="stroke:#181818;stroke-width:0.3021243115656963;" width="2.417" x="804.8592" y="443.2164"/><text fill="#000000" font-family="sans-serif" font-size="8.4595" lengthAdjust="spacing" textLength="68.8843" x="734.1621" y="456.5069">Scenario Models</text></g><!--entity Model Specs--><g id="elem_Model Specs"><rect fill="#F1F1F1" height="27.9748" rx="1.5106" ry="1.5106" style="stroke:#181818;stroke-width:0.3021243115656963;" width="77.9481" x="829.3312" y="436.5696"/><rect fill="#F1F1F1" height="6.0425" style="stroke:#181818;stroke-width:0.3021243115656963;" width="9.0637" x="895.1943" y="439.5909"/><rect fill="#F1F1F1" height="1.2085" style="stroke:#181818;stroke-width:0.3021243115656963;" width="2.417" x="893.9858" y="440.7994"/><rect fill="#F1F1F1" height="1.2085" style="stroke:#181818;stroke-width:0.3021243115656963;" width="2.417" x="893.9858" y="443.2164"/><text fill="#000000" font-family="sans-serif" font-size="8.4595" lengthAdjust="spacing" textLength="53.7781" x="838.395" y="456.5069">Model Specs</text></g><!--entity Results Models--><g id="elem_Results Models"><rect fill="#F1F1F1" height="27.9748" rx="1.5106" ry="1.5106" style="stroke:#181818;stroke-width:0.3021243115656963;" width="88.2203" x="727.5153" y="491.5563"/><rect fill="#F1F1F1" height="6.0425" style="stroke:#181818;stroke-width:0.3021243115656963;" width="9.0637" x="803.6507" y="494.5775"/><rect fill="#F1F1F1" height="1.2085" style="stroke:#181818;stroke-width:0.3021243115656963;" width="2.417" x="802.4422" y="495.786"/><rect fill="#F1F1F1" height="1.2085" style="stroke:#181818;stroke-width:0.3021243115656963;" width="2.417" x="802.4422" y="498.203"/><text fill="#000000" font-family="sans-serif" font-size="8.4595" lengthAdjust="spacing" textLength="64.0504" x="736.5791" y="511.4935">Results Models</text></g><!--entity Mongo Client (Motor)--><g id="elem_Mongo Client (Motor)"><rect fill="#F1F1F1" height="27.9748" rx="1.5106" ry="1.5106" style="stroke:#181818;stroke-width:0.3021243115656963;" width="111.786" x="741.1109" y="243.2101"/><rect fill="#F1F1F1" height="6.0425" style="stroke:#181818;stroke-width:0.3021243115656963;" width="9.0637" x="840.812" y="246.2313"/><rect fill="#F1F1F1" height="1.2085" style="stroke:#181818;stroke-width:0.3021243115656963;" width="2.417" x="839.6035" y="247.4398"/><rect fill="#F1F1F1" height="1.2085" style="stroke:#181818;stroke-width:0.3021243115656963;" width="2.417" x="839.6035" y="249.8568"/><text fill="#000000" font-family="sans-serif" font-size="8.4595" lengthAdjust="spacing" textLength="87.6161" x="750.1747" y="263.1473">Mongo Client (Motor)</text></g><!--entity Collections: scenarios,\nmodels, results--><g id="elem_Collections: scenarios,\nmodels, results"><rect fill="#F1F1F1" height="37.8222" rx="1.5106" ry="1.5106" style="stroke:#181818;stroke-width:0.3021243115656963;" width="118.4327" x="611.4996" y="238.074"/><rect fill="#F1F1F1" height="6.0425" style="stroke:#181818;stroke-width:0.3021243115656963;" width="9.0637" x="717.8474" y="241.0952"/><rect fill="#F1F1F1" height="1.2085" style="stroke:#181818;stroke-width:0.3021243115656963;" width="2.417" x="716.6389" y="242.3037"/><rect fill="#F1F1F1" height="1.2085" style="stroke:#181818;stroke-width:0.3021243115656963;" width="2.417" x="716.6389" y="244.7207"/><text fill="#000000" font-family="sans-serif" font-size="8.4595" lengthAdjust="spacing" textLength="94.2628" x="620.5633" y="258.0112">Collections: scenarios,</text><text fill="#000000" font-family="sans-serif" font-size="8.4595" lengthAdjust="spacing" textLength="64.0504" x="620.5633" y="267.8586">models, results</text></g><polygon fill="#181818" points="1630.2892,321.4124,1635.0433,317.8326,1631.7566,318.7715,1630.8177,315.4848,1630.2892,321.4124" style="stroke:#181818;stroke-width:0.6042486231313926;"/><path d="M1241.9453,36.5324 C1313.1405,56.356 1547.9178,132.4128 1636.9095,293.967 C1641.0559,301.4942 1639.7904,305.2064 1636.9095,313.3029 C1636.1256,315.5059 1635.0273,316.5208 1633.8432,317.4971 C1633.2512,317.9853 1632.6378,318.4638 1632.0315,319.0764 C1631.7283,319.3827 1631.427,319.7226 1631.131,320.1139 C1630.983,320.3096 1630.8364,320.5181 1630.6915,320.7417 C1630.6191,320.8536 1630.5471,320.9692 1630.4757,321.0888 C1630.4399,321.1487 1630.4043,321.2095 1630.3688,321.2714 C1630.3511,321.3023 1630.3334,321.3336 1630.3157,321.365 C1630.3069,321.3808 1632.0589,318.2274 1632.0501,318.2433 " fill="none" style="stroke:#181818;stroke-width:0.6042486231313926;"/><text fill="#000000" font-family="sans-serif" font-size="7.8552" lengthAdjust="spacing" textLength="94.2628" x="1557.753" y="190.6809">Login (OAuth or API Key)</text><polygon fill="#181818" points="1420.9654,449.1385,1426.5368,451.2303,1423.9814,448.9602,1426.2515,446.4047,1420.9654,449.1385" style="stroke:#181818;stroke-width:0.6042486231313926;"/><path d="M1609.6889,384.0129 C1609.3108,384.4267 1608.9179,384.8258 1608.5098,385.2085 C1556.2028,434.2535 1472.3388,446.1008 1424.5846,448.9245 " fill="none" style="stroke:#181818;stroke-width:0.6042486231313926;"/><text fill="#000000" font-family="sans-serif" font-size="7.8552" lengthAdjust="spacing" textLength="43.5059" x="1595.2164" y="403.9806">Verify user,</text><text fill="#000000" font-family="sans-serif" font-size="7.8552" lengthAdjust="spacing" textLength="37.4634" x="1598.2376" y="413.1246">load roles</text><polygon fill="#181818" points="20.7055,103.711,24.3977,99.0437,21.4561,100.7845,19.7153,97.8428,20.7055,103.711" style="stroke:#181818;stroke-width:0.6042486231313926;"/><path d="M1200.626,31.2955 C1046.4544,32.7115 76.1363,43.2524 31.4209,84.5948 C27.1014,88.5885 24.1308,93.5727 22.15,99.0184 C21.6548,100.3798 21.2214,101.7701 20.8443,103.181 C20.7972,103.3574 21.6516,100.0222 21.6062,100.1992 " fill="none" style="stroke:#181818;stroke-width:0.6042486231313926;"/><text fill="#000000" font-family="sans-serif" font-size="7.8552" lengthAdjust="spacing" textLength="63.4461" x="93.0543" y="77.3842">Use modeling UI</text><polygon fill="#181818" points="586.1209,210.3731,585.1307,204.5049,584.4516,207.8549,581.1016,207.1757,586.1209,210.3731" style="stroke:#181818;stroke-width:0.6042486231313926;"/><path d="M581.3233,204.5556 C581.3751,204.6057 581.4267,204.6559 581.4781,204.7063 C582.3004,205.5125 583.0767,206.3619 583.8095,207.2485 C584.5423,208.1351 585.2315,209.0588 585.8797,210.0136 C585.9607,210.1329 584.038,207.2309 584.1177,207.3512 " fill="none" style="stroke:#181818;stroke-width:0.6042486231313926;"/><text fill="#000000" font-family="sans-serif" font-size="7.8552" lengthAdjust="spacing" textLength="42.2974" x="567.0873" y="186.149">HTTP /api/*</text><text fill="#000000" font-family="sans-serif" font-size="7.8552" lengthAdjust="spacing" textLength="42.9017" x="566.7852" y="195.293">(JWT token)</text><polygon fill="#181818" points="1609.6914,322.5735,1607.6054,316.9999,1607.5744,320.4179,1604.1564,320.3869,1609.6914,322.5735" style="stroke:#181818;stroke-width:0.6042486231313926;"/><path d="M1266.6648,289.2417 C1273.3445,289.2302 1279.964,289.2205 1286.5167,289.2127 C1299.6221,289.197 1312.4602,289.1891 1324.9772,289.1906 C1350.0112,289.1938 1373.7611,289.2352 1395.7974,289.3296 C1483.9428,289.7075 1544.6716,290.935 1550.502,293.967 C1559.8915,298.8498 1555.4625,307.6344 1564.3997,313.3029 C1581.2357,323.9814 1593.4681,308.3749 1608.5098,321.4603 C1608.7435,321.6636 1608.9722,321.872 1609.196,322.0854 C1609.3079,322.192 1609.4186,322.2999 1609.5281,322.409 C1609.5828,322.4635 1607.0969,319.9316 1607.1511,319.9868 " fill="none" style="stroke:#181818;stroke-width:0.6042486231313926;"/><text fill="#000000" font-family="sans-serif" font-size="7.8552" lengthAdjust="spacing" textLength="58.0079" x="1571.6507" y="301.8626">Validate token,</text><text fill="#000000" font-family="sans-serif" font-size="7.8552" lengthAdjust="spacing" textLength="71.3013" x="1565.0039" y="311.0066">check permissions</text><polygon fill="#181818" points="1353.5721,436.703,1349.6436,432.2328,1350.8279,435.4392,1347.6215,436.6236,1353.5721,436.703" style="stroke:#181818;stroke-width:0.6042486231313926;"/><path d="M1266.5945,323.6294 C1266.7484,323.7751 1266.8998,323.921 1267.0486,324.067 C1267.3463,324.3592 1267.6338,324.6522 1267.9116,324.9461 C1269.0226,326.1214 1269.9772,327.31 1270.7962,328.5115 C1272.4341,330.9143 1273.5298,333.3683 1274.2504,335.8698 C1275.6915,340.8727 1275.6321,346.0654 1275.4097,351.4177 C1274.965,362.1225 1273.8684,373.4662 1282.8198,385.2085 C1300.9316,408.9671 1327.2041,424.5596 1350.2791,435.1865 " fill="none" style="stroke:#181818;stroke-width:0.6042486231313926;"/><text fill="#000000" font-family="sans-serif" font-size="7.8552" lengthAdjust="spacing" textLength="62.8419" x="1283.4241" y="348.3898">Store scenarios,</text><text fill="#000000" font-family="sans-serif" font-size="7.8552" lengthAdjust="spacing" textLength="61.6334" x="1284.0283" y="357.5337">models, results,</text><text fill="#000000" font-family="sans-serif" font-size="7.8552" lengthAdjust="spacing" textLength="37.4634" x="1296.1133" y="366.6777">audit logs</text><polygon fill="#181818" points="1511.1321,340.6876,1508.041,335.6022,1508.6495,338.9657,1505.286,339.5743,1511.1321,340.6876" style="stroke:#181818;stroke-width:0.6042486231313926;"/><path d="M1269.3334,291.7106 C1274.2512,291.7235 1279.0833,291.7375 1283.8238,291.7527 C1359.6727,291.9963 1412.0991,292.5508 1417.5673,293.967 C1453.1924,303.1932 1486.9296,323.9013 1508.153,338.6213 " fill="none" style="stroke:#181818;stroke-width:0.6042486231313926;"/><text fill="#000000" font-family="sans-serif" font-size="7.8552" lengthAdjust="spacing" textLength="38.6719" x="1488.5665" y="301.8626">HTTP calls</text><text fill="#000000" font-family="sans-serif" font-size="7.8552" lengthAdjust="spacing" textLength="82.7821" x="1466.5114" y="311.0066">(JWT token from user)</text><polygon fill="#181818" points="1380.543,340.7896,1377.4981,335.6764,1378.0762,339.0453,1374.7072,339.6234,1380.543,340.7896" style="stroke:#181818;stroke-width:0.6042486231313926;"/><path d="M1266.5438,293.0052 C1267.0179,293.0165 1267.484,293.0279 1267.9423,293.0395 C1268.8587,293.0625 1269.7434,293.086 1270.5956,293.1099 C1272.3001,293.1577 1273.875,293.2073 1275.3154,293.2586 C1281.0773,293.4639 1284.6886,293.698 1285.8411,293.967 C1322.1521,302.4413 1356.3938,323.7138 1377.5828,338.6965 " fill="none" style="stroke:#181818;stroke-width:0.6042486231313926;"/><text fill="#000000" font-family="sans-serif" font-size="7.8552" lengthAdjust="spacing" textLength="79.1566" x="1335.3895" y="306.3945">LLM for explanations</text><path d="M1623.0194,321.4131 C1623.041,321.3472 1623.0627,321.2813 1623.0845,321.2155 C1623.4341,320.1625 1623.8137,319.1176 1624.226,318.0867 C1625.0505,316.0248 1626.0055,314.0185 1627.1106,312.114 C1629.3209,308.3049 1632.1318,304.9026 1635.701,302.2754 C1666.7373,279.4303 1773.1548,288.4326 1809.1204,302.2754 C1821.1546,306.9072 1832.2454,315.32 1841.4359,324.0696 " fill="none" style="stroke:#181818;stroke-width:0.6042486231313926;stroke-dasharray:7.0,7.0;"/><path d="M597.9555,202.3527 C598.0286,202.1825 598.1026,202.0129 598.1776,201.8438 C598.3276,201.5057 598.4816,201.17 598.6396,200.8366 C601.1682,195.5032 604.7341,190.798 609.6869,187.3171 C639.1838,166.5858 1224.7196,175.1273 1258.6499,187.3171 C1282.9292,196.0396 1305.2062,215.0808 1320.7986,231.0737 " fill="none" style="stroke:#181818;stroke-width:0.6042486231313926;stroke-dasharray:7.0,7.0;"/><!--SRC=[VLPDSzis4BtpLsnrYTZ6IPkUoaDdICckNLiJZ-MuXyQJMPCGXHG4E01eHPF9V-_YWnJ9U7BHZ1QBVOkt3mzy1IibBNB9D5GSQuqDx9I6l7f6kJulOACg9hYi8JU66ulImlB0xHvk1LhAR23lx3vDafzQZNM38F2eEWkcOPICYIbHC6Zm2_psnxjVuS0hkqyIB2s1B3uOfir7kSo5W3ibc4aNW0PyE4aaGSDYWiEavILQhgHFxDVS4dnD0FxzIwcQyDwxoACB_FtFFMoeaPff_p-_lO9hTeG75Bn2wk8n-TP3_U3G7cwJUv2GVA69E2OhM3vq37vFOyQdYtEV1D1Y-H_1mkA1iuDPn2YrSAaQ1Yxus4Us9PEekOAYuw8AdVg5QwaEWbLKvVnBAvGUBVaUfsNkcEc4DR16itzIgAkmyit_JdlQxb6podCwwippk2LI62n3HZeKnvQ_-MpW5-1qR5sobjBC2O18x9af2CGJSu764jy3DSLtr7Z0Aof8mWjJdVQouLKbs84w6VguPRhXD1ObORLdX7IY9EygRk56rNKVVEdeToHFqjS8oaJwpPlsE1HheWR6CKP382svJiTX7NWVGfwBCTbCF_EIZI7xYSUbwLH9TQnv4iVvula9Vhuq22KgQ2KutPKfCvCzynuzy4iTXijWPhhRjgmqtmbld3e7MAF59pHi1B5HibOGMeNbHf6YJdfRAI5OwSvgCXWczFgZz8Cnho6oFfOWOLOHnfs8ggyBifV1GjP5rA9RYfV-lH18jdLpiu5BPS953x6vAvmkOoJPvruNIVBAMnRWnA5WsKRSCt8zbYRUrk3ixC-fRsLEiPpIlMc1Cz_WKMaooNCR0sCPF33DTqVeg28n8XHMe9r_3grO1RjeK2FSO4-PIu5Ut_3XokqQx8nsFlKNs1izEMYQX9snHk5gNDxVty9RSeMtFnF5pcQjebsfAzOxW2C4IdTBax3jXSD78sPXEvt6vqCxN7CphaZTSHAQEaWmpgT6TNjkWd_zG34KGUyKGjNpujU5Oz_CZXuHQ36UcnurOSR7TcmtVXxfhA8Jrfw4DQeJ9PVvDVVQZdp5ltl4XkRrteBQJUWYaKVZdagDubXgPPmQ0GbtaoVUzhP8JytGfEaZha_eRqeVT082SpIMDOdhtRKnRyQVWJRGI_WSvsP2jT6yCaeuWrMdtVEQmGebb9gv4Gz3yHcvH45mMVZOAEbKEyhgQ4f-ERnueOPxva19SGmRguRB32uw-cp0aepLd1h-7m00]--></g></svg>