<?xml version="1.0" encoding="us-ascii" standalone="no"?><svg xmlns="http://www.w3.org/2000/svg" xmlns:xlink="http://www.w3.org/1999/xlink" contentStyleType="text/css" height="2652px" preserveAspectRatio="none" style="width:947px;height:2652px;background:#FFFFFF;" version="1.1" viewBox="0 0 947 2652" width="947px" zoomAndPan="magnify"><defs/><g><text fill="#000000" font-family="sans-serif" font-size="14" font-weight="bold" lengthAdjust="spacing" textLength="293" x="323.25" y="27.9951">Role Request and Approval Workflow</text><rect fill="#FFFFFF" height="206.1953" style="stroke:#181818;stroke-width:1.0;" width="10" x="239" y="192.8594"/><rect fill="#FFFFFF" height="440.5234" style="stroke:#181818;stroke-width:1.0;" width="10" x="239" y="471.3203"/><rect fill="#FFFFFF" height="160.7969" style="stroke:#181818;stroke-width:1.0;" width="10" x="239" y="984.1094"/><rect fill="#FFFFFF" height="206.1953" style="stroke:#181818;stroke-width:1.0;" width="10" x="239" y="1174.0391"/><rect fill="#FFFFFF" height="410.125" style="stroke:#181818;stroke-width:1.0;" width="10" x="239" y="1433.5"/><rect fill="#FFFFFF" height="307.5938" style="stroke:#181818;stroke-width:1.0;" width="10" x="239" y="1931.8281"/><rect fill="#FFFFFF" height="191.0625" style="stroke:#181818;stroke-width:1.0;" width="10" x="239" y="2362.9531"/><rect fill="#FFFFFF" height="117.6641" style="stroke:#181818;stroke-width:1.0;" width="10" x="496" y="221.9922"/><rect fill="#FFFFFF" height="188.9297" style="stroke:#181818;stroke-width:1.0;" width="10" x="496" y="678.6484"/><rect fill="#FFFFFF" height="87.3984" style="stroke:#181818;stroke-width:1.0;" width="10" x="496" y="1028.375"/><rect fill="#FFFFFF" height="87.3984" style="stroke:#181818;stroke-width:1.0;" width="10" x="496" y="1203.1719"/><rect fill="#FFFFFF" height="263.3281" style="stroke:#181818;stroke-width:1.0;" width="10" x="496" y="1551.1641"/><rect fill="#FFFFFF" height="205.0625" style="stroke:#181818;stroke-width:1.0;" width="10" x="496" y="2005.2266"/><rect fill="#FFFFFF" height="117.6641" style="stroke:#181818;stroke-width:1.0;" width="10" x="496" y="2392.0859"/><rect fill="#FFFFFF" height="29.1328" style="stroke:#181818;stroke-width:1.0;" width="10" x="697" y="281.3906"/><rect fill="#FFFFFF" height="29.1328" style="stroke:#181818;stroke-width:1.0;" width="10" x="697" y="765.0469"/><rect fill="#FFFFFF" height="29.1328" style="stroke:#181818;stroke-width:1.0;" width="10" x="697" y="1057.5078"/><rect fill="#FFFFFF" height="29.1328" style="stroke:#181818;stroke-width:1.0;" width="10" x="697" y="1232.3047"/><rect fill="#FFFFFF" height="29.1328" style="stroke:#181818;stroke-width:1.0;" width="10" x="697" y="1595.4297"/><rect fill="#FFFFFF" height="29.1328" style="stroke:#181818;stroke-width:1.0;" width="10" x="697" y="1653.6953"/><rect fill="#FFFFFF" height="29.1328" style="stroke:#181818;stroke-width:1.0;" width="10" x="697" y="1711.9609"/><rect fill="#FFFFFF" height="29.1328" style="stroke:#181818;stroke-width:1.0;" width="10" x="697" y="2049.4922"/><rect fill="#FFFFFF" height="29.1328" style="stroke:#181818;stroke-width:1.0;" width="10" x="697" y="2107.7578"/><rect fill="#FFFFFF" height="59.3984" style="stroke:#181818;stroke-width:1.0;" width="10" x="697" y="2421.2188"/><rect fill="none" height="896.4531" style="stroke:#000000;stroke-width:1.5;" width="920.5" x="10" y="1395.2344"/><line style="stroke:#181818;stroke-width:0.5;stroke-dasharray:5.0,5.0;" x1="56" x2="56" y1="118.5938" y2="2572.0156"/><line style="stroke:#181818;stroke-width:0.5;stroke-dasharray:5.0,5.0;" x1="243.5" x2="243.5" y1="118.5938" y2="2572.0156"/><line style="stroke:#181818;stroke-width:0.5;stroke-dasharray:5.0,5.0;" x1="500.5" x2="500.5" y1="118.5938" y2="2572.0156"/><line style="stroke:#181818;stroke-width:0.5;stroke-dasharray:5.0,5.0;" x1="701.5" x2="701.5" y1="118.5938" y2="2572.0156"/><line style="stroke:#181818;stroke-width:0.5;stroke-dasharray:5.0,5.0;" x1="781.5" x2="781.5" y1="118.5938" y2="2572.0156"/><line style="stroke:#181818;stroke-width:0.5;stroke-dasharray:5.0,5.0;" x1="871.5" x2="871.5" y1="118.5938" y2="2572.0156"/><text fill="#000000" font-family="sans-serif" font-size="14" lengthAdjust="spacing" textLength="66" x="20" y="115.292">New User</text><ellipse cx="56" cy="50.7969" fill="#E2E2F0" rx="8" ry="8" style="stroke:#181818;stroke-width:0.5;"/><path d="M56,58.7969 L56,85.7969 M43,66.7969 L69,66.7969 M56,85.7969 L43,100.7969 M56,85.7969 L69,100.7969 " fill="none" style="stroke:#181818;stroke-width:0.5;"/><text fill="#000000" font-family="sans-serif" font-size="14" lengthAdjust="spacing" textLength="66" x="20" y="2584.0107">New User</text><ellipse cx="56" cy="2595.8125" fill="#E2E2F0" rx="8" ry="8" style="stroke:#181818;stroke-width:0.5;"/><path d="M56,2603.8125 L56,2630.8125 M43,2611.8125 L69,2611.8125 M56,2630.8125 L43,2645.8125 M56,2630.8125 L69,2645.8125 " fill="none" style="stroke:#181818;stroke-width:0.5;"/><rect fill="#E2E2F0" height="46.5938" rx="2.5" ry="2.5" style="stroke:#181818;stroke-width:0.5;" width="77" x="205.5" y="71"/><text fill="#000000" font-family="sans-serif" font-size="14" lengthAdjust="spacing" textLength="63" x="212.5" y="90.9951">Frontend</text><text fill="#000000" font-family="sans-serif" font-size="14" lengthAdjust="spacing" textLength="37" x="225.5" y="107.292">(Vue)</text><rect fill="#E2E2F0" height="46.5938" rx="2.5" ry="2.5" style="stroke:#181818;stroke-width:0.5;" width="77" x="205.5" y="2571.0156"/><text fill="#000000" font-family="sans-serif" font-size="14" lengthAdjust="spacing" textLength="63" x="212.5" y="2591.0107">Frontend</text><text fill="#000000" font-family="sans-serif" font-size="14" lengthAdjust="spacing" textLength="37" x="225.5" y="2607.3076">(Vue)</text><rect fill="#E2E2F0" height="46.5938" rx="2.5" ry="2.5" style="stroke:#181818;stroke-width:0.5;" width="75" x="463.5" y="71"/><text fill="#000000" font-family="sans-serif" font-size="14" lengthAdjust="spacing" textLength="61" x="470.5" y="90.9951">Backend</text><text fill="#000000" font-family="sans-serif" font-size="14" lengthAdjust="spacing" textLength="60" x="471" y="107.292">(FastAPI)</text><rect fill="#E2E2F0" height="46.5938" rx="2.5" ry="2.5" style="stroke:#181818;stroke-width:0.5;" width="75" x="463.5" y="2571.0156"/><text fill="#000000" font-family="sans-serif" font-size="14" lengthAdjust="spacing" textLength="61" x="470.5" y="2591.0107">Backend</text><text fill="#000000" font-family="sans-serif" font-size="14" lengthAdjust="spacing" textLength="60" x="471" y="2607.3076">(FastAPI)</text><text fill="#000000" font-family="sans-serif" font-size="14" lengthAdjust="spacing" textLength="69" x="664.5" y="115.292">MongoDB</text><path d="M684,66.2969 C684,56.2969 702,56.2969 702,56.2969 C702,56.2969 720,56.2969 720,66.2969 L720,92.2969 C720,102.2969 702,102.2969 702,102.2969 C702,102.2969 684,102.2969 684,92.2969 L684,66.2969 " fill="#E2E2F0" style="stroke:#181818;stroke-width:1.5;"/><path d="M684,66.2969 C684,76.2969 702,76.2969 702,76.2969 C702,76.2969 720,76.2969 720,66.2969 " fill="none" style="stroke:#181818;stroke-width:1.5;"/><text fill="#000000" font-family="sans-serif" font-size="14" lengthAdjust="spacing" textLength="69" x="664.5" y="2584.0107">MongoDB</text><path d="M684,2597.3125 C684,2587.3125 702,2587.3125 702,2587.3125 C702,2587.3125 720,2587.3125 720,2597.3125 L720,2623.3125 C720,2633.3125 702,2633.3125 702,2633.3125 C702,2633.3125 684,2633.3125 684,2623.3125 L684,2597.3125 " fill="#E2E2F0" style="stroke:#181818;stroke-width:1.5;"/><path d="M684,2597.3125 C684,2607.3125 702,2607.3125 702,2607.3125 C702,2607.3125 720,2607.3125 720,2597.3125 " fill="none" style="stroke:#181818;stroke-width:1.5;"/><rect fill="#E2E2F0" height="46.5938" rx="2.5" ry="2.5" style="stroke:#181818;stroke-width:0.5;" width="64" x="749.5" y="71"/><text fill="#000000" font-family="sans-serif" font-size="14" lengthAdjust="spacing" textLength="36" x="763.5" y="90.9951">Email</text><text fill="#000000" font-family="sans-serif" font-size="14" lengthAdjust="spacing" textLength="50" x="756.5" y="107.292">Service</text><rect fill="#E2E2F0" height="46.5938" rx="2.5" ry="2.5" style="stroke:#181818;stroke-width:0.5;" width="64" x="749.5" y="2571.0156"/><text fill="#000000" font-family="sans-serif" font-size="14" lengthAdjust="spacing" textLength="36" x="763.5" y="2591.0107">Email</text><text fill="#000000" font-family="sans-serif" font-size="14" lengthAdjust="spacing" textLength="50" x="756.5" y="2607.3076">Service</text><text fill="#000000" font-family="sans-serif" font-size="14" lengthAdjust="spacing" textLength="91" x="823.5" y="115.292">Administrator</text><ellipse cx="872" cy="50.7969" fill="#E2E2F0" rx="8" ry="8" style="stroke:#181818;stroke-width:0.5;"/><path d="M872,58.7969 L872,85.7969 M859,66.7969 L885,66.7969 M872,85.7969 L859,100.7969 M872,85.7969 L885,100.7969 " fill="none" style="stroke:#181818;stroke-width:0.5;"/><text fill="#000000" font-family="sans-serif" font-size="14" lengthAdjust="spacing" textLength="91" x="823.5" y="2584.0107">Administrator</text><ellipse cx="872" cy="2595.8125" fill="#E2E2F0" rx="8" ry="8" style="stroke:#181818;stroke-width:0.5;"/><path d="M872,2603.8125 L872,2630.8125 M859,2611.8125 L885,2611.8125 M872,2630.8125 L859,2645.8125 M872,2630.8125 L885,2645.8125 " fill="none" style="stroke:#181818;stroke-width:0.5;"/><rect fill="#FFFFFF" height="206.1953" style="stroke:#181818;stroke-width:1.0;" width="10" x="239" y="192.8594"/><rect fill="#FFFFFF" height="440.5234" style="stroke:#181818;stroke-width:1.0;" width="10" x="239" y="471.3203"/><rect fill="#FFFFFF" height="160.7969" style="stroke:#181818;stroke-width:1.0;" width="10" x="239" y="984.1094"/><rect fill="#FFFFFF" height="206.1953" style="stroke:#181818;stroke-width:1.0;" width="10" x="239" y="1174.0391"/><rect fill="#FFFFFF" height="410.125" style="stroke:#181818;stroke-width:1.0;" width="10" x="239" y="1433.5"/><rect fill="#FFFFFF" height="307.5938" style="stroke:#181818;stroke-width:1.0;" width="10" x="239" y="1931.8281"/><rect fill="#FFFFFF" height="191.0625" style="stroke:#181818;stroke-width:1.0;" width="10" x="239" y="2362.9531"/><rect fill="#FFFFFF" height="117.6641" style="stroke:#181818;stroke-width:1.0;" width="10" x="496" y="221.9922"/><rect fill="#FFFFFF" height="188.9297" style="stroke:#181818;stroke-width:1.0;" width="10" x="496" y="678.6484"/><rect fill="#FFFFFF" height="87.3984" style="stroke:#181818;stroke-width:1.0;" width="10" x="496" y="1028.375"/><rect fill="#FFFFFF" height="87.3984" style="stroke:#181818;stroke-width:1.0;" width="10" x="496" y="1203.1719"/><rect fill="#FFFFFF" height="263.3281" style="stroke:#181818;stroke-width:1.0;" width="10" x="496" y="1551.1641"/><rect fill="#FFFFFF" height="205.0625" style="stroke:#181818;stroke-width:1.0;" width="10" x="496" y="2005.2266"/><rect fill="#FFFFFF" height="117.6641" style="stroke:#181818;stroke-width:1.0;" width="10" x="496" y="2392.0859"/><rect fill="#FFFFFF" height="29.1328" style="stroke:#181818;stroke-width:1.0;" width="10" x="697" y="281.3906"/><rect fill="#FFFFFF" height="29.1328" style="stroke:#181818;stroke-width:1.0;" width="10" x="697" y="765.0469"/><rect fill="#FFFFFF" height="29.1328" style="stroke:#181818;stroke-width:1.0;" width="10" x="697" y="1057.5078"/><rect fill="#FFFFFF" height="29.1328" style="stroke:#181818;stroke-width:1.0;" width="10" x="697" y="1232.3047"/><rect fill="#FFFFFF" height="29.1328" style="stroke:#181818;stroke-width:1.0;" width="10" x="697" y="1595.4297"/><rect fill="#FFFFFF" height="29.1328" style="stroke:#181818;stroke-width:1.0;" width="10" x="697" y="1653.6953"/><rect fill="#FFFFFF" height="29.1328" style="stroke:#181818;stroke-width:1.0;" width="10" x="697" y="1711.9609"/><rect fill="#FFFFFF" height="29.1328" style="stroke:#181818;stroke-width:1.0;" width="10" x="697" y="2049.4922"/><rect fill="#FFFFFF" height="29.1328" style="stroke:#181818;stroke-width:1.0;" width="10" x="697" y="2107.7578"/><rect fill="#FFFFFF" height="59.3984" style="stroke:#181818;stroke-width:1.0;" width="10" x="697" y="2421.2188"/><rect fill="#EEEEEE" height="3" style="stroke:#EEEEEE;stroke-width:1.0;" width="940.5" x="0" y="149.1602"/><line style="stroke:#000000;stroke-width:1.0;" x1="0" x2="940.5" y1="149.1602" y2="149.1602"/><line style="stroke:#000000;stroke-width:1.0;" x1="0" x2="940.5" y1="152.1602" y2="152.1602"/><rect fill="#EEEEEE" height="23.1328" style="stroke:#000000;stroke-width:2.0;" width="184" x="378.25" y="138.5938"/><text fill="#000000" font-family="sans-serif" font-size="13" font-weight="bold" lengthAdjust="spacing" textLength="165" x="384.25" y="154.6606">New User Registration</text><polygon fill="#181818" points="227,188.8594,237,192.8594,227,196.8594,231,192.8594" style="stroke:#181818;stroke-width:1.0;"/><line style="stroke:#181818;stroke-width:1.0;" x1="56" x2="233" y1="192.8594" y2="192.8594"/><text fill="#000000" font-family="sans-serif" font-size="13" lengthAdjust="spacing" textLength="164" x="63" y="187.7935">Click "Sign in with Google"</text><polygon fill="#181818" points="484,217.9922,494,221.9922,484,225.9922,488,221.9922" style="stroke:#181818;stroke-width:1.0;"/><line style="stroke:#181818;stroke-width:1.0;" x1="249" x2="490" y1="221.9922" y2="221.9922"/><text fill="#000000" font-family="sans-serif" font-size="13" lengthAdjust="spacing" textLength="117" x="256" y="216.9263">Google OAuth flow</text><polygon fill="#181818" points="685,277.3906,695,281.3906,685,285.3906,689,281.3906" style="stroke:#181818;stroke-width:1.0;"/><line style="stroke:#181818;stroke-width:1.0;" x1="506" x2="691" y1="281.3906" y2="281.3906"/><text fill="#000000" font-family="sans-serif" font-size="13" lengthAdjust="spacing" textLength="104" x="513" y="246.0591">Create new user</text><text fill="#000000" font-family="sans-serif" font-size="13" lengthAdjust="spacing" textLength="170" x="513" y="261.1919">(status: pending_approval,</text><text fill="#000000" font-family="sans-serif" font-size="13" lengthAdjust="spacing" textLength="54" x="513" y="276.3247">roles: [])</text><polygon fill="#181818" points="517,306.5234,507,310.5234,517,314.5234,513,310.5234" style="stroke:#181818;stroke-width:1.0;"/><line style="stroke:#181818;stroke-width:1.0;" x1="511" x2="701" y1="310.5234" y2="310.5234"/><text fill="#000000" font-family="sans-serif" font-size="13" lengthAdjust="spacing" textLength="83" x="523" y="305.4575">User created</text><polygon fill="#181818" points="260,335.6563,250,339.6563,260,343.6563,256,339.6563" style="stroke:#181818;stroke-width:1.0;"/><line style="stroke:#181818;stroke-width:1.0;" x1="254" x2="500" y1="339.6563" y2="339.6563"/><text fill="#000000" font-family="sans-serif" font-size="13" lengthAdjust="spacing" textLength="141" x="266" y="334.5903">Return JWT + user info</text><polygon fill="#181818" points="67,395.0547,57,399.0547,67,403.0547,63,399.0547" style="stroke:#181818;stroke-width:1.0;"/><line style="stroke:#181818;stroke-width:1.0;" x1="61" x2="243" y1="399.0547" y2="399.0547"/><text fill="#000000" font-family="sans-serif" font-size="13" lengthAdjust="spacing" textLength="106" x="73" y="363.7231">Show dashboard</text><text fill="#000000" font-family="sans-serif" font-size="13" lengthAdjust="spacing" textLength="157" x="73" y="378.856">"Your account is pending</text><text fill="#000000" font-family="sans-serif" font-size="13" lengthAdjust="spacing" textLength="60" x="73" y="393.9888">approval"</text><rect fill="#EEEEEE" height="3" style="stroke:#EEEEEE;stroke-width:1.0;" width="940.5" x="0" y="427.6211"/><line style="stroke:#000000;stroke-width:1.0;" x1="0" x2="940.5" y1="427.6211" y2="427.6211"/><line style="stroke:#000000;stroke-width:1.0;" x1="0" x2="940.5" y1="430.6211" y2="430.6211"/><rect fill="#EEEEEE" height="23.1328" style="stroke:#000000;stroke-width:2.0;" width="171" x="384.75" y="417.0547"/><text fill="#000000" font-family="sans-serif" font-size="13" font-weight="bold" lengthAdjust="spacing" textLength="152" x="390.75" y="433.1216">User Requests Roles</text><polygon fill="#181818" points="227,467.3203,237,471.3203,227,475.3203,231,471.3203" style="stroke:#181818;stroke-width:1.0;"/><line style="stroke:#181818;stroke-width:1.0;" x1="56" x2="233" y1="471.3203" y2="471.3203"/><text fill="#000000" font-family="sans-serif" font-size="13" lengthAdjust="spacing" textLength="133" x="63" y="466.2544">Click "Request Roles"</text><polygon fill="#181818" points="67,496.4531,57,500.4531,67,504.4531,63,500.4531" style="stroke:#181818;stroke-width:1.0;"/><line style="stroke:#181818;stroke-width:1.0;" x1="61" x2="238" y1="500.4531" y2="500.4531"/><text fill="#000000" font-family="sans-serif" font-size="13" lengthAdjust="spacing" textLength="149" x="73" y="495.3872">Show role request form</text><polygon fill="#181818" points="227,601.25,237,605.25,227,609.25,231,605.25" style="stroke:#181818;stroke-width:1.0;"/><line style="stroke:#181818;stroke-width:1.0;" x1="56" x2="233" y1="605.25" y2="605.25"/><text fill="#000000" font-family="sans-serif" font-size="13" lengthAdjust="spacing" textLength="54" x="63" y="524.52">Fill form:</text><text fill="#000000" font-family="sans-serif" font-size="13" lengthAdjust="spacing" textLength="84" x="63" y="539.6528">- Select roles</text><text fill="#000000" font-family="sans-serif" font-size="13" lengthAdjust="spacing" textLength="67" x="63" y="554.7856">- Affiliation</text><text fill="#000000" font-family="sans-serif" font-size="13" lengthAdjust="spacing" textLength="101" x="63" y="569.9185">- Research area</text><text fill="#000000" font-family="sans-serif" font-size="13" lengthAdjust="spacing" textLength="81" x="63" y="585.0513">- Justification</text><text fill="#000000" font-family="sans-serif" font-size="13" lengthAdjust="spacing" textLength="145" x="63" y="600.1841">- References (optional)</text><polygon fill="#181818" points="227,630.3828,237,634.3828,227,638.3828,231,634.3828" style="stroke:#181818;stroke-width:1.0;"/><line style="stroke:#181818;stroke-width:1.0;" x1="56" x2="233" y1="634.3828" y2="634.3828"/><text fill="#000000" font-family="sans-serif" font-size="13" lengthAdjust="spacing" textLength="99" x="63" y="629.3169">Submit request</text><polygon fill="#181818" points="484,674.6484,494,678.6484,484,682.6484,488,678.6484" style="stroke:#181818;stroke-width:1.0;"/><line style="stroke:#181818;stroke-width:1.0;" x1="249" x2="490" y1="678.6484" y2="678.6484"/><text fill="#000000" font-family="sans-serif" font-size="13" lengthAdjust="spacing" textLength="150" x="256" y="658.4497">POST /api/role-requests</text><text fill="#000000" font-family="sans-serif" font-size="13" lengthAdjust="spacing" textLength="193" x="256" y="673.5825">{requested_roles, form_data}</text><line style="stroke:#181818;stroke-width:1.0;" x1="506" x2="548" y1="707.7813" y2="707.7813"/><line style="stroke:#181818;stroke-width:1.0;" x1="548" x2="548" y1="707.7813" y2="720.7813"/><line style="stroke:#181818;stroke-width:1.0;" x1="507" x2="548" y1="720.7813" y2="720.7813"/><polygon fill="#181818" points="517,716.7813,507,720.7813,517,724.7813,513,720.7813" style="stroke:#181818;stroke-width:1.0;"/><text fill="#000000" font-family="sans-serif" font-size="13" lengthAdjust="spacing" textLength="177" x="513" y="702.7153">Validate user authenticated</text><polygon fill="#181818" points="685,761.0469,695,765.0469,685,769.0469,689,765.0469" style="stroke:#181818;stroke-width:1.0;"/><line style="stroke:#181818;stroke-width:1.0;" x1="506" x2="691" y1="765.0469" y2="765.0469"/><text fill="#000000" font-family="sans-serif" font-size="13" lengthAdjust="spacing" textLength="127" x="513" y="744.8481">Create role_request</text><text fill="#000000" font-family="sans-serif" font-size="13" lengthAdjust="spacing" textLength="109" x="513" y="759.981">(status: pending)</text><polygon fill="#181818" points="517,790.1797,507,794.1797,517,798.1797,513,794.1797" style="stroke:#181818;stroke-width:1.0;"/><line style="stroke:#181818;stroke-width:1.0;" x1="511" x2="701" y1="794.1797" y2="794.1797"/><text fill="#000000" font-family="sans-serif" font-size="13" lengthAdjust="spacing" textLength="105" x="523" y="789.1138">Request created</text><polygon fill="#181818" points="769.5,834.4453,779.5,838.4453,769.5,842.4453,773.5,838.4453" style="stroke:#181818;stroke-width:1.0;"/><line style="stroke:#181818;stroke-width:1.0;" x1="506" x2="775.5" y1="838.4453" y2="838.4453"/><text fill="#000000" font-family="sans-serif" font-size="13" lengthAdjust="spacing" textLength="88" x="513" y="818.2466">Notify admins</text><text fill="#000000" font-family="sans-serif" font-size="13" lengthAdjust="spacing" textLength="118" x="513" y="833.3794">"New role request"</text><polygon fill="#181818" points="260,863.5781,250,867.5781,260,871.5781,256,867.5781" style="stroke:#181818;stroke-width:1.0;"/><line style="stroke:#181818;stroke-width:1.0;" x1="254" x2="500" y1="867.5781" y2="867.5781"/><text fill="#000000" font-family="sans-serif" font-size="13" lengthAdjust="spacing" textLength="131" x="266" y="862.5122">{request_id, status}</text><polygon fill="#181818" points="67,907.8438,57,911.8438,67,915.8438,63,911.8438" style="stroke:#181818;stroke-width:1.0;"/><line style="stroke:#181818;stroke-width:1.0;" x1="61" x2="243" y1="911.8438" y2="911.8438"/><text fill="#000000" font-family="sans-serif" font-size="13" lengthAdjust="spacing" textLength="131" x="73" y="891.645">"Request submitted!</text><text fill="#000000" font-family="sans-serif" font-size="13" lengthAdjust="spacing" textLength="156" x="73" y="906.7778">Wait for admin approval"</text><rect fill="#EEEEEE" height="3" style="stroke:#EEEEEE;stroke-width:1.0;" width="940.5" x="0" y="940.4102"/><line style="stroke:#000000;stroke-width:1.0;" x1="0" x2="940.5" y1="940.4102" y2="940.4102"/><line style="stroke:#000000;stroke-width:1.0;" x1="0" x2="940.5" y1="943.4102" y2="943.4102"/><rect fill="#EEEEEE" height="23.1328" style="stroke:#000000;stroke-width:2.0;" width="251" x="344.75" y="929.8438"/><text fill="#000000" font-family="sans-serif" font-size="13" font-weight="bold" lengthAdjust="spacing" textLength="232" x="350.75" y="945.9106">Administrator Reviews Request</text><polygon fill="#181818" points="260,980.1094,250,984.1094,260,988.1094,256,984.1094" style="stroke:#181818;stroke-width:1.0;"/><line style="stroke:#181818;stroke-width:1.0;" x1="254" x2="871" y1="984.1094" y2="984.1094"/><text fill="#000000" font-family="sans-serif" font-size="13" lengthAdjust="spacing" textLength="116" x="266" y="979.0435">Login (admin role)</text><polygon fill="#181818" points="484,1024.375,494,1028.375,484,1032.375,488,1028.375" style="stroke:#181818;stroke-width:1.0;"/><line style="stroke:#181818;stroke-width:1.0;" x1="249" x2="490" y1="1028.375" y2="1028.375"/><text fill="#000000" font-family="sans-serif" font-size="13" lengthAdjust="spacing" textLength="141" x="256" y="1008.1763">GET /api/role-requests</text><text fill="#000000" font-family="sans-serif" font-size="13" lengthAdjust="spacing" textLength="109" x="256" y="1023.3091">?status=pending</text><polygon fill="#181818" points="685,1053.5078,695,1057.5078,685,1061.5078,689,1057.5078" style="stroke:#181818;stroke-width:1.0;"/><line style="stroke:#181818;stroke-width:1.0;" x1="506" x2="691" y1="1057.5078" y2="1057.5078"/><text fill="#000000" font-family="sans-serif" font-size="13" lengthAdjust="spacing" textLength="153" x="513" y="1052.4419">Query pending requests</text><polygon fill="#181818" points="517,1082.6406,507,1086.6406,517,1090.6406,513,1086.6406" style="stroke:#181818;stroke-width:1.0;"/><line style="stroke:#181818;stroke-width:1.0;" x1="511" x2="701" y1="1086.6406" y2="1086.6406"/><text fill="#000000" font-family="sans-serif" font-size="13" lengthAdjust="spacing" textLength="98" x="523" y="1081.5747">List of requests</text><polygon fill="#181818" points="260,1111.7734,250,1115.7734,260,1119.7734,256,1115.7734" style="stroke:#181818;stroke-width:1.0;"/><line style="stroke:#181818;stroke-width:1.0;" x1="254" x2="500" y1="1115.7734" y2="1115.7734"/><text fill="#000000" font-family="sans-serif" font-size="13" lengthAdjust="spacing" textLength="102" x="266" y="1110.7075">Return requests</text><polygon fill="#181818" points="860,1140.9063,870,1144.9063,860,1148.9063,864,1144.9063" style="stroke:#181818;stroke-width:1.0;"/><line style="stroke:#181818;stroke-width:1.0;" x1="244" x2="866" y1="1144.9063" y2="1144.9063"/><text fill="#000000" font-family="sans-serif" font-size="13" lengthAdjust="spacing" textLength="171" x="251" y="1139.8403">Show "5 pending requests"</text><polygon fill="#181818" points="260,1170.0391,250,1174.0391,260,1178.0391,256,1174.0391" style="stroke:#181818;stroke-width:1.0;"/><line style="stroke:#181818;stroke-width:1.0;" x1="254" x2="871" y1="1174.0391" y2="1174.0391"/><text fill="#000000" font-family="sans-serif" font-size="13" lengthAdjust="spacing" textLength="102" x="266" y="1168.9731">Click on request</text><polygon fill="#181818" points="484,1199.1719,494,1203.1719,484,1207.1719,488,1203.1719" style="stroke:#181818;stroke-width:1.0;"/><line style="stroke:#181818;stroke-width:1.0;" x1="249" x2="490" y1="1203.1719" y2="1203.1719"/><text fill="#000000" font-family="sans-serif" font-size="13" lengthAdjust="spacing" textLength="172" x="256" y="1198.106">GET /api/role-requests/{id}</text><polygon fill="#181818" points="685,1228.3047,695,1232.3047,685,1236.3047,689,1232.3047" style="stroke:#181818;stroke-width:1.0;"/><line style="stroke:#181818;stroke-width:1.0;" x1="506" x2="691" y1="1232.3047" y2="1232.3047"/><text fill="#000000" font-family="sans-serif" font-size="13" lengthAdjust="spacing" textLength="122" x="513" y="1227.2388">Get request details</text><polygon fill="#181818" points="517,1257.4375,507,1261.4375,517,1265.4375,513,1261.4375" style="stroke:#181818;stroke-width:1.0;"/><line style="stroke:#181818;stroke-width:1.0;" x1="511" x2="701" y1="1261.4375" y2="1261.4375"/><text fill="#000000" font-family="sans-serif" font-size="13" lengthAdjust="spacing" textLength="126" x="523" y="1256.3716">Request + user info</text><polygon fill="#181818" points="260,1286.5703,250,1290.5703,260,1294.5703,256,1290.5703" style="stroke:#181818;stroke-width:1.0;"/><line style="stroke:#181818;stroke-width:1.0;" x1="254" x2="500" y1="1290.5703" y2="1290.5703"/><text fill="#000000" font-family="sans-serif" font-size="13" lengthAdjust="spacing" textLength="88" x="266" y="1285.5044">Return details</text><polygon fill="#181818" points="860,1376.2344,870,1380.2344,860,1384.2344,864,1380.2344" style="stroke:#181818;stroke-width:1.0;"/><line style="stroke:#181818;stroke-width:1.0;" x1="244" x2="866" y1="1380.2344" y2="1380.2344"/><text fill="#000000" font-family="sans-serif" font-size="13" lengthAdjust="spacing" textLength="38" x="251" y="1314.6372">Show:</text><text fill="#000000" font-family="sans-serif" font-size="13" lengthAdjust="spacing" textLength="82" x="251" y="1329.77">- User profile</text><text fill="#000000" font-family="sans-serif" font-size="13" lengthAdjust="spacing" textLength="112" x="251" y="1344.9028">- Requested roles</text><text fill="#000000" font-family="sans-serif" font-size="13" lengthAdjust="spacing" textLength="81" x="251" y="1360.0356">- Justification</text><text fill="#000000" font-family="sans-serif" font-size="13" lengthAdjust="spacing" textLength="75" x="251" y="1375.1685">- Form data</text><path d="M10,1395.2344 L74,1395.2344 L74,1402.3672 L64,1412.3672 L10,1412.3672 L10,1395.2344 " fill="#EEEEEE" style="stroke:#000000;stroke-width:1.5;"/><rect fill="none" height="896.4531" style="stroke:#000000;stroke-width:1.5;" width="920.5" x="10" y="1395.2344"/><text fill="#000000" font-family="sans-serif" font-size="13" font-weight="bold" lengthAdjust="spacing" textLength="19" x="25" y="1408.3013">alt</text><text fill="#000000" font-family="sans-serif" font-size="11" font-weight="bold" lengthAdjust="spacing" textLength="118" x="89" y="1407.4448">[Approve Request]</text><polygon fill="#181818" points="260,1429.5,250,1433.5,260,1437.5,256,1433.5" style="stroke:#181818;stroke-width:1.0;"/><line style="stroke:#181818;stroke-width:1.0;" x1="254" x2="871" y1="1433.5" y2="1433.5"/><text fill="#000000" font-family="sans-serif" font-size="13" lengthAdjust="spacing" textLength="96" x="266" y="1428.4341">Click "Approve"</text><polygon fill="#181818" points="260,1473.7656,250,1477.7656,260,1481.7656,256,1477.7656" style="stroke:#181818;stroke-width:1.0;"/><line style="stroke:#181818;stroke-width:1.0;" x1="254" x2="871" y1="1477.7656" y2="1477.7656"/><text fill="#000000" font-family="sans-serif" font-size="13" lengthAdjust="spacing" textLength="105" x="266" y="1457.5669">Optionally select</text><text fill="#000000" font-family="sans-serif" font-size="13" lengthAdjust="spacing" textLength="94" x="266" y="1472.6997">subset of roles</text><polygon fill="#181818" points="260,1502.8984,250,1506.8984,260,1510.8984,256,1506.8984" style="stroke:#181818;stroke-width:1.0;"/><line style="stroke:#181818;stroke-width:1.0;" x1="254" x2="871" y1="1506.8984" y2="1506.8984"/><text fill="#000000" font-family="sans-serif" font-size="13" lengthAdjust="spacing" textLength="130" x="266" y="1501.8325">Add notes (optional)</text><polygon fill="#181818" points="484,1547.1641,494,1551.1641,484,1555.1641,488,1551.1641" style="stroke:#181818;stroke-width:1.0;"/><line style="stroke:#181818;stroke-width:1.0;" x1="249" x2="490" y1="1551.1641" y2="1551.1641"/><text fill="#000000" font-family="sans-serif" font-size="13" lengthAdjust="spacing" textLength="228" x="256" y="1530.9653">PUT /api/role-requests/{id}/approve</text><text fill="#000000" font-family="sans-serif" font-size="13" lengthAdjust="spacing" textLength="158" x="256" y="1546.0981">{approved_roles, notes}</text><polygon fill="#181818" points="685,1591.4297,695,1595.4297,685,1599.4297,689,1595.4297" style="stroke:#181818;stroke-width:1.0;"/><line style="stroke:#181818;stroke-width:1.0;" x1="506" x2="691" y1="1595.4297" y2="1595.4297"/><text fill="#000000" font-family="sans-serif" font-size="13" lengthAdjust="spacing" textLength="100" x="513" y="1575.231">Update request</text><text fill="#000000" font-family="sans-serif" font-size="13" lengthAdjust="spacing" textLength="118" x="513" y="1590.3638">(status: approved)</text><polygon fill="#181818" points="517,1620.5625,507,1624.5625,517,1628.5625,513,1624.5625" style="stroke:#181818;stroke-width:1.0;"/><line style="stroke:#181818;stroke-width:1.0;" x1="511" x2="701" y1="1624.5625" y2="1624.5625"/><text fill="#000000" font-family="sans-serif" font-size="13" lengthAdjust="spacing" textLength="55" x="523" y="1619.4966">Updated</text><polygon fill="#181818" points="685,1649.6953,695,1653.6953,685,1657.6953,689,1653.6953" style="stroke:#181818;stroke-width:1.0;"/><line style="stroke:#181818;stroke-width:1.0;" x1="506" x2="691" y1="1653.6953" y2="1653.6953"/><text fill="#000000" font-family="sans-serif" font-size="13" lengthAdjust="spacing" textLength="114" x="513" y="1648.6294">Update user.roles</text><polygon fill="#181818" points="517,1678.8281,507,1682.8281,517,1686.8281,513,1682.8281" style="stroke:#181818;stroke-width:1.0;"/><line style="stroke:#181818;stroke-width:1.0;" x1="511" x2="701" y1="1682.8281" y2="1682.8281"/><text fill="#000000" font-family="sans-serif" font-size="13" lengthAdjust="spacing" textLength="87" x="523" y="1677.7622">User updated</text><polygon fill="#181818" points="685,1707.9609,695,1711.9609,685,1715.9609,689,1711.9609" style="stroke:#181818;stroke-width:1.0;"/><line style="stroke:#181818;stroke-width:1.0;" x1="506" x2="691" y1="1711.9609" y2="1711.9609"/><text fill="#000000" font-family="sans-serif" font-size="13" lengthAdjust="spacing" textLength="96" x="513" y="1706.895">Log audit entry</text><polygon fill="#181818" points="517,1737.0938,507,1741.0938,517,1745.0938,513,1741.0938" style="stroke:#181818;stroke-width:1.0;"/><line style="stroke:#181818;stroke-width:1.0;" x1="511" x2="701" y1="1741.0938" y2="1741.0938"/><text fill="#000000" font-family="sans-serif" font-size="13" lengthAdjust="spacing" textLength="47" x="523" y="1736.0278">Logged</text><polygon fill="#181818" points="769.5,1781.3594,779.5,1785.3594,769.5,1789.3594,773.5,1785.3594" style="stroke:#181818;stroke-width:1.0;"/><line style="stroke:#181818;stroke-width:1.0;" x1="506" x2="775.5" y1="1785.3594" y2="1785.3594"/><text fill="#000000" font-family="sans-serif" font-size="13" lengthAdjust="spacing" textLength="69" x="513" y="1765.1606">Notify user</text><text fill="#000000" font-family="sans-serif" font-size="13" lengthAdjust="spacing" textLength="131" x="513" y="1780.2935">"Request approved!"</text><polygon fill="#181818" points="260,1810.4922,250,1814.4922,260,1818.4922,256,1814.4922" style="stroke:#181818;stroke-width:1.0;"/><line style="stroke:#181818;stroke-width:1.0;" x1="254" x2="500" y1="1814.4922" y2="1814.4922"/><text fill="#000000" font-family="sans-serif" font-size="13" lengthAdjust="spacing" textLength="53" x="266" y="1809.4263">Success</text><polygon fill="#181818" points="860,1839.625,870,1843.625,860,1847.625,864,1843.625" style="stroke:#181818;stroke-width:1.0;"/><line style="stroke:#181818;stroke-width:1.0;" x1="244" x2="866" y1="1843.625" y2="1843.625"/><text fill="#000000" font-family="sans-serif" font-size="13" lengthAdjust="spacing" textLength="126" x="251" y="1838.5591">"Request approved"</text><polygon fill="#181818" points="67,1883.8906,57,1887.8906,67,1891.8906,63,1887.8906" style="stroke:#181818;stroke-width:1.0;"/><line style="stroke:#181818;stroke-width:1.0;" x1="61" x2="780.5" y1="1887.8906" y2="1887.8906"/><text fill="#000000" font-family="sans-serif" font-size="13" lengthAdjust="spacing" textLength="139" x="73" y="1867.6919">"Your roles have been</text><text fill="#000000" font-family="sans-serif" font-size="13" lengthAdjust="spacing" textLength="186" x="73" y="1882.8247">approved: [Curator, Analyst]"</text><line style="stroke:#000000;stroke-width:1.0;stroke-dasharray:2.0,2.0;" x1="10" x2="930.5" y1="1896.8906" y2="1896.8906"/><text fill="#000000" font-family="sans-serif" font-size="11" font-weight="bold" lengthAdjust="spacing" textLength="106" x="15" y="1907.1011">[Reject Request]</text><polygon fill="#181818" points="260,1927.8281,250,1931.8281,260,1935.8281,256,1931.8281" style="stroke:#181818;stroke-width:1.0;"/><line style="stroke:#181818;stroke-width:1.0;" x1="254" x2="871" y1="1931.8281" y2="1931.8281"/><text fill="#000000" font-family="sans-serif" font-size="13" lengthAdjust="spacing" textLength="82" x="266" y="1926.7622">Click "Reject"</text><polygon fill="#181818" points="260,1956.9609,250,1960.9609,260,1964.9609,256,1960.9609" style="stroke:#181818;stroke-width:1.0;"/><line style="stroke:#181818;stroke-width:1.0;" x1="254" x2="871" y1="1960.9609" y2="1960.9609"/><text fill="#000000" font-family="sans-serif" font-size="13" lengthAdjust="spacing" textLength="82" x="266" y="1955.895">Enter reason</text><polygon fill="#181818" points="484,2001.2266,494,2005.2266,484,2009.2266,488,2005.2266" style="stroke:#181818;stroke-width:1.0;"/><line style="stroke:#181818;stroke-width:1.0;" x1="249" x2="490" y1="2005.2266" y2="2005.2266"/><text fill="#000000" font-family="sans-serif" font-size="13" lengthAdjust="spacing" textLength="212" x="256" y="1985.0278">PUT /api/role-requests/{id}/reject</text><text fill="#000000" font-family="sans-serif" font-size="13" lengthAdjust="spacing" textLength="60" x="256" y="2000.1606">{reason}</text><polygon fill="#181818" points="685,2045.4922,695,2049.4922,685,2053.4922,689,2049.4922" style="stroke:#181818;stroke-width:1.0;"/><line style="stroke:#181818;stroke-width:1.0;" x1="506" x2="691" y1="2049.4922" y2="2049.4922"/><text fill="#000000" font-family="sans-serif" font-size="13" lengthAdjust="spacing" textLength="100" x="513" y="2029.2935">Update request</text><text fill="#000000" font-family="sans-serif" font-size="13" lengthAdjust="spacing" textLength="110" x="513" y="2044.4263">(status: rejected)</text><polygon fill="#181818" points="517,2074.625,507,2078.625,517,2082.625,513,2078.625" style="stroke:#181818;stroke-width:1.0;"/><line style="stroke:#181818;stroke-width:1.0;" x1="511" x2="701" y1="2078.625" y2="2078.625"/><text fill="#000000" font-family="sans-serif" font-size="13" lengthAdjust="spacing" textLength="55" x="523" y="2073.5591">Updated</text><polygon fill="#181818" points="685,2103.7578,695,2107.7578,685,2111.7578,689,2107.7578" style="stroke:#181818;stroke-width:1.0;"/><line style="stroke:#181818;stroke-width:1.0;" x1="506" x2="691" y1="2107.7578" y2="2107.7578"/><text fill="#000000" font-family="sans-serif" font-size="13" lengthAdjust="spacing" textLength="96" x="513" y="2102.6919">Log audit entry</text><polygon fill="#181818" points="517,2132.8906,507,2136.8906,517,2140.8906,513,2136.8906" style="stroke:#181818;stroke-width:1.0;"/><line style="stroke:#181818;stroke-width:1.0;" x1="511" x2="701" y1="2136.8906" y2="2136.8906"/><text fill="#000000" font-family="sans-serif" font-size="13" lengthAdjust="spacing" textLength="47" x="523" y="2131.8247">Logged</text><polygon fill="#181818" points="769.5,2177.1563,779.5,2181.1563,769.5,2185.1563,773.5,2181.1563" style="stroke:#181818;stroke-width:1.0;"/><line style="stroke:#181818;stroke-width:1.0;" x1="506" x2="775.5" y1="2181.1563" y2="2181.1563"/><text fill="#000000" font-family="sans-serif" font-size="13" lengthAdjust="spacing" textLength="69" x="513" y="2160.9575">Notify user</text><text fill="#000000" font-family="sans-serif" font-size="13" lengthAdjust="spacing" textLength="118" x="513" y="2176.0903">"Request rejected"</text><polygon fill="#181818" points="260,2206.2891,250,2210.2891,260,2214.2891,256,2210.2891" style="stroke:#181818;stroke-width:1.0;"/><line style="stroke:#181818;stroke-width:1.0;" x1="254" x2="500" y1="2210.2891" y2="2210.2891"/><text fill="#000000" font-family="sans-serif" font-size="13" lengthAdjust="spacing" textLength="53" x="266" y="2205.2231">Success</text><polygon fill="#181818" points="860,2235.4219,870,2239.4219,860,2243.4219,864,2239.4219" style="stroke:#181818;stroke-width:1.0;"/><line style="stroke:#181818;stroke-width:1.0;" x1="244" x2="866" y1="2239.4219" y2="2239.4219"/><text fill="#000000" font-family="sans-serif" font-size="13" lengthAdjust="spacing" textLength="118" x="251" y="2234.356">"Request rejected"</text><polygon fill="#181818" points="67,2279.6875,57,2283.6875,67,2287.6875,63,2283.6875" style="stroke:#181818;stroke-width:1.0;"/><line style="stroke:#181818;stroke-width:1.0;" x1="61" x2="780.5" y1="2283.6875" y2="2283.6875"/><text fill="#000000" font-family="sans-serif" font-size="13" lengthAdjust="spacing" textLength="174" x="73" y="2263.4888">"Your request was rejected.</text><text fill="#000000" font-family="sans-serif" font-size="13" lengthAdjust="spacing" textLength="72" x="73" y="2278.6216">Reason: ..."</text><rect fill="#EEEEEE" height="3" style="stroke:#EEEEEE;stroke-width:1.0;" width="940.5" x="0" y="2319.2539"/><line style="stroke:#000000;stroke-width:1.0;" x1="0" x2="940.5" y1="2319.2539" y2="2319.2539"/><line style="stroke:#000000;stroke-width:1.0;" x1="0" x2="940.5" y1="2322.2539" y2="2322.2539"/><rect fill="#EEEEEE" height="23.1328" style="stroke:#000000;stroke-width:2.0;" width="223" x="358.75" y="2308.6875"/><text fill="#000000" font-family="sans-serif" font-size="13" font-weight="bold" lengthAdjust="spacing" textLength="204" x="364.75" y="2324.7544">User Logs In After Approval</text><polygon fill="#181818" points="227,2358.9531,237,2362.9531,227,2366.9531,231,2362.9531" style="stroke:#181818;stroke-width:1.0;"/><line style="stroke:#181818;stroke-width:1.0;" x1="56" x2="233" y1="2362.9531" y2="2362.9531"/><text fill="#000000" font-family="sans-serif" font-size="13" lengthAdjust="spacing" textLength="112" x="63" y="2357.8872">Login with Google</text><polygon fill="#181818" points="484,2388.0859,494,2392.0859,484,2396.0859,488,2392.0859" style="stroke:#181818;stroke-width:1.0;"/><line style="stroke:#181818;stroke-width:1.0;" x1="249" x2="490" y1="2392.0859" y2="2392.0859"/><text fill="#000000" font-family="sans-serif" font-size="13" lengthAdjust="spacing" textLength="68" x="256" y="2387.02">OAuth flow</text><polygon fill="#181818" points="685,2417.2188,695,2421.2188,685,2425.2188,689,2421.2188" style="stroke:#181818;stroke-width:1.0;"/><line style="stroke:#181818;stroke-width:1.0;" x1="506" x2="691" y1="2421.2188" y2="2421.2188"/><text fill="#000000" font-family="sans-serif" font-size="13" lengthAdjust="spacing" textLength="113" x="513" y="2416.1528">Load user + roles</text><polygon fill="#181818" points="517,2476.6172,507,2480.6172,517,2484.6172,513,2480.6172" style="stroke:#181818;stroke-width:1.0;"/><line style="stroke:#181818;stroke-width:1.0;" x1="511" x2="701" y1="2480.6172" y2="2480.6172"/><text fill="#000000" font-family="sans-serif" font-size="13" lengthAdjust="spacing" textLength="98" x="523" y="2445.2856">User with roles:</text><text fill="#000000" font-family="sans-serif" font-size="13" lengthAdjust="spacing" textLength="129" x="523" y="2460.4185">[knowledge_curator,</text><text fill="#000000" font-family="sans-serif" font-size="13" lengthAdjust="spacing" textLength="87" x="523" y="2475.5513">data_analyst]</text><polygon fill="#181818" points="260,2505.75,250,2509.75,260,2513.75,256,2509.75" style="stroke:#181818;stroke-width:1.0;"/><line style="stroke:#181818;stroke-width:1.0;" x1="254" x2="500" y1="2509.75" y2="2509.75"/><text fill="#000000" font-family="sans-serif" font-size="13" lengthAdjust="spacing" textLength="85" x="266" y="2504.6841">JWT with roles</text><polygon fill="#181818" points="67,2550.0156,57,2554.0156,67,2558.0156,63,2554.0156" style="stroke:#181818;stroke-width:1.0;"/><line style="stroke:#181818;stroke-width:1.0;" x1="61" x2="243" y1="2554.0156" y2="2554.0156"/><text fill="#000000" font-family="sans-serif" font-size="13" lengthAdjust="spacing" textLength="128" x="73" y="2533.8169">Full access granted!</text><text fill="#000000" font-family="sans-serif" font-size="13" lengthAdjust="spacing" textLength="109" x="73" y="2548.9497">Show all features</text><!--SRC=[lLTDRziu4BthLqnrsGHDdDDU37WNLcCNxMQRrcuQBAh2O4JQvaOXlIHbmmZottSub6Gf_agBeZvPrF1nvitZpEWt6EbSm4ZyLmZhu5QR-sckLp3L1lfyoTJb886_b5xbWiy498NCkJ1HvAJpsvfxcUBGNooCNhAy1eeYbZd4YZ-85TnOOM9Wblv42sQSpEI2AGVnq6ZbXEAfElbIY5Eo6WxQDWdBxeF9a5dN__Wkc2M3Y3F7xfWL4F-jrKnV9lJYCcdl7pmmcQTgBCnIPe9CQAboiSyVf9BM6OQFz9fMegZNWyfzZ7OMJAHMqEj54QsU_u7UGXVUv3AxXtWiPmgaWfLqStYhzImNiJz5BfaJFYuqnYs9tn9UmtM_G5kYh3R4o18ol4myjX5-KQ4d1Pw9D5Z7N66xi41Mf9fDMCd-MQeCPWRVVFrske53FX2eEfVypWYJHrmqhSAX5D18kC8eU7_x6LxJiHZML3VjaoeQ0kp2U8xouSpExpGpcApu7rqOO5cc2qo2j9MtgQhSZPjmI8xdk-IQb6L9PtOlsvK0oMeNpqtFF35WoXseyeSsv53cEIrtKtKEOv6BpD4Uwv_xqwdC9UNUFuw45SnaSs18erzuNrWdfp9hM4o54If3xq_qmg-o_BHzuhYuUv2kSgcfZ8_NuyzmmHRomZjmNbgW8u_bNy4dvDePUJpnj-1fXte8x0lB9VVBb4I6OXFAUKyn-ziYyx2JyfHjeUtLL9M9GxAYAuUs7pHIjGRchnZ6H0MYcPouASCguedaPn2yUJeambeJbjX5NrwbwfP9Idau4mx9hrKACAob52jRX-U5I1QrVrTwXayd0TX7SRhtkWzsv_JF45Mlf7XV4VXK2BEkyb1HPVVbumf303tTs1sxvxiCQsv3oEKzYd_VycABo3P7uRRg-f3lO-ZYKVAdVQoy5VK50YuS2imUa-YUQhQJbGho62bKCqY1g2oi52AKWFAkRih8LfaOulK5VtsVCyXoL_RKkiz6WBzTpCQbOKmMJPZj7TTbBShNOAd6fGflYXL1BTxF7Plwd8FIhbtBl5cpPjtiJTv5k718ocFvhovVXFhKzZi9VZUoVBEW0hPTbYguqpO2vj8_DtiU8N1QRYTzzr5U8fqD7OUGVTQBby9ZkS0IpB4SOH4swsFWQ3ux0lkigeO1eQw25K6luiQMiljas9piS-oI_BR4j-3YvzjAhGLd6jMOHW3Y4UOCfNmdXAhwl-0ufhmfgDAUGHz5jRRkMu2EH6wzyF_rNVYe_eFTI-G_m5aJ7HBCQlKz2ZPq0ZLWl_N75Hk0VgPYVxMagWX-ZgBQQ2zMLBbxXQDwXT19rOYIquLEfnD7sACs0oL6RU6TmZdEvx_-MDaQB4CxRqpl-thLyQdzIZCUMithih0UciVfo32xf-hhVVNTDSdA-v4gtoKchBmb-pkN7zWtO8T6fM614o-ZdC7Cu8SIpKhKuvcVXN6IAqmR0Zdu7m00]--></g></svg>