<?xml version="1.0" encoding="us-ascii" standalone="no"?><svg xmlns="http://www.w3.org/2000/svg" xmlns:xlink="http://www.w3.org/1999/xlink" contentStyleType="text/css" height="1192px" preserveAspectRatio="none" style="width:1121px;height:1192px;background:#FFFFFF;" version="1.1" viewBox="0 0 1121 1192" width="1121px" zoomAndPan="magnify"><defs/><g><!--cluster AdvanDEB Platform--><g id="cluster_AdvanDEB Platform"><rect fill="none" height="653.96" rx="2.5" ry="2.5" style="stroke:#181818;stroke-width:1.0;" width="591" x="156.52" y="275.59"/><text fill="#000000" font-family="sans-serif" font-size="14" font-weight="bold" lengthAdjust="spacing" textLength="150" x="377.02" y="290.5851">AdvanDEB Platform</text></g><!--cluster MA--><g id="cluster_MA"><rect fill="#F08080" height="178.6" rx="2.5" ry="2.5" style="stroke:#181818;stroke-width:1.0;" width="505" x="205.52" y="326.59"/><rect fill="#F08080" height="10" style="stroke:#181818;stroke-width:1.0;" width="15" x="690.52" y="331.59"/><rect fill="#F08080" height="2" style="stroke:#181818;stroke-width:1.0;" width="4" x="688.52" y="333.59"/><rect fill="#F08080" height="2" style="stroke:#181818;stroke-width:1.0;" width="4" x="688.52" y="337.59"/><text fill="#000000" font-family="sans-serif" font-size="14" font-style="italic" lengthAdjust="spacing" textLength="116" x="400.02" y="352.5851">&#171;FastAPI + Vue&#187;</text><text fill="#000000" font-family="sans-serif" font-size="14" font-weight="bold" lengthAdjust="spacing" textLength="79" x="418.52" y="368.882">AdvanDEB</text><text fill="#000000" font-family="sans-serif" font-size="14" font-weight="bold" lengthAdjust="spacing" textLength="149" x="383.52" y="385.1789">Modeling Assistant</text><text fill="#000000" font-family="sans-serif" font-size="14" font-weight="bold" lengthAdjust="spacing" textLength="80" x="418.02" y="401.4757">(Main GUI)</text></g><!--entity KB--><g id="elem_KB"><rect fill="#90EE90" height="78.8906" rx="2.5" ry="2.5" style="stroke:#181818;stroke-width:0.5;" width="241" x="488.02" y="834.66"/><rect fill="#90EE90" height="10" style="stroke:#181818;stroke-width:0.5;" width="15" x="709.02" y="839.66"/><rect fill="#90EE90" height="2" style="stroke:#181818;stroke-width:0.5;" width="4" x="707.02" y="841.66"/><rect fill="#90EE90" height="2" style="stroke:#181818;stroke-width:0.5;" width="4" x="707.02" y="845.66"/><text fill="#000000" font-family="sans-serif" font-size="14" font-style="italic" lengthAdjust="spacing" textLength="128" x="539.52" y="867.6551">&#171;Python Package&#187;</text><text fill="#000000" font-family="sans-serif" font-size="14" lengthAdjust="spacing" textLength="201" x="503.02" y="883.952">advandeb-knowledge-builder</text><text fill="#000000" font-family="sans-serif" font-size="14" lengthAdjust="spacing" textLength="120" x="503.02" y="900.2489">(Toolkit/Package)</text></g><!--entity MCP--><g id="elem_MCP"><rect fill="#FFFFE0" height="78.8906" rx="2.5" ry="2.5" style="stroke:#181818;stroke-width:0.5;" width="190" x="541.52" y="630.12"/><rect fill="#FFFFE0" height="10" style="stroke:#181818;stroke-width:0.5;" width="15" x="711.52" y="635.12"/><rect fill="#FFFFE0" height="2" style="stroke:#181818;stroke-width:0.5;" width="4" x="709.52" y="637.12"/><rect fill="#FFFFE0" height="2" style="stroke:#181818;stroke-width:0.5;" width="4" x="709.52" y="641.12"/><text fill="#000000" font-family="sans-serif" font-size="14" font-style="italic" lengthAdjust="spacing" textLength="94" x="584.52" y="663.1151">&#171;Rust/Axum&#187;</text><text fill="#000000" font-family="sans-serif" font-size="14" lengthAdjust="spacing" textLength="104" x="556.52" y="679.412">advandeb-MCP</text><text fill="#000000" font-family="sans-serif" font-size="14" lengthAdjust="spacing" textLength="150" x="556.52" y="695.7089">(Internal MCP Service)</text></g><!--entity SharedUtils--><g id="elem_SharedUtils"><rect fill="#ADD8E6" height="78.8906" rx="2.5" ry="2.5" style="stroke:#181818;stroke-width:0.5;" width="194" x="172.52" y="630.12"/><rect fill="#ADD8E6" height="10" style="stroke:#181818;stroke-width:0.5;" width="15" x="346.52" y="635.12"/><rect fill="#ADD8E6" height="2" style="stroke:#181818;stroke-width:0.5;" width="4" x="344.52" y="637.12"/><rect fill="#ADD8E6" height="2" style="stroke:#181818;stroke-width:0.5;" width="4" x="344.52" y="641.12"/><text fill="#000000" font-family="sans-serif" font-size="14" font-style="italic" lengthAdjust="spacing" textLength="128" x="200.52" y="663.1151">&#171;Python Package&#187;</text><text fill="#000000" font-family="sans-serif" font-size="14" lengthAdjust="spacing" textLength="154" x="187.52" y="679.412">advandeb-shared-utils</text><text fill="#000000" font-family="sans-serif" font-size="14" lengthAdjust="spacing" textLength="90" x="187.52" y="695.7089">(Auth Library)</text></g><!--entity MAFront--><g id="elem_MAFront"><rect fill="#F1F1F1" height="62.5938" rx="2.5" ry="2.5" style="stroke:#181818;stroke-width:0.5;" width="103" x="249.02" y="418.59"/><rect fill="#F1F1F1" height="10" style="stroke:#181818;stroke-width:0.5;" width="15" x="332.02" y="423.59"/><rect fill="#F1F1F1" height="2" style="stroke:#181818;stroke-width:0.5;" width="4" x="330.02" y="425.59"/><rect fill="#F1F1F1" height="2" style="stroke:#181818;stroke-width:0.5;" width="4" x="330.02" y="429.59"/><text fill="#000000" font-family="sans-serif" font-size="14" font-style="italic" lengthAdjust="spacing" textLength="60" x="265.52" y="451.5851">&#171;Vue.js&#187;</text><text fill="#000000" font-family="sans-serif" font-size="14" lengthAdjust="spacing" textLength="63" x="264.02" y="467.882">Frontend</text></g><!--entity MABack--><g id="elem_MABack"><rect fill="#F1F1F1" height="62.5938" rx="2.5" ry="2.5" style="stroke:#181818;stroke-width:0.5;" width="108" x="387.52" y="418.59"/><rect fill="#F1F1F1" height="10" style="stroke:#181818;stroke-width:0.5;" width="15" x="475.52" y="423.59"/><rect fill="#F1F1F1" height="2" style="stroke:#181818;stroke-width:0.5;" width="4" x="473.52" y="425.59"/><rect fill="#F1F1F1" height="2" style="stroke:#181818;stroke-width:0.5;" width="4" x="473.52" y="429.59"/><text fill="#000000" font-family="sans-serif" font-size="14" font-style="italic" lengthAdjust="spacing" textLength="68" x="402.52" y="451.5851">&#171;FastAPI&#187;</text><text fill="#000000" font-family="sans-serif" font-size="14" lengthAdjust="spacing" textLength="61" x="406.02" y="467.882">Backend</text></g><!--entity MAAuth--><g id="elem_MAAuth"><rect fill="#F1F1F1" height="62.5938" rx="2.5" ry="2.5" style="stroke:#181818;stroke-width:0.5;" width="156" x="530.52" y="418.59"/><rect fill="#F1F1F1" height="10" style="stroke:#181818;stroke-width:0.5;" width="15" x="666.52" y="423.59"/><rect fill="#F1F1F1" height="2" style="stroke:#181818;stroke-width:0.5;" width="4" x="664.52" y="425.59"/><rect fill="#F1F1F1" height="2" style="stroke:#181818;stroke-width:0.5;" width="4" x="664.52" y="429.59"/><text fill="#000000" font-family="sans-serif" font-size="14" font-style="italic" lengthAdjust="spacing" textLength="116" x="545.52" y="451.5851">&#171;Google OAuth&#187;</text><text fill="#000000" font-family="sans-serif" font-size="14" lengthAdjust="spacing" textLength="32" x="587.52" y="467.882">Auth</text></g><!--entity Users--><g id="elem_Users"><ellipse cx="300.52" cy="72.1469" fill="#F1F1F1" rx="8" ry="8" style="stroke:#181818;stroke-width:0.5;"/><path d="M300.52,80.1469 L300.52,107.1469 M287.52,88.1469 L313.52,88.1469 M300.52,107.1469 L287.52,122.1469 M300.52,107.1469 L313.52,122.1469 " fill="none" style="stroke:#181818;stroke-width:0.5;"/><text fill="#000000" font-family="sans-serif" font-size="14" lengthAdjust="spacing" textLength="100" x="250.02" y="136.642">Platform Users</text><text fill="#000000" font-family="sans-serif" font-size="14" lengthAdjust="spacing" textLength="101" x="250.02" y="152.9389">(3 Base Roles)</text><text fill="#000000" font-family="sans-serif" font-size="14" font-style="italic" lengthAdjust="spacing" textLength="65" x="268.02" y="60.3451">&#171;Person&#187;</text></g><!--entity GoogleOAuth--><g id="elem_GoogleOAuth"><path d="M774.9714,648.2948 C777.846,642.3567 781.7268,641.6999 786.5379,646.1358 C790.6876,640.4765 794.8308,641.2615 798.7616,646.3839 C802.6788,641.716 806.2411,640.9822 809.8945,646.6675 C813.3141,639.5245 817.1667,639.278 822.0653,645.3002 C825.6589,639.9827 831.2114,639.3625 834.3175,645.8081 C837.6339,639.8892 842.1167,639.4434 845.6822,645.5731 C849.9317,639.5034 853.8848,641.312 857.4638,646.2883 C860.7231,640.9071 866.4541,640.522 869.5341,646.479 C873.2004,640.5202 878.0751,641.2158 881.448,646.7823 C886.1752,641.2831 891.3375,641.5447 895.2563,647.737 C898.1693,642.5607 902.0517,642.7487 905.3684,647.3181 C909.7651,642.5558 913.3488,642.8615 917.0806,648.0971 C923.3127,649.2151 925.4433,653.6783 920.9986,658.7303 C927.0631,661.8149 927.2273,667.5861 921.651,671.2761 C926.3804,675.6078 925.822,679.4481 920.722,683.0011 C924.6182,687.9137 925.181,692.0942 918.16,694.594 C914.362,699.8833 908.4648,699.845 905.2322,693.941 C902.9453,699.6024 898.7448,699.8293 894.9287,695.5214 C890.3114,702.1545 885.5742,701.2716 881.7575,694.7215 C879.6434,699.6382 874.5962,699.9686 871.4573,695.8957 C868.2865,703.6191 862.0122,702.5125 857.5706,697.2552 C854.2648,702.5094 850.6396,703.7444 846.1704,698.521 C841.0562,703.1045 837.0067,701.7159 834.1023,695.9454 C831.3897,702.4283 825.9122,702.9529 821.9295,697.21 C817.8589,702.0384 812.8699,701.2107 811.3263,694.8215 C808.4795,700.8157 803.4913,700.814 799.4898,696.0975 C795.0524,701.4106 791.02,700.3542 787.9043,694.7011 C783.4365,700.7078 779.5964,701.0598 775.5835,694.2633 C767.6769,693.4042 764.4637,687.8497 770.0106,681.2356 C762.9673,679.4647 763.0331,674.1165 767.1414,669.5965 C763.3032,664.1375 765.0285,659.6912 771.9365,659.1784 C768.2334,654.9427 768.8569,649.7929 774.9714,648.2948 " fill="#F1F1F1" style="stroke:#181818;stroke-width:0.5;"/><text fill="#000000" font-family="sans-serif" font-size="14" font-style="italic" lengthAdjust="spacing" textLength="129" x="781.02" y="666.2651">&#171;External Service&#187;</text><text fill="#000000" font-family="sans-serif" font-size="14" lengthAdjust="spacing" textLength="123" x="784.02" y="682.562">Google OAuth 2.0</text></g><!--entity MongoDB--><g id="elem_MongoDB"><path d="M248.52,1083.36 C248.52,1073.36 326.52,1073.36 326.52,1073.36 C326.52,1073.36 404.52,1073.36 404.52,1083.36 L404.52,1141.2506 C404.52,1151.2506 326.52,1151.2506 326.52,1151.2506 C326.52,1151.2506 248.52,1151.2506 248.52,1141.2506 L248.52,1083.36 " fill="#F1F1F1" style="stroke:#181818;stroke-width:0.5;"/><path d="M248.52,1083.36 C248.52,1093.36 326.52,1093.36 326.52,1093.36 C326.52,1093.36 404.52,1093.36 404.52,1083.36 " fill="none" style="stroke:#181818;stroke-width:0.5;"/><text fill="#000000" font-family="sans-serif" font-size="14" font-style="italic" lengthAdjust="spacing" textLength="83" x="285.02" y="1110.3551">&#171;Database&#187;</text><text fill="#000000" font-family="sans-serif" font-size="14" lengthAdjust="spacing" textLength="69" x="258.52" y="1126.652">MongoDB</text><text fill="#000000" font-family="sans-serif" font-size="14" lengthAdjust="spacing" textLength="136" x="258.52" y="1142.9489">(Platform Database)</text></g><!--entity Ollama--><g id="elem_Ollama"><polygon fill="#F1F1F1" points="883.02,1082.86,893.02,1072.86,1006.02,1072.86,1006.02,1141.7506,996.02,1151.7506,883.02,1151.7506,883.02,1082.86" style="stroke:#181818;stroke-width:0.5;"/><line style="stroke:#181818;stroke-width:0.5;" x1="996.02" x2="1006.02" y1="1082.86" y2="1072.86"/><line style="stroke:#181818;stroke-width:0.5;" x1="883.02" x2="996.02" y1="1082.86" y2="1082.86"/><line style="stroke:#181818;stroke-width:0.5;" x1="996.02" x2="996.02" y1="1082.86" y2="1151.7506"/><text fill="#000000" font-family="sans-serif" font-size="14" font-style="italic" lengthAdjust="spacing" textLength="82" x="898.52" y="1105.8551">&#171;LLM Host&#187;</text><text fill="#000000" font-family="sans-serif" font-size="14" lengthAdjust="spacing" textLength="46" x="898.02" y="1122.152">Ollama</text><text fill="#000000" font-family="sans-serif" font-size="14" lengthAdjust="spacing" textLength="83" x="898.02" y="1138.4489">(Local LLMs)</text></g><g id="elem_GMN25"><path d="M386.02,6 L386.02,97.79 L351.28,101.79 L386.02,105.79 L386.02,197.5938 A0,0 0 0 0 386.02,197.5938 L675.02,197.5938 A0,0 0 0 0 675.02,197.5938 L675.02,16 L665.02,6 L386.02,6 A0,0 0 0 0 386.02,6 " fill="#FEFFDD" style="stroke:#181818;stroke-width:0.5;"/><path d="M665.02,6 L665.02,16 L675.02,16 L665.02,6 " fill="#FEFFDD" style="stroke:#181818;stroke-width:0.5;"/><text fill="#000000" font-family="sans-serif" font-size="13" lengthAdjust="spacing" textLength="86" x="392.02" y="23.0669">3 Base Roles:</text><text fill="#000000" font-family="sans-serif" font-size="13" lengthAdjust="spacing" textLength="179" x="392.02" y="38.1997">&#8226; Administrator (full access)</text><text fill="#000000" font-family="sans-serif" font-size="13" lengthAdjust="spacing" textLength="245" x="392.02" y="53.3325">&#8226; Knowledge Curator (content creator)</text><text fill="#000000" font-family="sans-serif" font-size="13" lengthAdjust="spacing" textLength="223" x="392.02" y="68.4653">&#8226; Knowledge Explorator (read-only)</text><text fill="#000000" font-family="sans-serif" font-size="13" lengthAdjust="spacing" textLength="4" x="392.02" y="83.5981">&#160;</text><text fill="#000000" font-family="sans-serif" font-size="13" lengthAdjust="spacing" textLength="194" x="392.02" y="98.731">Curator Capabilities (optional):</text><text fill="#000000" font-family="sans-serif" font-size="13" lengthAdjust="spacing" textLength="99" x="392.02" y="113.8638">&#8226; Agent Access</text><text fill="#000000" font-family="sans-serif" font-size="13" lengthAdjust="spacing" textLength="118" x="392.02" y="128.9966">&#8226; Analytics Access</text><text fill="#000000" font-family="sans-serif" font-size="13" lengthAdjust="spacing" textLength="114" x="392.02" y="144.1294">&#8226; Reviewer Status</text><text fill="#000000" font-family="sans-serif" font-size="13" lengthAdjust="spacing" textLength="4" x="392.02" y="159.2622">&#160;</text><text fill="#000000" font-family="sans-serif" font-size="13" lengthAdjust="spacing" textLength="268" x="392.02" y="174.395">All access through Modeling Assistant GUI</text><text fill="#000000" font-family="sans-serif" font-size="13" lengthAdjust="spacing" textLength="223" x="392.02" y="189.5278">Features shown based on user role</text></g><g id="elem_GMN28"><path d="M763.02,361.66 L763.02,538.1209 L986.02,538.1209 L986.02,371.66 L976.02,361.66 L763.02,361.66 " fill="#FEFFDD" style="stroke:#181818;stroke-width:0.5;"/><path d="M976.02,361.66 L976.02,371.66 L986.02,371.66 L976.02,361.66 " fill="#FEFFDD" style="stroke:#181818;stroke-width:1.0;"/><text fill="#000000" font-family="sans-serif" font-size="13" lengthAdjust="spacing" textLength="119" x="769.02" y="378.7269">Main Platform GUI:</text><text fill="#000000" font-family="sans-serif" font-size="13" lengthAdjust="spacing" textLength="202" x="769.02" y="393.8597">&#8226; Single entry point for all users</text><text fill="#000000" font-family="sans-serif" font-size="13" lengthAdjust="spacing" textLength="197" x="769.02" y="408.9925">&#8226; Google OAuth authentication</text><text fill="#000000" font-family="sans-serif" font-size="13" lengthAdjust="spacing" textLength="181" x="769.02" y="424.1253">&#8226; Role-based feature access</text><text fill="#000000" font-family="sans-serif" font-size="13" lengthAdjust="spacing" textLength="102" x="769.02" y="439.2581">&#8226; Chat interface</text><text fill="#000000" font-family="sans-serif" font-size="13" lengthAdjust="spacing" textLength="155" x="769.02" y="454.391">&#8226; Knowledge exploration</text><text fill="#000000" font-family="sans-serif" font-size="13" lengthAdjust="spacing" textLength="158" x="769.02" y="469.5238">&#8226; Document ingestion UI</text><text fill="#000000" font-family="sans-serif" font-size="13" lengthAdjust="spacing" textLength="134" x="769.02" y="484.6566">&#8226; Modeling scenarios</text><text fill="#000000" font-family="sans-serif" font-size="13" lengthAdjust="spacing" textLength="4" x="769.02" y="499.7894">&#160;</text><text fill="#000000" font-family="sans-serif" font-size="13" lengthAdjust="spacing" textLength="148" x="769.02" y="514.9222">Integrates KB as toolkit</text><text fill="#000000" font-family="sans-serif" font-size="13" lengthAdjust="spacing" textLength="183" x="769.02" y="530.055">Uses MCP for agent features</text></g><g id="elem_GMN31"><path d="M476.52,1039.2 L476.52,1185.3953 A0,0 0 0 0 476.52,1185.3953 L740.52,1185.3953 A0,0 0 0 0 740.52,1185.3953 L740.52,1049.2 L730.52,1039.2 L612.52,1039.2 L608.52,913.85 L604.52,1039.2 L476.52,1039.2 A0,0 0 0 0 476.52,1039.2 " fill="#FEFFDD" style="stroke:#181818;stroke-width:0.5;"/><path d="M730.52,1039.2 L730.52,1049.2 L740.52,1049.2 L730.52,1039.2 " fill="#FEFFDD" style="stroke:#181818;stroke-width:0.5;"/><text fill="#000000" font-family="sans-serif" font-size="13" lengthAdjust="spacing" textLength="165" x="482.52" y="1056.2669">Knowledge Builder Toolkit:</text><text fill="#000000" font-family="sans-serif" font-size="13" lengthAdjust="spacing" textLength="140" x="482.52" y="1071.3997">&#8226; Fact extraction logic</text><text fill="#000000" font-family="sans-serif" font-size="13" lengthAdjust="spacing" textLength="170" x="482.52" y="1086.5325">&#8226; Stylized facts generation</text><text fill="#000000" font-family="sans-serif" font-size="13" lengthAdjust="spacing" textLength="197" x="482.52" y="1101.6653">&#8226; Document ingestion routines</text><text fill="#000000" font-family="sans-serif" font-size="13" lengthAdjust="spacing" textLength="174" x="482.52" y="1116.7981">&#8226; Knowledge graph building</text><text fill="#000000" font-family="sans-serif" font-size="13" lengthAdjust="spacing" textLength="145" x="482.52" y="1131.931">&#8226; Review workflow logic</text><text fill="#000000" font-family="sans-serif" font-size="13" lengthAdjust="spacing" textLength="4" x="482.52" y="1147.0638">&#160;</text><text fill="#000000" font-family="sans-serif" font-size="13" lengthAdjust="spacing" textLength="168" x="482.52" y="1162.1966">No UI - imported as library</text><text fill="#000000" font-family="sans-serif" font-size="13" lengthAdjust="spacing" textLength="243" x="482.52" y="1177.3294">Can be used standalone for batch ops</text></g><g id="elem_GMN34"><path d="M764.02,801.01 L764.02,947.2053 L981.02,947.2053 L981.02,811.01 L971.02,801.01 L764.02,801.01 " fill="#FEFFDD" style="stroke:#181818;stroke-width:0.5;"/><path d="M971.02,801.01 L971.02,811.01 L981.02,811.01 L971.02,801.01 " fill="#FEFFDD" style="stroke:#181818;stroke-width:1.0;"/><text fill="#000000" font-family="sans-serif" font-size="13" lengthAdjust="spacing" textLength="135" x="770.02" y="818.0769">Internal MCP Service:</text><text fill="#000000" font-family="sans-serif" font-size="13" lengthAdjust="spacing" textLength="182" x="770.02" y="833.2097">&#8226; Background service for MA</text><text fill="#000000" font-family="sans-serif" font-size="13" lengthAdjust="spacing" textLength="183" x="770.02" y="848.3425">&#8226; No authentication required</text><text fill="#000000" font-family="sans-serif" font-size="13" lengthAdjust="spacing" textLength="175" x="770.02" y="863.4753">&#8226; Exposes KB tools via MCP</text><text fill="#000000" font-family="sans-serif" font-size="13" lengthAdjust="spacing" textLength="196" x="770.02" y="878.6081">&#8226; Provides LLM agent interface</text><text fill="#000000" font-family="sans-serif" font-size="13" lengthAdjust="spacing" textLength="193" x="770.02" y="893.741">&#8226; Chat and intelligent features</text><text fill="#000000" font-family="sans-serif" font-size="13" lengthAdjust="spacing" textLength="4" x="770.02" y="908.8738">&#160;</text><text fill="#000000" font-family="sans-serif" font-size="13" lengthAdjust="spacing" textLength="186" x="770.02" y="924.0066">Wraps KB operations as tools</text><text fill="#000000" font-family="sans-serif" font-size="13" lengthAdjust="spacing" textLength="160" x="770.02" y="939.1394">Direct Ollama integration</text></g><!--link MABack to KB--><g id="link_MABack_KB"><path d="M436.34,481.41 C429.3,531.29 420.98,632.42 453.52,709.01 C475.12,759.87 515.334,800.6469 551.244,830.4669 " fill="none" id="MABack-to-KB" style="stroke:#181818;stroke-width:1.0;"/><polygon fill="#181818" points="555.86,834.3,551.4915,825.473,552.0134,831.1057,546.3806,831.6276,555.86,834.3" style="stroke:#181818;stroke-width:1.0;"/><text fill="#000000" font-family="sans-serif" font-size="13" lengthAdjust="spacing" textLength="68" x="454.52" y="666.6269">imports as</text><text fill="#000000" font-family="sans-serif" font-size="13" lengthAdjust="spacing" textLength="54" x="461.52" y="681.7597">package</text></g><!--link MABack to SharedUtils--><g id="link_MABack_SharedUtils"><path d="M417.24,481.61 C386.49,520.52 337.2302,582.8725 303.7702,625.2125 " fill="none" id="MABack-to-SharedUtils" style="stroke:#181818;stroke-width:1.0;stroke-dasharray:7.0,7.0;"/><polygon fill="#181818" points="300.05,629.92,308.7686,625.3389,303.1501,625.9971,302.4919,620.3787,300.05,629.92" style="stroke:#181818;stroke-width:1.0;"/><text fill="#000000" font-family="sans-serif" font-size="13" lengthAdjust="spacing" textLength="74" x="346.22" y="581.1869">may import</text><text fill="#000000" font-family="sans-serif" font-size="13" lengthAdjust="spacing" textLength="69" x="348.72" y="596.3197">(auth utils)</text></g><!--link MABack to MCP--><g id="link_MABack_MCP"><path d="M465.6,481.64 C479.09,498.57 496.39,519.79 512.52,538.12 C540.28,569.67 568.9132,599.7722 593.8132,625.3322 " fill="none" id="MABack-to-MCP" style="stroke:#181818;stroke-width:1.0;"/><polygon fill="#181818" points="598,629.63,594.585,620.3922,594.511,626.0485,588.8546,625.9745,598,629.63" style="stroke:#181818;stroke-width:1.0;"/><text fill="#000000" font-family="sans-serif" font-size="13" lengthAdjust="spacing" textLength="80" x="582.25" y="581.1869">Internal calls</text><text fill="#000000" font-family="sans-serif" font-size="13" lengthAdjust="spacing" textLength="104" x="570.25" y="596.3197">(agent features)</text></g><!--link MCP to KB--><g id="link_MCP_KB"><path d="M631.18,709.14 C626.22,745.06 619.6708,792.3964 614.7008,828.3864 " fill="none" id="MCP-to-KB" style="stroke:#181818;stroke-width:1.0;"/><polygon fill="#181818" points="613.88,834.33,619.0736,825.9618,614.564,829.377,611.1488,824.8674,613.88,834.33" style="stroke:#181818;stroke-width:1.0;"/><text fill="#000000" font-family="sans-serif" font-size="13" lengthAdjust="spacing" textLength="109" x="627.66" y="752.0769">wraps operations</text><text fill="#000000" font-family="sans-serif" font-size="13" lengthAdjust="spacing" textLength="82" x="641.16" y="767.2097">as MCP tools</text></g><!--link Users to MAFront--><g id="link_Users_MAFront"><path d="M300.52,156.49 C300.52,229.97 300.52,353.42 300.52,412.25 " fill="none" id="Users-to-MAFront" style="stroke:#181818;stroke-width:1.0;"/><polygon fill="#181818" points="300.52,418.25,304.52,409.25,300.52,413.25,296.52,409.25,300.52,418.25" style="stroke:#181818;stroke-width:1.0;"/><text fill="#000000" font-family="sans-serif" font-size="13" lengthAdjust="spacing" textLength="44" x="320.02" y="240.6569">Web UI</text><text fill="#000000" font-family="sans-serif" font-size="13" lengthAdjust="spacing" textLength="81" x="301.52" y="255.7897">(all features)</text></g><!--link MAAuth to GoogleOAuth--><g id="link_MAAuth_GoogleOAuth"><path d="M646.83,481.52 C675.24,504.63 714.58,537.48 747.52,568.12 C771.78,590.68 793.7994,613.2588 812.9794,633.5588 " fill="none" id="MAAuth-to-GoogleOAuth" style="stroke:#181818;stroke-width:1.0;"/><polygon fill="#181818" points="817.1,637.92,813.8266,628.6311,813.6661,634.2856,808.0116,634.1252,817.1,637.92" style="stroke:#181818;stroke-width:1.0;"/><text fill="#000000" font-family="sans-serif" font-size="13" lengthAdjust="spacing" textLength="68" x="779" y="588.6869">OAuth flow</text></g><!--link MABack to MongoDB--><g id="link_MABack_MongoDB"><path d="M424.52,481.39 C411.96,500.92 392.99,524.98 369.52,538.12 C286.1,584.82 236.93,516.41 156.52,568.12 C80.74,616.84 72.75,652.53 47.52,739.01 C6,881.29 162.3296,1007.5944 257.0496,1069.5844 " fill="none" id="MABack-to-MongoDB" style="stroke:#181818;stroke-width:1.0;"/><polygon fill="#181818" points="262.07,1072.87,256.7298,1064.5946,257.8863,1070.132,252.3489,1071.2885,262.07,1072.87" style="stroke:#181818;stroke-width:1.0;"/><text fill="#000000" font-family="sans-serif" font-size="13" lengthAdjust="spacing" textLength="78" x="63.02" y="752.0769">users, roles,</text><text fill="#000000" font-family="sans-serif" font-size="13" lengthAdjust="spacing" textLength="107" x="48.52" y="767.2097">knowledge, audit</text></g><!--link KB to MongoDB--><g id="link_KB_MongoDB"><path d="M546.45,913.84 C518.95,931.96 486.73,954.51 459.52,977.2 C423.76,1007.03 390.8272,1040.6181 364.9572,1068.5481 " fill="none" id="KB-to-MongoDB" style="stroke:#181818;stroke-width:1.0;"/><polygon fill="#181818" points="360.88,1072.95,369.9304,1069.0653,364.2777,1069.2818,364.0612,1063.6291,360.88,1072.95" style="stroke:#181818;stroke-width:1.0;"/><text fill="#000000" font-family="sans-serif" font-size="13" lengthAdjust="spacing" textLength="139" x="460.52" y="990.2669">knowledge operations</text><text fill="#000000" font-family="sans-serif" font-size="13" lengthAdjust="spacing" textLength="131" x="464.52" y="1005.3997">(facts, graphs, docs)</text></g><!--link MCP to MongoDB--><g id="link_MCP_MongoDB"><path d="M541.4,707.16 C460.59,739.17 355.76,783.24 343.52,801.01 C286.58,883.64 302.1449,1004.1327 315.6049,1067.0527 " fill="none" id="MCP-to-MongoDB" style="stroke:#181818;stroke-width:1.0;"/><polygon fill="#181818" points="316.86,1072.92,318.8888,1063.2824,315.8141,1068.0306,311.0658,1064.9559,316.86,1072.92" style="stroke:#181818;stroke-width:1.0;"/><text fill="#000000" font-family="sans-serif" font-size="13" lengthAdjust="spacing" textLength="80" x="367.02" y="871.1769">read queries</text><text fill="#000000" font-family="sans-serif" font-size="13" lengthAdjust="spacing" textLength="125" x="344.52" y="886.3097">(knowledge access)</text></g><!--link KB to Ollama--><g id="link_KB_Ollama"><path d="M663.62,913.85 C725.99,957.69 822.0914,1025.2395 884.4714,1069.0895 " fill="none" id="KB-to-Ollama" style="stroke:#181818;stroke-width:1.0;"/><polygon fill="#181818" points="889.38,1072.54,884.3175,1064.0919,885.2895,1069.6646,879.7168,1070.6367,889.38,1072.54" style="stroke:#181818;stroke-width:1.0;"/><text fill="#000000" font-family="sans-serif" font-size="13" lengthAdjust="spacing" textLength="101" x="813.63" y="990.2669">agent workflows</text><text fill="#000000" font-family="sans-serif" font-size="13" lengthAdjust="spacing" textLength="133" x="797.63" y="1005.3997">(extraction, analysis)</text></g><!--link MCP to Ollama--><g id="link_MCP_Ollama"><path d="M731.65,703.36 C837.53,740.07 994.45,795.23 998.52,801.01 C1056.83,884 1005.1631,1004.3781 970.6931,1067.2881 " fill="none" id="MCP-to-Ollama" style="stroke:#181818;stroke-width:1.0;"/><polygon fill="#181818" points="967.81,1072.55,975.6426,1066.5792,970.2126,1068.1651,968.6268,1062.7351,967.81,1072.55" style="stroke:#181818;stroke-width:1.0;"/><text fill="#000000" font-family="sans-serif" font-size="13" lengthAdjust="spacing" textLength="88" x="1025.18" y="871.1769">LLM inference</text><text fill="#000000" font-family="sans-serif" font-size="13" lengthAdjust="spacing" textLength="77" x="1030.68" y="886.3097">(chat, tools)</text></g><!--link GMN28 to MA--><g id="link_GMN28_MA"><path d="M823.7,361.41 C790.9,313.65 743.45,259.17 685.02,232.59 C597.02,192.57 332.25,181.77 250.02,232.59 C209.995,257.325 200.005,308.455 200.4275,354.9063 C200.5331,366.5191 201.2895,377.8395 202.3901,388.3819 C202.9404,393.6531 203.5767,398.7298 204.2608,403.5514 C204.6028,405.9622 204.9568,408.3092 205.3179,410.5848 C205.363,410.8692 205.4083,411.1526 205.4536,411.4348 " fill="none" id="GMN28-MA" style="stroke:#181818;stroke-width:1.0;stroke-dasharray:7.0,7.0;"/></g><!--link MCP to GMN34--><g id="link_MCP_GMN34"><path d="M704.36,709.45 C718.42,718.52 732.81,728.6 745.52,739.01 C768.08,757.51 790.65,779.8 810.37,800.85 " fill="none" id="MCP-GMN34" style="stroke:#181818;stroke-width:1.0;stroke-dasharray:7.0,7.0;"/></g><!--SRC=[XLRRRkCs47ttLmpSXqtGE5kqRqPWm9Sa3JPkZAJfea1UQ8cssT2abwJYU8i5-Ytzj7v9pv2KPCT82nYGHSxrp9aPVQ1X-IBCv7943piVv9h6rWJv6cYYnDA9DVNeNhueBqiQkcAbWYn2vMIdyu4cSg6CfCfBHqjdgutlY29OHzsP5c5XtPeUSUUVpCbFD19UqhtLqfzsIVXqGnSNCpoi6GpOu5GeGvjQry6JC4ijEyq_wZRHrYwwz6U72B-iVlruqzpXjB3hZJNIX5RroKnjARKoInfwhpnC1uHOQwVmfaF4TYLy6Cvkw7lwhPA30NrtgvQhCBPEwEZrmFoLO-1CcTNZAsn0y_mFZ_pUY8z4yTnAyrlhy5XwM8LL5kM_4BssbW6vuzSe_ws6uPEnMotBfQHHfNI9ua0lMAkVLVYuWIEnb8V824QcbFFUSwtQcoTLuF9hrfmbpGJFfn6NRXTMrb2-QF2vTbAQfYRZ6Jr8zoBTEouX02StWCuPm5hBgo9xueEBY_lAXu_3rshTUFbTQcstjPk7bN1WQ1MKzdHYDq5PM3jznwUFqhqe3USHqLirTyBjajDaxZ5QUpVFaQvaxR-9tqbm3yxzIg4Tg2vjhpTWpFga48qB7awUJ5kBB7L-FZXmtQUrs6KLn2aupXZqwQ5bngZVnb087VE2RQIza88RDkb0i0bbwyJ6azr8bo9-CXbkvehlVEEEl7pDDdsgYUyKsbObTVVfHp-U_n1XIuTtcQ6DRgudM5gA8EOy2BfJQvPsWbuyQMR595_ckYS1sAdFeM_GkDIzqrgi1LHlBLAbszjfdYdf0Yeuef-j3sciyAWXnUXWF76cdJHy8dIvKVlqMSxfyOPXqteFDEWt4GPByWYGt95iR3__ViPcmIpThrNEgn_dfZyZnpFnxCaqlNT6eYfLwA18XmgDn47HJXR82dOmh3ShF4jR8EowqgssawAaBvLqIh9MQqmKI8CppGupYdrA_DbQzyn9i1AopnWYIA2mm_XiVJMA3Byo2-caAIJKYfK8PubMS6DiaEIuWyWkqXu0DVStH1_l__prDrRJMXaCQEIAhNAog52PEjeaqSwwSPMbYZY60nL860V7afUl6sspC8FIiqRlJbCdrrR6OYFcIgi0iFRcIHDOH6OOGwcF68wW2dzupBjJRi6_Xm16-UHbsEH1OON5kLpHyKhYNGJPgyn4yYkxDSIDK1AcKTowp9qEjWWnfXbPBHSHsEcG6vwNMiDVMAmpU51ndo8DjwEDLJmea3TplyeLOR63DkVv0mLLHEhL2IA4NeegDqrEBT-FKVlKVE2fF2g6pCLe3KviKQqPNaGeFLzG18Bl6fHy8OrmocP0UVI1_q76pTIkEro1NscgnVGE9k9RvEOs1Bjcx3wDe7cyH_Cgh36yGYjGsnAaxL8LDRvXfzLN1eMxa-1N_b-M84B0zvG_mYXsDiMD3Ea3OZNTsJZ7xnSBnF3TbXO7OW0WEgqtfhW0Y-9NMqbCj59exCS8pro4OeNXyX_80CcCzzjrNQF2auw_1c4XpyXeEzAHxn7T8P4mcRvK2ail2w0_hK-LZ2E3NfJ8VlbwvkoBAd7FKoOLz2sz8kUGMRpGMXrMFMBqEIu_k6X7QSqRbfWe_kQi9vhAzEBoDSZy2m00]--></g></svg>