<?xml version="1.0" encoding="us-ascii" standalone="no"?><svg xmlns="http://www.w3.org/2000/svg" xmlns:xlink="http://www.w3.org/1999/xlink" contentStyleType="text/css" height="1000px" preserveAspectRatio="none" style="width:1203px;height:1000px;background:#FFFFFF;" version="1.1" viewBox="0 0 1203 1000" width="1203px" zoomAndPan="magnify"><defs/><g><!--cluster AdvanDEB Platform--><g id="cluster_AdvanDEB Platform"><rect fill="none" height="505.33" rx="2.5" ry="2.5" style="stroke:#181818;stroke-width:1.0;" width="388" x="170.5" y="290.72"/><text fill="#000000" font-family="sans-serif" font-size="14" font-weight="bold" lengthAdjust="spacing" textLength="150" x="289.5" y="305.7151">AdvanDEB Platform</text></g><!--entity SharedUtils--><g id="elem_SharedUtils"><rect fill="#ADD8E6" height="78.8906" rx="2.5" ry="2.5" style="stroke:#181818;stroke-width:0.5;" width="194" x="336.5" y="701.16"/><rect fill="#ADD8E6" height="10" style="stroke:#181818;stroke-width:0.5;" width="15" x="510.5" y="706.16"/><rect fill="#ADD8E6" height="2" style="stroke:#181818;stroke-width:0.5;" width="4" x="508.5" y="708.16"/><rect fill="#ADD8E6" height="2" style="stroke:#181818;stroke-width:0.5;" width="4" x="508.5" y="712.16"/><text fill="#000000" font-family="sans-serif" font-size="14" font-style="italic" lengthAdjust="spacing" textLength="128" x="364.5" y="734.1551">&#171;Python Package&#187;</text><text fill="#000000" font-family="sans-serif" font-size="14" lengthAdjust="spacing" textLength="154" x="351.5" y="750.452">advandeb-shared-utils</text><text fill="#000000" font-family="sans-serif" font-size="14" lengthAdjust="spacing" textLength="90" x="351.5" y="766.7489">(Auth Library)</text></g><!--entity KB--><g id="elem_KB"><rect fill="#90EE90" height="78.8906" rx="2.5" ry="2.5" style="stroke:#181818;stroke-width:0.5;" width="169" x="374" y="496.61"/><rect fill="#90EE90" height="10" style="stroke:#181818;stroke-width:0.5;" width="15" x="523" y="501.61"/><rect fill="#90EE90" height="2" style="stroke:#181818;stroke-width:0.5;" width="4" x="521" y="503.61"/><rect fill="#90EE90" height="2" style="stroke:#181818;stroke-width:0.5;" width="4" x="521" y="507.61"/><text fill="#000000" font-family="sans-serif" font-size="14" font-style="italic" lengthAdjust="spacing" textLength="116" x="395.5" y="529.6051">&#171;FastAPI + Vue&#187;</text><text fill="#000000" font-family="sans-serif" font-size="14" lengthAdjust="spacing" textLength="72" x="389" y="545.902">AdvanDEB</text><text fill="#000000" font-family="sans-serif" font-size="14" lengthAdjust="spacing" textLength="129" x="389" y="562.1989">Knowledge Builder</text></g><!--entity MA--><g id="elem_MA"><rect fill="#F08080" height="78.8906" rx="2.5" ry="2.5" style="stroke:#181818;stroke-width:0.5;" width="170" x="356.5" y="325.72"/><rect fill="#F08080" height="10" style="stroke:#181818;stroke-width:0.5;" width="15" x="506.5" y="330.72"/><rect fill="#F08080" height="2" style="stroke:#181818;stroke-width:0.5;" width="4" x="504.5" y="332.72"/><rect fill="#F08080" height="2" style="stroke:#181818;stroke-width:0.5;" width="4" x="504.5" y="336.72"/><text fill="#000000" font-family="sans-serif" font-size="14" font-style="italic" lengthAdjust="spacing" textLength="116" x="378.5" y="358.7151">&#171;FastAPI + Vue&#187;</text><text fill="#000000" font-family="sans-serif" font-size="14" lengthAdjust="spacing" textLength="72" x="371.5" y="375.012">AdvanDEB</text><text fill="#000000" font-family="sans-serif" font-size="14" lengthAdjust="spacing" textLength="130" x="371.5" y="391.3089">Modeling Assistant</text></g><!--entity Users--><g id="elem_Users"><ellipse cx="784.5" cy="79.7069" fill="#F1F1F1" rx="8" ry="8" style="stroke:#181818;stroke-width:0.5;"/><path d="M784.5,87.7069 L784.5,114.7069 M771.5,95.7069 L797.5,95.7069 M784.5,114.7069 L771.5,129.7069 M784.5,114.7069 L797.5,129.7069 " fill="none" style="stroke:#181818;stroke-width:0.5;"/><text fill="#000000" font-family="sans-serif" font-size="14" lengthAdjust="spacing" textLength="100" x="734" y="144.202">Platform Users</text><text fill="#000000" font-family="sans-serif" font-size="14" lengthAdjust="spacing" textLength="101" x="734" y="160.4989">(3 Base Roles)</text><text fill="#000000" font-family="sans-serif" font-size="14" font-style="italic" lengthAdjust="spacing" textLength="65" x="752" y="67.9051">&#171;Person&#187;</text></g><!--entity GoogleOAuth--><g id="elem_GoogleOAuth"><path d="M362.9514,923.3748 C365.826,917.4367 369.7068,916.7799 374.5179,921.2158 C378.6676,915.5565 382.8108,916.3415 386.7416,921.4639 C390.6588,916.796 394.2211,916.0622 397.8745,921.7475 C401.2941,914.6045 405.1467,914.358 410.0453,920.3802 C413.6389,915.0627 419.1914,914.4425 422.2975,920.8881 C425.6139,914.9692 430.0967,914.5234 433.6622,920.6531 C437.9117,914.5834 441.8648,916.392 445.4438,921.3683 C448.7031,915.9871 454.4341,915.602 457.5141,921.559 C461.1804,915.6002 466.0551,916.2958 469.428,921.8623 C474.1552,916.3631 479.3175,916.6247 483.2363,922.817 C486.1493,917.6407 490.0317,917.8287 493.3484,922.3981 C497.7451,917.6358 501.3288,917.9415 505.0606,923.1771 C511.2927,924.2951 513.4233,928.7583 508.9786,933.8103 C515.0431,936.8949 515.2073,942.6661 509.631,946.3561 C514.3604,950.6878 513.802,954.5281 508.702,958.0811 C512.5982,962.9937 513.161,967.1742 506.14,969.674 C502.342,974.9633 496.4448,974.925 493.2122,969.021 C490.9253,974.6824 486.7248,974.9093 482.9087,970.6014 C478.2914,977.2345 473.5542,976.3516 469.7375,969.8015 C467.6234,974.7182 462.5762,975.0486 459.4373,970.9757 C456.2665,978.6991 449.9922,977.5925 445.5506,972.3352 C442.2448,977.5894 438.6196,978.8244 434.1504,973.601 C429.0362,978.1845 424.9867,976.7959 422.0823,971.0254 C419.3697,977.5083 413.8922,978.0329 409.9095,972.29 C405.8389,977.1184 400.8499,976.2907 399.3063,969.9015 C396.4595,975.8957 391.4713,975.894 387.4698,971.1775 C383.0324,976.4906 379,975.4342 375.8843,969.7811 C371.4165,975.7878 367.5764,976.1398 363.5635,969.3433 C355.6569,968.4842 352.4437,962.9297 357.9906,956.3156 C350.9473,954.5447 351.0131,949.1965 355.1214,944.6765 C351.2832,939.2175 353.0085,934.7712 359.9165,934.2584 C356.2134,930.0227 356.8369,924.8729 362.9514,923.3748 " fill="#F1F1F1" style="stroke:#181818;stroke-width:0.5;"/><text fill="#000000" font-family="sans-serif" font-size="14" font-style="italic" lengthAdjust="spacing" textLength="129" x="369" y="941.3451">&#171;External Service&#187;</text><text fill="#000000" font-family="sans-serif" font-size="14" lengthAdjust="spacing" textLength="123" x="372" y="957.642">Google OAuth 2.0</text></g><!--entity MongoDB--><g id="elem_MongoDB"><path d="M780.5,915.7 C780.5,905.7 858.5,905.7 858.5,905.7 C858.5,905.7 936.5,905.7 936.5,915.7 L936.5,973.5906 C936.5,983.5906 858.5,983.5906 858.5,983.5906 C858.5,983.5906 780.5,983.5906 780.5,973.5906 L780.5,915.7 " fill="#F1F1F1" style="stroke:#181818;stroke-width:0.5;"/><path d="M780.5,915.7 C780.5,925.7 858.5,925.7 858.5,925.7 C858.5,925.7 936.5,925.7 936.5,915.7 " fill="none" style="stroke:#181818;stroke-width:0.5;"/><text fill="#000000" font-family="sans-serif" font-size="14" font-style="italic" lengthAdjust="spacing" textLength="83" x="817" y="942.6951">&#171;Database&#187;</text><text fill="#000000" font-family="sans-serif" font-size="14" lengthAdjust="spacing" textLength="69" x="790.5" y="958.992">MongoDB</text><text fill="#000000" font-family="sans-serif" font-size="14" lengthAdjust="spacing" textLength="136" x="790.5" y="975.2889">(Platform Database)</text></g><!--entity Ollama--><g id="elem_Ollama"><polygon fill="#F1F1F1" points="16,711.16,26,701.16,139,701.16,139,770.0506,129,780.0506,16,780.0506,16,711.16" style="stroke:#181818;stroke-width:0.5;"/><line style="stroke:#181818;stroke-width:0.5;" x1="129" x2="139" y1="711.16" y2="701.16"/><line style="stroke:#181818;stroke-width:0.5;" x1="16" x2="129" y1="711.16" y2="711.16"/><line style="stroke:#181818;stroke-width:0.5;" x1="129" x2="129" y1="711.16" y2="780.0506"/><text fill="#000000" font-family="sans-serif" font-size="14" font-style="italic" lengthAdjust="spacing" textLength="82" x="31.5" y="734.1551">&#171;LLM Host&#187;</text><text fill="#000000" font-family="sans-serif" font-size="14" lengthAdjust="spacing" textLength="46" x="31" y="750.452">Ollama</text><text fill="#000000" font-family="sans-serif" font-size="14" lengthAdjust="spacing" textLength="83" x="31" y="766.7489">(Local LLMs)</text></g><g id="elem_GMN21"><path d="M869.5,6 L869.5,105.36 L835.17,109.36 L869.5,113.36 L869.5,212.7266 A0,0 0 0 0 869.5,212.7266 L1135.5,212.7266 A0,0 0 0 0 1135.5,212.7266 L1135.5,16 L1125.5,6 L869.5,6 A0,0 0 0 0 869.5,6 " fill="#FEFFDD" style="stroke:#181818;stroke-width:0.5;"/><path d="M1125.5,6 L1125.5,16 L1135.5,16 L1125.5,6 " fill="#FEFFDD" style="stroke:#181818;stroke-width:0.5;"/><text fill="#000000" font-family="sans-serif" font-size="13" lengthAdjust="spacing" textLength="86" x="875.5" y="23.0669">3 Base Roles:</text><text fill="#000000" font-family="sans-serif" font-size="13" lengthAdjust="spacing" textLength="179" x="875.5" y="38.1997">&#8226; Administrator (full access)</text><text fill="#000000" font-family="sans-serif" font-size="13" lengthAdjust="spacing" textLength="245" x="875.5" y="53.3325">&#8226; Knowledge Curator (content creator)</text><text fill="#000000" font-family="sans-serif" font-size="13" lengthAdjust="spacing" textLength="223" x="875.5" y="68.4653">&#8226; Knowledge Explorator (read-only)</text><text fill="#000000" font-family="sans-serif" font-size="13" lengthAdjust="spacing" textLength="4" x="875.5" y="83.5981">&#160;</text><text fill="#000000" font-family="sans-serif" font-size="13" lengthAdjust="spacing" textLength="194" x="875.5" y="98.731">Curator Capabilities (optional):</text><text fill="#000000" font-family="sans-serif" font-size="13" lengthAdjust="spacing" textLength="99" x="875.5" y="113.8638">&#8226; Agent Access</text><text fill="#000000" font-family="sans-serif" font-size="13" lengthAdjust="spacing" textLength="118" x="875.5" y="128.9966">&#8226; Analytics Access</text><text fill="#000000" font-family="sans-serif" font-size="13" lengthAdjust="spacing" textLength="114" x="875.5" y="144.1294">&#8226; Reviewer Status</text><text fill="#000000" font-family="sans-serif" font-size="13" lengthAdjust="spacing" textLength="4" x="875.5" y="159.2622">&#160;</text><text fill="#000000" font-family="sans-serif" font-size="13" lengthAdjust="spacing" textLength="156" x="875.5" y="174.395">Authentication Methods:</text><text fill="#000000" font-family="sans-serif" font-size="13" lengthAdjust="spacing" textLength="143" x="875.5" y="189.5278">&#8226; Google OAuth (SSO)</text><text fill="#000000" font-family="sans-serif" font-size="13" lengthAdjust="spacing" textLength="66" x="875.5" y="204.6606">&#8226; API Keys</text></g><g id="elem_GMN24"><path d="M574,667.5 L574,736.6 L530.86,740.6 L574,744.6 L574,813.6953 A0,0 0 0 0 574,813.6953 L789,813.6953 A0,0 0 0 0 789,813.6953 L789,677.5 L779,667.5 L574,667.5 A0,0 0 0 0 574,667.5 " fill="#FEFFDD" style="stroke:#181818;stroke-width:0.5;"/><path d="M779,667.5 L779,677.5 L789,677.5 L779,667.5 " fill="#FEFFDD" style="stroke:#181818;stroke-width:0.5;"/><text fill="#000000" font-family="sans-serif" font-size="13" lengthAdjust="spacing" textLength="194" x="580" y="684.5669">Shared Authentication Library:</text><text fill="#000000" font-family="sans-serif" font-size="13" lengthAdjust="spacing" textLength="98" x="580" y="699.6997">&#8226; JWT validation</text><text fill="#000000" font-family="sans-serif" font-size="13" lengthAdjust="spacing" textLength="123" x="580" y="714.8325">&#8226; API key validation</text><text fill="#000000" font-family="sans-serif" font-size="13" lengthAdjust="spacing" textLength="142" x="580" y="729.9653">&#8226; Permission checking</text><text fill="#000000" font-family="sans-serif" font-size="13" lengthAdjust="spacing" textLength="95" x="580" y="745.0981">&#8226; Audit logging</text><text fill="#000000" font-family="sans-serif" font-size="13" lengthAdjust="spacing" textLength="161" x="580" y="760.231">&#8226; User models (Pydantic)</text><text fill="#000000" font-family="sans-serif" font-size="13" lengthAdjust="spacing" textLength="4" x="580" y="775.3638">&#160;</text><text fill="#000000" font-family="sans-serif" font-size="13" lengthAdjust="spacing" textLength="174" x="580" y="790.4966">Eliminates code duplication</text><text fill="#000000" font-family="sans-serif" font-size="13" lengthAdjust="spacing" textLength="192" x="580" y="805.6294">between KB and MA backends</text></g><!--link KB to SharedUtils--><g id="link_KB_SharedUtils"><path d="M453.74,575.63 C449.3,611.56 443.4646,658.8851 439.0246,694.8751 " fill="none" id="KB-to-SharedUtils" style="stroke:#181818;stroke-width:1.0;stroke-dasharray:7.0,7.0;"/><polygon fill="#181818" points="438.29,700.83,443.3619,692.3875,438.9022,695.8676,435.4221,691.408,438.29,700.83" style="stroke:#181818;stroke-width:1.0;"/><text fill="#000000" font-family="sans-serif" font-size="13" lengthAdjust="spacing" textLength="49" x="484.2" y="618.5669">imports</text><text fill="#000000" font-family="sans-serif" font-size="13" lengthAdjust="spacing" textLength="116" x="450.7" y="633.6997">(JWT, permissions)</text></g><!--link MA to SharedUtils--><g id="link_MA_SharedUtils"><path d="M356.15,397.58 C312.58,418.48 263.6,450.65 238.5,496.61 C195.21,575.89 286.3065,651.9369 358.4065,697.4569 " fill="none" id="MA-to-SharedUtils" style="stroke:#181818;stroke-width:1.0;stroke-dasharray:7.0,7.0;"/><polygon fill="#181818" points="363.48,700.66,358.0052,692.473,359.2521,697.9907,353.7344,699.2376,363.48,700.66" style="stroke:#181818;stroke-width:1.0;"/><text fill="#000000" font-family="sans-serif" font-size="13" lengthAdjust="spacing" textLength="49" x="273" y="533.1269">imports</text><text fill="#000000" font-family="sans-serif" font-size="13" lengthAdjust="spacing" textLength="116" x="239.5" y="548.2597">(JWT, permissions)</text></g><!--link MA to KB--><g id="link_MA_KB"><path d="M445.4,404.92 C448.15,432.28 451.2284,462.8402 453.9884,490.2302 " fill="none" id="MA-to-KB" style="stroke:#181818;stroke-width:1.0;"/><polygon fill="#181818" points="454.59,496.2,457.6675,486.8443,454.0887,491.2252,449.7078,487.6464,454.59,496.2" style="stroke:#181818;stroke-width:1.0;"/><text fill="#000000" font-family="sans-serif" font-size="13" lengthAdjust="spacing" textLength="88" x="458.02" y="447.6769">HTTP API calls</text><text fill="#000000" font-family="sans-serif" font-size="13" lengthAdjust="spacing" textLength="99" x="452.52" y="462.8097">(authenticated)</text></g><!--link Users to KB--><g id="link_Users_KB"><path d="M764.53,164.22 C751.37,197.15 732.69,239.56 711.5,274.72 C655.49,367.67 640.09,392.83 560.5,466.61 C549.16,477.12 540.987,483.7458 528.037,492.7458 " fill="none" id="Users-to-KB" style="stroke:#181818;stroke-width:1.0;"/><polygon fill="#181818" points="523.11,496.17,532.7832,494.3184,527.2158,493.3165,528.2177,487.7491,523.11,496.17" style="stroke:#181818;stroke-width:1.0;"/><text fill="#000000" font-family="sans-serif" font-size="13" lengthAdjust="spacing" textLength="83" x="715.03" y="362.2369">Web UI + API</text><text fill="#000000" font-family="sans-serif" font-size="13" lengthAdjust="spacing" textLength="99" x="707.03" y="377.3697">(authenticated)</text></g><!--link Users to MA--><g id="link_Users_MA"><path d="M733.52,148.08 C669.14,195.73 563.753,273.7009 498.713,321.8309 " fill="none" id="Users-to-MA" style="stroke:#181818;stroke-width:1.0;"/><polygon fill="#181818" points="493.89,325.4,503.5039,323.2617,497.9092,322.4258,498.7452,316.831,493.89,325.4" style="stroke:#181818;stroke-width:1.0;"/><text fill="#000000" font-family="sans-serif" font-size="13" lengthAdjust="spacing" textLength="83" x="611.72" y="255.7869">Web UI + API</text><text fill="#000000" font-family="sans-serif" font-size="13" lengthAdjust="spacing" textLength="99" x="603.72" y="270.9197">(authenticated)</text></g><!--link SharedUtils to GoogleOAuth--><g id="link_SharedUtils_GoogleOAuth"><path d="M433.5,780.08 C433.5,818.66 433.5,871.32 433.5,906.9 " fill="none" id="SharedUtils-to-GoogleOAuth" style="stroke:#181818;stroke-width:1.0;"/><polygon fill="#181818" points="433.5,912.9,437.5,903.9,433.5,907.9,429.5,903.9,433.5,912.9" style="stroke:#181818;stroke-width:1.0;"/><text fill="#000000" font-family="sans-serif" font-size="13" lengthAdjust="spacing" textLength="68" x="434.5" y="864.2669">OAuth flow</text></g><!--link SharedUtils to MongoDB--><g id="link_SharedUtils_MongoDB"><path d="M496.19,780.36 C515.28,791.62 536.51,803.59 556.5,813.7 C630.74,851.25 712.7641,885.9194 774.4441,910.7494 " fill="none" id="SharedUtils-to-MongoDB" style="stroke:#181818;stroke-width:1.0;"/><polygon fill="#181818" points="780.01,912.99,773.1549,905.9184,775.3717,911.1228,770.1674,913.3397,780.01,912.99" style="stroke:#181818;stroke-width:1.0;"/><text fill="#000000" font-family="sans-serif" font-size="13" lengthAdjust="spacing" textLength="78" x="713.36" y="856.7669">users, roles,</text><text fill="#000000" font-family="sans-serif" font-size="13" lengthAdjust="spacing" textLength="128" x="688.36" y="871.8997">api_keys, audit_logs</text></g><!--link KB to MongoDB--><g id="link_KB_MongoDB"><path d="M543.22,545.41 C623.34,557.98 740.79,589.35 806.5,667.5 C863.8,735.65 866.1956,840.9812 862.6356,899.2912 " fill="none" id="KB-to-MongoDB" style="stroke:#181818;stroke-width:1.0;"/><polygon fill="#181818" points="862.27,905.28,866.811,896.5405,862.5747,900.2893,858.8259,896.053,862.27,905.28" style="stroke:#181818;stroke-width:1.0;"/><text fill="#000000" font-family="sans-serif" font-size="13" lengthAdjust="spacing" textLength="100" x="897.52" y="737.6669">knowledge data</text><text fill="#000000" font-family="sans-serif" font-size="13" lengthAdjust="spacing" textLength="173" x="861.02" y="752.7997">(facts, graphs, documents)</text></g><!--link MA to MongoDB--><g id="link_MA_MongoDB"><path d="M526.88,396.22 C678.61,451.54 984.84,572.54 1043.5,667.5 C1077.65,722.78 1073.46,756.04 1043.5,813.7 C1020.97,857.06 981.8825,886.1348 942.2425,907.4848 " fill="none" id="MA-to-MongoDB" style="stroke:#181818;stroke-width:1.0;"/><polygon fill="#181818" points="936.96,910.33,946.7806,909.584,941.3621,907.959,942.987,902.5406,936.96,910.33" style="stroke:#181818;stroke-width:1.0;"/><text fill="#000000" font-family="sans-serif" font-size="13" lengthAdjust="spacing" textLength="92" x="1061.4" y="618.5669">modeling data</text><text fill="#000000" font-family="sans-serif" font-size="13" lengthAdjust="spacing" textLength="177" x="1018.9" y="633.6997">(scenarios, models, results)</text></g><!--link KB to Ollama--><g id="link_KB_Ollama"><path d="M373.65,569.35 C314.85,593.18 235.73,628.19 170.5,667.5 C154.4,677.21 142.5804,685.5462 128.0004,696.9862 " fill="none" id="KB-to-Ollama" style="stroke:#181818;stroke-width:1.0;"/><polygon fill="#181818" points="123.28,700.69,132.8298,698.2812,127.2137,697.6035,127.8914,691.9874,123.28,700.69" style="stroke:#181818;stroke-width:1.0;"/><text fill="#000000" font-family="sans-serif" font-size="13" lengthAdjust="spacing" textLength="88" x="286.78" y="626.0669">LLM inference</text></g><!--link MA to Ollama--><g id="link_MA_Ollama"><path d="M356.27,378.26 C284.22,393.19 184.23,425.94 129.5,496.61 C83.01,556.64 75.8507,642.98 75.9307,694.83 " fill="none" id="MA-to-Ollama" style="stroke:#181818;stroke-width:1.0;"/><polygon fill="#181818" points="75.94,700.83,79.9261,691.8238,75.9323,695.83,71.9261,691.8362,75.94,700.83" style="stroke:#181818;stroke-width:1.0;"/><text fill="#000000" font-family="sans-serif" font-size="13" lengthAdjust="spacing" textLength="88" x="130.5" y="540.6269">LLM inference</text></g><!--SRC=[dLNTQXjP3BwVfn3kHMmQXwMzCy7WdspJZKrCdRGtWIBFQCQ7d3bdEEUC4rCAVPPzj7sIIlDdUqrOM0WublH9Efy-oHSmINPevZTJMEzze1ncrWHw3J1Nc3dCeJ_JX0Q6SAkoBIneHnhkZTuFekW2vfGgGr1wSf0vMnO-mZXO1xsLnf1QbyCZ-_oJwN-4ANg2BrQJ7_G0VUs1w-iLVrWp7al29Ie3HOjr50SqcQQe-mzwNSDjYHxyY03uxmBMMtIK09PXIoQe68Eo1hJQE7HxZeXjNbZ3BkYXf4beC_GLPbW6fQNF2MDXKIFgFkkaZ-ANRlTXopbN63zZHkCnl5imCM6gIsgxg1xHbVAdTTlsdyoTiI-QaenWMYgTaAkgtKsvo9_emsJr6Tx3r_9GuvCZCczbMzg4j38PJBnNdiaALRhbvCrqC-jGjpr_vgaxWvevrnLhVgiAQPtxkReQdv0m0iKDk21q_VNjuH8AShdYiemQC8Hh_W_8S3YMOYEuVNXOWRGRewv6SZHEIWRHJn7ApMlJBujefsBoKQnjcK3laxKYa_jgZX-k_gXOg8srxVgwmwvhB4ilmO0RqMTlQKrcvqnelvFml77MScW2E4zhPxnXzg5thpNcoD25vTvXiLWsKgyT364Jt5eVQhNB1e0IvdbhX0heU-P9grJ9G-i5wNZvHXjub24oD-Ui78APo_yAvjhTwu85EYFpU7QIyvZ0KKDkgktBMM3BpgWw2luId2pyvPF1Gdr_fZrRi4nK-AvjvgE87tQAUkwMGaR2dQTC3OFu5XLR_aniNEQoLOEeqSm1cxShq41zJ0QTiWohND8D-L8BkAtSJ6Oam-9HfEJ8nDJcViFBumu4JfO8R5eVCXRnyOaRyVT_VltDvpLNXlVHePp5Vbfg3HWpnPNi9U9m1cPb4nNB3URrZXs9uJpovhNGjWdcc6HegujSxNARPOO5RfHMGH7hoXOYCDI3hh5CAaogLbeJ-_Ui4Nzg_a8xHI-ir7N0KFgwokJqn2w9hsBIlVfa2VlhzNtx15dhErP1H2O1OR7XKbDQKNaa9qOqv_nVjPhZtDRYSm8xr2gfl4TrM6tdZbLtTo3UKlpCScaX8ajWMMO7MxMWjNQWlzedA5qqFDzenQFbVV9ya7dxav8NDsvhRIYyyBMMpUMV6Td93VzYyAkFdluR]--></g></svg>