<?xml version="1.0" encoding="us-ascii" standalone="no"?><svg xmlns="http://www.w3.org/2000/svg" xmlns:xlink="http://www.w3.org/1999/xlink" contentStyleType="text/css" height="1207px" preserveAspectRatio="none" style="width:1121px;height:1207px;background:#FFFFFF;" version="1.1" viewBox="0 0 1121 1207" width="1121px" zoomAndPan="magnify"><defs/><g><!--cluster AdvanDEB Platform--><g id="cluster_AdvanDEB Platform"><rect fill="none" height="653.96" rx="2.5" ry="2.5" style="stroke:#181818;stroke-width:1.0;" width="591" x="156.52" y="290.73"/><text fill="#000000" font-family="sans-serif" font-size="14" font-weight="bold" lengthAdjust="spacing" textLength="150" x="377.02" y="305.7251">AdvanDEB Platform</text></g><!--cluster MA--><g id="cluster_MA"><rect fill="#F08080" height="178.6" rx="2.5" ry="2.5" style="stroke:#181818;stroke-width:1.0;" width="505" x="205.52" y="341.73"/><rect fill="#F08080" height="10" style="stroke:#181818;stroke-width:1.0;" width="15" x="690.52" y="346.73"/><rect fill="#F08080" height="2" style="stroke:#181818;stroke-width:1.0;" width="4" x="688.52" y="348.73"/><rect fill="#F08080" height="2" style="stroke:#181818;stroke-width:1.0;" width="4" x="688.52" y="352.73"/><text fill="#000000" font-family="sans-serif" font-size="14" font-style="italic" lengthAdjust="spacing" textLength="116" x="400.02" y="367.7251">&#171;FastAPI + Vue&#187;</text><text fill="#000000" font-family="sans-serif" font-size="14" font-weight="bold" lengthAdjust="spacing" textLength="79" x="418.52" y="384.022">AdvanDEB</text><text fill="#000000" font-family="sans-serif" font-size="14" font-weight="bold" lengthAdjust="spacing" textLength="149" x="383.52" y="400.3189">Modeling Assistant</text><text fill="#000000" font-family="sans-serif" font-size="14" font-weight="bold" lengthAdjust="spacing" textLength="80" x="418.02" y="416.6157">(Main GUI)</text></g><!--entity KB--><g id="elem_KB"><rect fill="#90EE90" height="78.8906" rx="2.5" ry="2.5" style="stroke:#181818;stroke-width:0.5;" width="241" x="488.02" y="849.8"/><rect fill="#90EE90" height="10" style="stroke:#181818;stroke-width:0.5;" width="15" x="709.02" y="854.8"/><rect fill="#90EE90" height="2" style="stroke:#181818;stroke-width:0.5;" width="4" x="707.02" y="856.8"/><rect fill="#90EE90" height="2" style="stroke:#181818;stroke-width:0.5;" width="4" x="707.02" y="860.8"/><text fill="#000000" font-family="sans-serif" font-size="14" font-style="italic" lengthAdjust="spacing" textLength="128" x="539.52" y="882.7951">&#171;Python Package&#187;</text><text fill="#000000" font-family="sans-serif" font-size="14" lengthAdjust="spacing" textLength="201" x="503.02" y="899.092">advandeb-knowledge-builder</text><text fill="#000000" font-family="sans-serif" font-size="14" lengthAdjust="spacing" textLength="120" x="503.02" y="915.3889">(Toolkit/Package)</text></g><!--entity MCP--><g id="elem_MCP"><rect fill="#FFFFE0" height="78.8906" rx="2.5" ry="2.5" style="stroke:#181818;stroke-width:0.5;" width="190" x="541.52" y="645.26"/><rect fill="#FFFFE0" height="10" style="stroke:#181818;stroke-width:0.5;" width="15" x="711.52" y="650.26"/><rect fill="#FFFFE0" height="2" style="stroke:#181818;stroke-width:0.5;" width="4" x="709.52" y="652.26"/><rect fill="#FFFFE0" height="2" style="stroke:#181818;stroke-width:0.5;" width="4" x="709.52" y="656.26"/><text fill="#000000" font-family="sans-serif" font-size="14" font-style="italic" lengthAdjust="spacing" textLength="94" x="584.52" y="678.2551">&#171;Rust/Axum&#187;</text><text fill="#000000" font-family="sans-serif" font-size="14" lengthAdjust="spacing" textLength="104" x="556.52" y="694.552">advandeb-MCP</text><text fill="#000000" font-family="sans-serif" font-size="14" lengthAdjust="spacing" textLength="150" x="556.52" y="710.8489">(Internal MCP Service)</text></g><!--entity SharedUtils--><g id="elem_SharedUtils"><rect fill="#ADD8E6" height="78.8906" rx="2.5" ry="2.5" style="stroke:#181818;stroke-width:0.5;" width="194" x="172.52" y="645.26"/><rect fill="#ADD8E6" height="10" style="stroke:#181818;stroke-width:0.5;" width="15" x="346.52" y="650.26"/><rect fill="#ADD8E6" height="2" style="stroke:#181818;stroke-width:0.5;" width="4" x="344.52" y="652.26"/><rect fill="#ADD8E6" height="2" style="stroke:#181818;stroke-width:0.5;" width="4" x="344.52" y="656.26"/><text fill="#000000" font-family="sans-serif" font-size="14" font-style="italic" lengthAdjust="spacing" textLength="128" x="200.52" y="678.2551">&#171;Python Package&#187;</text><text fill="#000000" font-family="sans-serif" font-size="14" lengthAdjust="spacing" textLength="154" x="187.52" y="694.552">advandeb-shared-utils</text><text fill="#000000" font-family="sans-serif" font-size="14" lengthAdjust="spacing" textLength="90" x="187.52" y="710.8489">(Auth Library)</text></g><!--entity MAFront--><g id="elem_MAFront"><rect fill="#F1F1F1" height="62.5938" rx="2.5" ry="2.5" style="stroke:#181818;stroke-width:0.5;" width="103" x="249.02" y="433.73"/><rect fill="#F1F1F1" height="10" style="stroke:#181818;stroke-width:0.5;" width="15" x="332.02" y="438.73"/><rect fill="#F1F1F1" height="2" style="stroke:#181818;stroke-width:0.5;" width="4" x="330.02" y="440.73"/><rect fill="#F1F1F1" height="2" style="stroke:#181818;stroke-width:0.5;" width="4" x="330.02" y="444.73"/><text fill="#000000" font-family="sans-serif" font-size="14" font-style="italic" lengthAdjust="spacing" textLength="60" x="265.52" y="466.7251">&#171;Vue.js&#187;</text><text fill="#000000" font-family="sans-serif" font-size="14" lengthAdjust="spacing" textLength="63" x="264.02" y="483.022">Frontend</text></g><!--entity MABack--><g id="elem_MABack"><rect fill="#F1F1F1" height="62.5938" rx="2.5" ry="2.5" style="stroke:#181818;stroke-width:0.5;" width="108" x="387.52" y="433.73"/><rect fill="#F1F1F1" height="10" style="stroke:#181818;stroke-width:0.5;" width="15" x="475.52" y="438.73"/><rect fill="#F1F1F1" height="2" style="stroke:#181818;stroke-width:0.5;" width="4" x="473.52" y="440.73"/><rect fill="#F1F1F1" height="2" style="stroke:#181818;stroke-width:0.5;" width="4" x="473.52" y="444.73"/><text fill="#000000" font-family="sans-serif" font-size="14" font-style="italic" lengthAdjust="spacing" textLength="68" x="402.52" y="466.7251">&#171;FastAPI&#187;</text><text fill="#000000" font-family="sans-serif" font-size="14" lengthAdjust="spacing" textLength="61" x="406.02" y="483.022">Backend</text></g><!--entity MAAuth--><g id="elem_MAAuth"><rect fill="#F1F1F1" height="62.5938" rx="2.5" ry="2.5" style="stroke:#181818;stroke-width:0.5;" width="156" x="530.52" y="433.73"/><rect fill="#F1F1F1" height="10" style="stroke:#181818;stroke-width:0.5;" width="15" x="666.52" y="438.73"/><rect fill="#F1F1F1" height="2" style="stroke:#181818;stroke-width:0.5;" width="4" x="664.52" y="440.73"/><rect fill="#F1F1F1" height="2" style="stroke:#181818;stroke-width:0.5;" width="4" x="664.52" y="444.73"/><text fill="#000000" font-family="sans-serif" font-size="14" font-style="italic" lengthAdjust="spacing" textLength="116" x="545.52" y="466.7251">&#171;Google OAuth&#187;</text><text fill="#000000" font-family="sans-serif" font-size="14" lengthAdjust="spacing" textLength="32" x="587.52" y="483.022">Auth</text></g><!--entity Users--><g id="elem_Users"><ellipse cx="300.52" cy="79.7169" fill="#F1F1F1" rx="8" ry="8" style="stroke:#181818;stroke-width:0.5;"/><path d="M300.52,87.7169 L300.52,114.7169 M287.52,95.7169 L313.52,95.7169 M300.52,114.7169 L287.52,129.7169 M300.52,114.7169 L313.52,129.7169 " fill="none" style="stroke:#181818;stroke-width:0.5;"/><text fill="#000000" font-family="sans-serif" font-size="14" lengthAdjust="spacing" textLength="100" x="250.02" y="144.212">Platform Users</text><text fill="#000000" font-family="sans-serif" font-size="14" lengthAdjust="spacing" textLength="101" x="250.02" y="160.5089">(3 Base Roles)</text><text fill="#000000" font-family="sans-serif" font-size="14" font-style="italic" lengthAdjust="spacing" textLength="65" x="268.02" y="67.9151">&#171;Person&#187;</text></g><!--entity GoogleOAuth--><g id="elem_GoogleOAuth"><path d="M774.9714,663.4348 C777.846,657.4967 781.7268,656.8399 786.5379,661.2758 C790.6876,655.6165 794.8308,656.4015 798.7616,661.5239 C802.6788,656.856 806.2411,656.1222 809.8945,661.8075 C813.3141,654.6645 817.1667,654.418 822.0653,660.4402 C825.6589,655.1227 831.2114,654.5025 834.3175,660.9481 C837.6339,655.0292 842.1167,654.5834 845.6822,660.7131 C849.9317,654.6434 853.8848,656.452 857.4638,661.4283 C860.7231,656.0471 866.4541,655.662 869.5341,661.619 C873.2004,655.6602 878.0751,656.3558 881.448,661.9223 C886.1752,656.4231 891.3375,656.6847 895.2563,662.877 C898.1693,657.7007 902.0517,657.8887 905.3684,662.4581 C909.7651,657.6958 913.3488,658.0015 917.0806,663.2371 C923.3127,664.3551 925.4433,668.8183 920.9986,673.8703 C927.0631,676.9549 927.2273,682.7261 921.651,686.4161 C926.3804,690.7478 925.822,694.5881 920.722,698.1411 C924.6182,703.0537 925.181,707.2342 918.16,709.734 C914.362,715.0233 908.4648,714.985 905.2322,709.081 C902.9453,714.7424 898.7448,714.9693 894.9287,710.6614 C890.3114,717.2945 885.5742,716.4116 881.7575,709.8615 C879.6434,714.7782 874.5962,715.1086 871.4573,711.0357 C868.2865,718.7591 862.0122,717.6525 857.5706,712.3952 C854.2648,717.6494 850.6396,718.8844 846.1704,713.661 C841.0562,718.2445 837.0067,716.8559 834.1023,711.0854 C831.3897,717.5683 825.9122,718.0929 821.9295,712.35 C817.8589,717.1784 812.8699,716.3507 811.3263,709.9615 C808.4795,715.9557 803.4913,715.954 799.4898,711.2375 C795.0524,716.5506 791.02,715.4942 787.9043,709.8411 C783.4365,715.8478 779.5964,716.1998 775.5835,709.4033 C767.6769,708.5442 764.4637,702.9897 770.0106,696.3756 C762.9673,694.6047 763.0331,689.2565 767.1414,684.7365 C763.3032,679.2775 765.0285,674.8312 771.9365,674.3184 C768.2334,670.0827 768.8569,664.9329 774.9714,663.4348 " fill="#F1F1F1" style="stroke:#181818;stroke-width:0.5;"/><text fill="#000000" font-family="sans-serif" font-size="14" font-style="italic" lengthAdjust="spacing" textLength="129" x="781.02" y="681.4051">&#171;External Service&#187;</text><text fill="#000000" font-family="sans-serif" font-size="14" lengthAdjust="spacing" textLength="123" x="784.02" y="697.702">Google OAuth 2.0</text></g><!--entity MongoDB--><g id="elem_MongoDB"><path d="M248.52,1098.5 C248.52,1088.5 326.52,1088.5 326.52,1088.5 C326.52,1088.5 404.52,1088.5 404.52,1098.5 L404.52,1156.3906 C404.52,1166.3906 326.52,1166.3906 326.52,1166.3906 C326.52,1166.3906 248.52,1166.3906 248.52,1156.3906 L248.52,1098.5 " fill="#F1F1F1" style="stroke:#181818;stroke-width:0.5;"/><path d="M248.52,1098.5 C248.52,1108.5 326.52,1108.5 326.52,1108.5 C326.52,1108.5 404.52,1108.5 404.52,1098.5 " fill="none" style="stroke:#181818;stroke-width:0.5;"/><text fill="#000000" font-family="sans-serif" font-size="14" font-style="italic" lengthAdjust="spacing" textLength="83" x="285.02" y="1125.4951">&#171;Database&#187;</text><text fill="#000000" font-family="sans-serif" font-size="14" lengthAdjust="spacing" textLength="69" x="258.52" y="1141.792">MongoDB</text><text fill="#000000" font-family="sans-serif" font-size="14" lengthAdjust="spacing" textLength="136" x="258.52" y="1158.0889">(Platform Database)</text></g><!--entity Ollama--><g id="elem_Ollama"><polygon fill="#F1F1F1" points="883.02,1098,893.02,1088,1006.02,1088,1006.02,1156.8906,996.02,1166.8906,883.02,1166.8906,883.02,1098" style="stroke:#181818;stroke-width:0.5;"/><line style="stroke:#181818;stroke-width:0.5;" x1="996.02" x2="1006.02" y1="1098" y2="1088"/><line style="stroke:#181818;stroke-width:0.5;" x1="883.02" x2="996.02" y1="1098" y2="1098"/><line style="stroke:#181818;stroke-width:0.5;" x1="996.02" x2="996.02" y1="1098" y2="1166.8906"/><text fill="#000000" font-family="sans-serif" font-size="14" font-style="italic" lengthAdjust="spacing" textLength="82" x="898.52" y="1120.9951">&#171;LLM Host&#187;</text><text fill="#000000" font-family="sans-serif" font-size="14" lengthAdjust="spacing" textLength="46" x="898.02" y="1137.292">Ollama</text><text fill="#000000" font-family="sans-serif" font-size="14" lengthAdjust="spacing" textLength="83" x="898.02" y="1153.5889">(Local LLMs)</text></g><g id="elem_GMN25"><path d="M386.02,6 L386.02,105.37 L351.28,109.37 L386.02,113.37 L386.02,212.7266 A0,0 0 0 0 386.02,212.7266 L675.02,212.7266 A0,0 0 0 0 675.02,212.7266 L675.02,16 L665.02,6 L386.02,6 A0,0 0 0 0 386.02,6 " fill="#FEFFDD" style="stroke:#181818;stroke-width:0.5;"/><path d="M665.02,6 L665.02,16 L675.02,16 L665.02,6 " fill="#FEFFDD" style="stroke:#181818;stroke-width:0.5;"/><text fill="#000000" font-family="sans-serif" font-size="13" lengthAdjust="spacing" textLength="86" x="392.02" y="23.0669">3 Base Roles:</text><text fill="#000000" font-family="sans-serif" font-size="13" lengthAdjust="spacing" textLength="179" x="392.02" y="38.1997">&#8226; Administrator (full access)</text><text fill="#000000" font-family="sans-serif" font-size="13" lengthAdjust="spacing" textLength="248" x="392.02" y="53.3325">&#8226; Knowledge Curator (upload, suggest)</text><text fill="#000000" font-family="sans-serif" font-size="13" lengthAdjust="spacing" textLength="223" x="392.02" y="68.4653">&#8226; Knowledge Explorator (read-only)</text><text fill="#000000" font-family="sans-serif" font-size="13" lengthAdjust="spacing" textLength="4" x="392.02" y="83.5981">&#160;</text><text fill="#000000" font-family="sans-serif" font-size="13" lengthAdjust="spacing" textLength="194" x="392.02" y="98.731">Curator Capabilities (optional):</text><text fill="#000000" font-family="sans-serif" font-size="13" lengthAdjust="spacing" textLength="243" x="392.02" y="113.8638">&#8226; Knowledge Creation (create directly)</text><text fill="#000000" font-family="sans-serif" font-size="13" lengthAdjust="spacing" textLength="99" x="392.02" y="128.9966">&#8226; Agent Access</text><text fill="#000000" font-family="sans-serif" font-size="13" lengthAdjust="spacing" textLength="118" x="392.02" y="144.1294">&#8226; Analytics Access</text><text fill="#000000" font-family="sans-serif" font-size="13" lengthAdjust="spacing" textLength="114" x="392.02" y="159.2622">&#8226; Reviewer Status</text><text fill="#000000" font-family="sans-serif" font-size="13" lengthAdjust="spacing" textLength="4" x="392.02" y="174.395">&#160;</text><text fill="#000000" font-family="sans-serif" font-size="13" lengthAdjust="spacing" textLength="268" x="392.02" y="189.5278">All access through Modeling Assistant GUI</text><text fill="#000000" font-family="sans-serif" font-size="13" lengthAdjust="spacing" textLength="223" x="392.02" y="204.6606">Features shown based on user role</text></g><g id="elem_GMN28"><path d="M763.02,376.8 L763.02,553.2609 L986.02,553.2609 L986.02,386.8 L976.02,376.8 L763.02,376.8 " fill="#FEFFDD" style="stroke:#181818;stroke-width:0.5;"/><path d="M976.02,376.8 L976.02,386.8 L986.02,386.8 L976.02,376.8 " fill="#FEFFDD" style="stroke:#181818;stroke-width:1.0;"/><text fill="#000000" font-family="sans-serif" font-size="13" lengthAdjust="spacing" textLength="119" x="769.02" y="393.8669">Main Platform GUI:</text><text fill="#000000" font-family="sans-serif" font-size="13" lengthAdjust="spacing" textLength="202" x="769.02" y="408.9997">&#8226; Single entry point for all users</text><text fill="#000000" font-family="sans-serif" font-size="13" lengthAdjust="spacing" textLength="197" x="769.02" y="424.1325">&#8226; Google OAuth authentication</text><text fill="#000000" font-family="sans-serif" font-size="13" lengthAdjust="spacing" textLength="181" x="769.02" y="439.2653">&#8226; Role-based feature access</text><text fill="#000000" font-family="sans-serif" font-size="13" lengthAdjust="spacing" textLength="102" x="769.02" y="454.3981">&#8226; Chat interface</text><text fill="#000000" font-family="sans-serif" font-size="13" lengthAdjust="spacing" textLength="155" x="769.02" y="469.531">&#8226; Knowledge exploration</text><text fill="#000000" font-family="sans-serif" font-size="13" lengthAdjust="spacing" textLength="158" x="769.02" y="484.6638">&#8226; Document ingestion UI</text><text fill="#000000" font-family="sans-serif" font-size="13" lengthAdjust="spacing" textLength="134" x="769.02" y="499.7966">&#8226; Modeling scenarios</text><text fill="#000000" font-family="sans-serif" font-size="13" lengthAdjust="spacing" textLength="4" x="769.02" y="514.9294">&#160;</text><text fill="#000000" font-family="sans-serif" font-size="13" lengthAdjust="spacing" textLength="148" x="769.02" y="530.0622">Integrates KB as toolkit</text><text fill="#000000" font-family="sans-serif" font-size="13" lengthAdjust="spacing" textLength="183" x="769.02" y="545.195">Uses MCP for agent features</text></g><g id="elem_GMN31"><path d="M476.52,1054.34 L476.52,1200.5353 A0,0 0 0 0 476.52,1200.5353 L740.52,1200.5353 A0,0 0 0 0 740.52,1200.5353 L740.52,1064.34 L730.52,1054.34 L612.52,1054.34 L608.52,928.99 L604.52,1054.34 L476.52,1054.34 A0,0 0 0 0 476.52,1054.34 " fill="#FEFFDD" style="stroke:#181818;stroke-width:0.5;"/><path d="M730.52,1054.34 L730.52,1064.34 L740.52,1064.34 L730.52,1054.34 " fill="#FEFFDD" style="stroke:#181818;stroke-width:0.5;"/><text fill="#000000" font-family="sans-serif" font-size="13" lengthAdjust="spacing" textLength="165" x="482.52" y="1071.4069">Knowledge Builder Toolkit:</text><text fill="#000000" font-family="sans-serif" font-size="13" lengthAdjust="spacing" textLength="140" x="482.52" y="1086.5397">&#8226; Fact extraction logic</text><text fill="#000000" font-family="sans-serif" font-size="13" lengthAdjust="spacing" textLength="170" x="482.52" y="1101.6725">&#8226; Stylized facts generation</text><text fill="#000000" font-family="sans-serif" font-size="13" lengthAdjust="spacing" textLength="197" x="482.52" y="1116.8053">&#8226; Document ingestion routines</text><text fill="#000000" font-family="sans-serif" font-size="13" lengthAdjust="spacing" textLength="174" x="482.52" y="1131.9381">&#8226; Knowledge graph building</text><text fill="#000000" font-family="sans-serif" font-size="13" lengthAdjust="spacing" textLength="145" x="482.52" y="1147.071">&#8226; Review workflow logic</text><text fill="#000000" font-family="sans-serif" font-size="13" lengthAdjust="spacing" textLength="4" x="482.52" y="1162.2038">&#160;</text><text fill="#000000" font-family="sans-serif" font-size="13" lengthAdjust="spacing" textLength="168" x="482.52" y="1177.3366">No UI - imported as library</text><text fill="#000000" font-family="sans-serif" font-size="13" lengthAdjust="spacing" textLength="243" x="482.52" y="1192.4694">Can be used standalone for batch ops</text></g><g id="elem_GMN34"><path d="M764.02,816.15 L764.02,962.3453 L981.02,962.3453 L981.02,826.15 L971.02,816.15 L764.02,816.15 " fill="#FEFFDD" style="stroke:#181818;stroke-width:0.5;"/><path d="M971.02,816.15 L971.02,826.15 L981.02,826.15 L971.02,816.15 " fill="#FEFFDD" style="stroke:#181818;stroke-width:1.0;"/><text fill="#000000" font-family="sans-serif" font-size="13" lengthAdjust="spacing" textLength="135" x="770.02" y="833.2169">Internal MCP Service:</text><text fill="#000000" font-family="sans-serif" font-size="13" lengthAdjust="spacing" textLength="182" x="770.02" y="848.3497">&#8226; Background service for MA</text><text fill="#000000" font-family="sans-serif" font-size="13" lengthAdjust="spacing" textLength="183" x="770.02" y="863.4825">&#8226; No authentication required</text><text fill="#000000" font-family="sans-serif" font-size="13" lengthAdjust="spacing" textLength="175" x="770.02" y="878.6153">&#8226; Exposes KB tools via MCP</text><text fill="#000000" font-family="sans-serif" font-size="13" lengthAdjust="spacing" textLength="196" x="770.02" y="893.7481">&#8226; Provides LLM agent interface</text><text fill="#000000" font-family="sans-serif" font-size="13" lengthAdjust="spacing" textLength="193" x="770.02" y="908.881">&#8226; Chat and intelligent features</text><text fill="#000000" font-family="sans-serif" font-size="13" lengthAdjust="spacing" textLength="4" x="770.02" y="924.0138">&#160;</text><text fill="#000000" font-family="sans-serif" font-size="13" lengthAdjust="spacing" textLength="186" x="770.02" y="939.1466">Wraps KB operations as tools</text><text fill="#000000" font-family="sans-serif" font-size="13" lengthAdjust="spacing" textLength="160" x="770.02" y="954.2794">Direct Ollama integration</text></g><!--link MABack to KB--><g id="link_MABack_KB"><path d="M436.34,496.55 C429.3,546.43 420.98,647.56 453.52,724.15 C475.12,775.01 515.334,815.7869 551.244,845.6069 " fill="none" id="MABack-to-KB" style="stroke:#181818;stroke-width:1.0;"/><polygon fill="#181818" points="555.86,849.44,551.4915,840.613,552.0134,846.2457,546.3806,846.7676,555.86,849.44" style="stroke:#181818;stroke-width:1.0;"/><text fill="#000000" font-family="sans-serif" font-size="13" lengthAdjust="spacing" textLength="68" x="454.52" y="681.7669">imports as</text><text fill="#000000" font-family="sans-serif" font-size="13" lengthAdjust="spacing" textLength="54" x="461.52" y="696.8997">package</text></g><!--link MABack to SharedUtils--><g id="link_MABack_SharedUtils"><path d="M417.24,496.75 C386.49,535.66 337.2302,598.0125 303.7702,640.3525 " fill="none" id="MABack-to-SharedUtils" style="stroke:#181818;stroke-width:1.0;stroke-dasharray:7.0,7.0;"/><polygon fill="#181818" points="300.05,645.06,308.7686,640.4789,303.1501,641.1371,302.4919,635.5187,300.05,645.06" style="stroke:#181818;stroke-width:1.0;"/><text fill="#000000" font-family="sans-serif" font-size="13" lengthAdjust="spacing" textLength="74" x="346.22" y="596.3269">may import</text><text fill="#000000" font-family="sans-serif" font-size="13" lengthAdjust="spacing" textLength="69" x="348.72" y="611.4597">(auth utils)</text></g><!--link MABack to MCP--><g id="link_MABack_MCP"><path d="M465.6,496.78 C479.09,513.71 496.39,534.93 512.52,553.26 C540.28,584.81 568.9132,614.9122 593.8132,640.4722 " fill="none" id="MABack-to-MCP" style="stroke:#181818;stroke-width:1.0;"/><polygon fill="#181818" points="598,644.77,594.585,635.5322,594.511,641.1885,588.8546,641.1145,598,644.77" style="stroke:#181818;stroke-width:1.0;"/><text fill="#000000" font-family="sans-serif" font-size="13" lengthAdjust="spacing" textLength="80" x="582.25" y="596.3269">Internal calls</text><text fill="#000000" font-family="sans-serif" font-size="13" lengthAdjust="spacing" textLength="104" x="570.25" y="611.4597">(agent features)</text></g><!--link MCP to KB--><g id="link_MCP_KB"><path d="M631.18,724.28 C626.22,760.2 619.6708,807.5364 614.7008,843.5264 " fill="none" id="MCP-to-KB" style="stroke:#181818;stroke-width:1.0;"/><polygon fill="#181818" points="613.88,849.47,619.0736,841.1018,614.564,844.517,611.1488,840.0074,613.88,849.47" style="stroke:#181818;stroke-width:1.0;"/><text fill="#000000" font-family="sans-serif" font-size="13" lengthAdjust="spacing" textLength="109" x="627.66" y="767.2169">wraps operations</text><text fill="#000000" font-family="sans-serif" font-size="13" lengthAdjust="spacing" textLength="82" x="641.16" y="782.3497">as MCP tools</text></g><!--link Users to MAFront--><g id="link_Users_MAFront"><path d="M300.52,164.08 C300.52,239.25 300.52,367.34 300.52,427.43 " fill="none" id="Users-to-MAFront" style="stroke:#181818;stroke-width:1.0;"/><polygon fill="#181818" points="300.52,433.43,304.52,424.43,300.52,428.43,296.52,424.43,300.52,433.43" style="stroke:#181818;stroke-width:1.0;"/><text fill="#000000" font-family="sans-serif" font-size="13" lengthAdjust="spacing" textLength="44" x="320.02" y="255.7969">Web UI</text><text fill="#000000" font-family="sans-serif" font-size="13" lengthAdjust="spacing" textLength="81" x="301.52" y="270.9297">(all features)</text></g><!--link MAAuth to GoogleOAuth--><g id="link_MAAuth_GoogleOAuth"><path d="M646.83,496.66 C675.24,519.77 714.58,552.62 747.52,583.26 C771.78,605.82 793.7994,628.3988 812.9794,648.6988 " fill="none" id="MAAuth-to-GoogleOAuth" style="stroke:#181818;stroke-width:1.0;"/><polygon fill="#181818" points="817.1,653.06,813.8266,643.7711,813.6661,649.4256,808.0116,649.2652,817.1,653.06" style="stroke:#181818;stroke-width:1.0;"/><text fill="#000000" font-family="sans-serif" font-size="13" lengthAdjust="spacing" textLength="68" x="779" y="603.8269">OAuth flow</text></g><!--link MABack to MongoDB--><g id="link_MABack_MongoDB"><path d="M424.52,496.53 C411.96,516.06 392.99,540.12 369.52,553.26 C286.1,599.96 236.93,531.55 156.52,583.26 C80.74,631.98 72.75,667.67 47.52,754.15 C6,896.43 162.3296,1022.7344 257.0496,1084.7244 " fill="none" id="MABack-to-MongoDB" style="stroke:#181818;stroke-width:1.0;"/><polygon fill="#181818" points="262.07,1088.01,256.7298,1079.7346,257.8863,1085.272,252.3489,1086.4285,262.07,1088.01" style="stroke:#181818;stroke-width:1.0;"/><text fill="#000000" font-family="sans-serif" font-size="13" lengthAdjust="spacing" textLength="78" x="63.02" y="767.2169">users, roles,</text><text fill="#000000" font-family="sans-serif" font-size="13" lengthAdjust="spacing" textLength="107" x="48.52" y="782.3497">knowledge, audit</text></g><!--link KB to MongoDB--><g id="link_KB_MongoDB"><path d="M546.45,928.98 C518.95,947.1 486.73,969.65 459.52,992.34 C423.76,1022.17 390.8272,1055.7581 364.9572,1083.6881 " fill="none" id="KB-to-MongoDB" style="stroke:#181818;stroke-width:1.0;"/><polygon fill="#181818" points="360.88,1088.09,369.9304,1084.2053,364.2777,1084.4218,364.0612,1078.7691,360.88,1088.09" style="stroke:#181818;stroke-width:1.0;"/><text fill="#000000" font-family="sans-serif" font-size="13" lengthAdjust="spacing" textLength="139" x="460.52" y="1005.4069">knowledge operations</text><text fill="#000000" font-family="sans-serif" font-size="13" lengthAdjust="spacing" textLength="131" x="464.52" y="1020.5397">(facts, graphs, docs)</text></g><!--link MCP to MongoDB--><g id="link_MCP_MongoDB"><path d="M541.4,722.3 C460.59,754.31 355.76,798.38 343.52,816.15 C286.58,898.78 302.1449,1019.2727 315.6049,1082.1927 " fill="none" id="MCP-to-MongoDB" style="stroke:#181818;stroke-width:1.0;"/><polygon fill="#181818" points="316.86,1088.06,318.8888,1078.4224,315.8141,1083.1706,311.0658,1080.0959,316.86,1088.06" style="stroke:#181818;stroke-width:1.0;"/><text fill="#000000" font-family="sans-serif" font-size="13" lengthAdjust="spacing" textLength="80" x="367.02" y="886.3169">read queries</text><text fill="#000000" font-family="sans-serif" font-size="13" lengthAdjust="spacing" textLength="125" x="344.52" y="901.4497">(knowledge access)</text></g><!--link KB to Ollama--><g id="link_KB_Ollama"><path d="M663.62,928.99 C725.99,972.83 822.0914,1040.3795 884.4714,1084.2295 " fill="none" id="KB-to-Ollama" style="stroke:#181818;stroke-width:1.0;"/><polygon fill="#181818" points="889.38,1087.68,884.3175,1079.2319,885.2895,1084.8046,879.7168,1085.7767,889.38,1087.68" style="stroke:#181818;stroke-width:1.0;"/><text fill="#000000" font-family="sans-serif" font-size="13" lengthAdjust="spacing" textLength="101" x="813.63" y="1005.4069">agent workflows</text><text fill="#000000" font-family="sans-serif" font-size="13" lengthAdjust="spacing" textLength="133" x="797.63" y="1020.5397">(extraction, analysis)</text></g><!--link MCP to Ollama--><g id="link_MCP_Ollama"><path d="M731.65,718.5 C837.53,755.21 994.45,810.37 998.52,816.15 C1056.83,899.14 1005.1631,1019.5181 970.6931,1082.4281 " fill="none" id="MCP-to-Ollama" style="stroke:#181818;stroke-width:1.0;"/><polygon fill="#181818" points="967.81,1087.69,975.6426,1081.7192,970.2126,1083.3051,968.6268,1077.8751,967.81,1087.69" style="stroke:#181818;stroke-width:1.0;"/><text fill="#000000" font-family="sans-serif" font-size="13" lengthAdjust="spacing" textLength="88" x="1025.18" y="886.3169">LLM inference</text><text fill="#000000" font-family="sans-serif" font-size="13" lengthAdjust="spacing" textLength="77" x="1030.68" y="901.4497">(chat, tools)</text></g><!--link GMN28 to MA--><g id="link_GMN28_MA"><path d="M823.7,376.55 C790.9,328.79 743.45,274.31 685.02,247.73 C597.02,207.71 332.25,196.91 250.02,247.73 C209.995,272.465 200.005,323.595 200.4275,370.0463 C200.5331,381.6591 201.2895,392.9795 202.3901,403.5219 C202.9404,408.7931 203.5767,413.8698 204.2608,418.6914 C204.6028,421.1022 204.9568,423.4492 205.3179,425.7248 C205.363,426.0092 205.4083,426.2926 205.4536,426.5748 " fill="none" id="GMN28-MA" style="stroke:#181818;stroke-width:1.0;stroke-dasharray:7.0,7.0;"/></g><!--link MCP to GMN34--><g id="link_MCP_GMN34"><path d="M704.36,724.59 C718.42,733.66 732.81,743.74 745.52,754.15 C768.08,772.65 790.65,794.94 810.37,815.99 " fill="none" id="MCP-GMN34" style="stroke:#181818;stroke-width:1.0;stroke-dasharray:7.0,7.0;"/></g><!--SRC=[XLRRRkCs47ttLmpSXtNGE5kqRqPWm9Sa3JPfZAJfea1UQ8cssT2abwJYU8i5-Ytzj7v9pv2KPCT82nYmHCxrpCmPVQ1H-IBCz69C3piVv9ecrWJv6cYgnDA9DVNfNhueBqiQkMAbWYn2vMIdyu6cSg6CfCfBHqjdgutlY29OHzsP5c5XtPeUSUUVJEyd6WilwTvgwK-w97oweVFp6Vwi6GxPuArGXZQrheCdOPPQTfedwZRHrYwwz6U72B-iVlLutTpXjB3hZJNIX5RroTpQKcfbbZJoNdcO3WYnraxXtOuGswNmOJIxfk_fjqeEX_JTZLgkmiGweQFN0_ENZe4pPLQFhx01pRC_FF9x8puMnNChpM-jmsFfKHLMMPGV8NfbBGDonwzH_biDmoTZjrgMIqdZIkaInO5Ui5O_g_1n0qTYAG-H4OnCAUVzvrgrFq-gmENNh3bBcWcUJsCktIwihA5yqU1pvQGqJKqcCtgGxaMwTrn204wk0PqpWBMMLqNsn0Vdv_UL3nz7hzMwyVAxrDfkQpSFA-7GeLLGsbFFReAoi7RoZayVfVjH6iuZeZTgxeJR9QV9t6EqzcwUOrt9sdyJlvFeFJZtAuLneBgq_VwGCHkGGZGkU3XvCcqjijJPsV30zO3MOfTL4AVWE6FG9uUM6QD16qCXTCmBjf7sGWeUsAG3mIQKhHCRJtOZNOhuoMIukLTyvnjFvCLhjkbJJNodqBOggRlVVlJZsGyHjdHubpkqqStrH9UM8eWv4q7trfgbdM8MUmrNJFDbhdiIW9tw7Fe6WqlTEwt5Ma3rnY9LkhcvpPoIBg228_hP-f1eXQc65AC3Uk9CEuby8dHvK0VqMSxfyPfXqteFDEWt4GPByWYGF95iR3__GSPcmLswNwkSro3ofZybnvnu-cIQsJibKPKgT52aGuL6ug1elGMoWXsGzMQ5_z8M2BkkTAljf2ZfIoMTagpL6XC5qk1CiyECue1I_sojU-OaM0dPPmmH953OWJvRNuqYmw_CGZff2WcrOYN2QMehk34sI78yGMGNQG-WDVStn03l__prDrRJMXaGD7B5LkajAbIcZZP9j5mtgR9KjT5MbAVag-LI-d0iUV4AYIpCeFIjqRkJDCcrbOdOYBdIAW2iFJuP7Bk51RwaNi5Faah5soePZ3b444Snwlg8aGkgy8V7l6Rb5gtw4D1yFWKqQbAciCAENQxeU7lnseBiPMvQyYkxDSGpKn92YmkQswo3XKCCVow2bejOWziHSmFllwRLOR5Eza75rOiqt8usLZ6d028UaoeNZyKE686f2WggYE3K2IA4VeegprTEBTzFq2PfJj7IyWXgcUlM6fpQebepl8WGfUOoH23uha795z88fsm6b5aIen9aN6BjPiGLMZ4HO4plW3pV8ZUt8TWrO_Tf3CtZbPktPetX9QQ6skaXRPUggF4DEws-CYWyo0I_yl-oH2C4V7hv8umY2L1Stf0-QAnca1ld-FrYWHW-yTAEGGm0HATDoDCWq4Nn0wyaRhHIQApI2CzSX6857leFP81anlljPgzHOLBa3qTOo7GQRSTsv7j4TzX88B4l5GQip08OPUjJ9IExq8iIsIzVpvnzKINkcP1IGT-sL-mvP1Olj5Q7LOyOVOvx4YvQrgtxXYMcSU1hybEvlRXy3JB_0W00]--></g></svg>